<svg width="28" height="28" fill="none" xmlns="http://www.w3.org/2000/svg"><g clip-path="url(#a)"><path d="M22.992 27.52c-5.989.64-11.995.64-17.984 0A5.098 5.098 0 0 1 .48 22.993a84.57 84.57 0 0 1 0-17.984A5.098 5.098 0 0 1 5.01.48a84.57 84.57 0 0 1 17.983 0 5.098 5.098 0 0 1 4.529 4.53 84.587 84.587 0 0 1 0 17.983 5.098 5.098 0 0 1-4.53 4.529Z" fill="url(#b)"/><path d="M25.997 6.021a4.524 4.524 0 0 0-4.018-4.019 75.075 75.075 0 0 0-15.958 0A4.525 4.525 0 0 0 2 6.021a75.072 75.072 0 0 0 0 15.958 4.524 4.524 0 0 0 4.02 4.019 75.04 75.04 0 0 0 15.958 0 4.524 4.524 0 0 0 4.018-4.02 75.04 75.04 0 0 0 0-15.957Z" fill="url(#c)"/><path d="M.42 22.411c.02.194.039.387.06.58a5.098 5.098 0 0 0 4.529 4.53 84.587 84.587 0 0 0 17.983 0 5.098 5.098 0 0 0 4.529-4.53l.06-.58H.42Z" fill="url(#d)"/><path d="M18.824 4.663a4.417 4.417 0 0 0-4.417 4.417v3.3H12.03v4.085l2.377 2.13v9.404a84.74 84.74 0 0 0 8.585-.478 5.098 5.098 0 0 0 4.528-4.53c.476-4.455.598-8.92.365-13.382L22.94 4.663h-4.115Z" fill="url(#e)"/><path d="M14.407 27.999a84.417 84.417 0 0 0 4.893-.166V16.465h3.247l.392-4.085H19.3V9.786c0-.573.465-1.037 1.038-1.037h2.601V4.662h-4.115a4.417 4.417 0 0 0-4.417 4.417v3.3H12.03v4.085h2.377v11.534Z" fill="#fff"/></g><defs><linearGradient id="b" x1="9.297" y1="3.937" x2="16.378" y2="19.089" gradientUnits="userSpaceOnUse"><stop stop-color="#3457A0"/><stop offset="1" stop-color="#3B5998"/></linearGradient><linearGradient id="c" x1="19.311" y1="17.649" x2="-5.165" y2=".832" gradientUnits="userSpaceOnUse"><stop stop-color="#3457A0" stop-opacity="0"/><stop offset="1" stop-color="#1F3F77"/></linearGradient><linearGradient id="d" x1="14" y1="23.399" x2="14" y2="27.188" gradientUnits="userSpaceOnUse"><stop stop-color="#3457A0" stop-opacity="0"/><stop offset="1" stop-color="#1F3F77"/></linearGradient><linearGradient id="e" x1="32.144" y1="23.123" x2="12.71" y2="13.324" gradientUnits="userSpaceOnUse"><stop stop-color="#3457A0" stop-opacity="0"/><stop offset=".325" stop-color="#2A4C8D" stop-opacity=".325"/><stop offset=".705" stop-color="#22427D" stop-opacity=".706"/><stop offset="1" stop-color="#1F3F77"/></linearGradient><clipPath id="a"><path fill="#fff" d="M0 0h28v28H0z"/></clipPath></defs></svg>