<svg width="28" height="28" fill="none" xmlns="http://www.w3.org/2000/svg"><g clip-path="url(#a)"><path d="M27.52 5.008A5.098 5.098 0 0 0 22.993.48a84.57 84.57 0 0 0-17.984 0A5.098 5.098 0 0 0 .48 5.01a84.57 84.57 0 0 0 0 17.983 5.098 5.098 0 0 0 4.53 4.529 84.587 84.587 0 0 0 17.983 0 5.098 5.098 0 0 0 4.529-4.53 84.587 84.587 0 0 0 0-17.983Z" fill="url(#b)"/><path d="M25.997 6.021a4.524 4.524 0 0 0-4.018-4.019 75.075 75.075 0 0 0-15.958 0A4.525 4.525 0 0 0 2 6.021a75.072 75.072 0 0 0 0 15.958 4.524 4.524 0 0 0 4.02 4.019 75.04 75.04 0 0 0 15.958 0 4.524 4.524 0 0 0 4.018-4.02 75.04 75.04 0 0 0 0-15.957Z" fill="url(#c)"/><path d="M.42 22.411c.02.194.039.387.06.58a5.098 5.098 0 0 0 4.529 4.53 84.587 84.587 0 0 0 17.983 0 5.098 5.098 0 0 0 4.529-4.53l.06-.58H.42Z" fill="url(#d)"/><path d="M27.52 22.992c.344-3.218.503-6.441.477-9.664l-6.4-6.4c-.8-.913-1.968-1.482-3.34-1.532a120.574 120.574 0 0 0-8.476 0c-2.344.082-3.983 1.657-4.404 3.973-.074.409-.118.823-.177 1.235v6.79c.033.22.08.438.095.66.094 1.408.673 2.615 1.6 3.431l6.512 6.513a84.635 84.635 0 0 0 9.585-.477 5.098 5.098 0 0 0 4.529-4.53Z" fill="url(#e)"/><path d="M27.52 22.992a5.098 5.098 0 0 1-4.528 4.529c-3.192.34-6.389.5-9.585.477l-6.503-6.503c.754.66 1.737 1.061 2.877 1.104 2.822.106 5.654.104 8.476.002 2.552-.092 4.4-1.982 4.479-4.534.085-2.71.085-5.427 0-8.137-.036-1.177-.45-2.214-1.135-2.997l6.396 6.396a84.795 84.795 0 0 1-.477 9.663Z" fill="url(#f)"/><path d="M17.304 10.968a4.485 4.485 0 1 0-6.336 6.336L21.344 27.68a75.9 75.9 0 0 0 1.648-.16 5.098 5.098 0 0 0 4.529-4.528c.058-.55.111-1.098.16-1.648L17.303 10.968Z" fill="url(#g)"/><path d="m27.946 17.016-8.351-8.35a1.067 1.067 0 1 0-1.494 1.493l9.695 9.695c.066-.946.116-1.892.15-2.838Z" fill="url(#h)"/><path d="M5.2 10.604c.059-.412.103-.826.177-1.235.42-2.316 2.06-3.891 4.404-3.972 2.823-.097 5.654-.102 8.476 0 2.552.091 4.4 1.98 4.48 4.533.084 2.71.084 5.427 0 8.137-.08 2.552-1.928 4.442-4.48 4.534a115.28 115.28 0 0 1-8.476-.002c-2.552-.096-4.316-1.99-4.486-4.546-.015-.22-.062-.44-.095-.66v-6.789Zm8.802 10.484c1.292 0 2.585.039 3.875-.009 2.022-.075 3.266-1.282 3.313-3.302.059-2.518.059-5.039 0-7.557-.047-2.02-1.292-3.255-3.313-3.298a182.854 182.854 0 0 0-7.7 0c-2.007.042-3.254 1.252-3.309 3.25-.069 2.55-.069 5.103 0 7.653.055 1.998 1.302 3.18 3.309 3.254 1.273.047 2.55.009 3.825.009Z" fill="url(#i)"/><path d="M5.2 10.604c.059-.412.103-.826.177-1.235.42-2.316 2.06-3.891 4.404-3.972 2.823-.097 5.654-.102 8.476 0 2.552.091 4.4 1.98 4.48 4.533.084 2.71.084 5.427 0 8.137-.08 2.552-1.928 4.442-4.48 4.534a115.28 115.28 0 0 1-8.476-.002c-2.552-.096-4.316-1.99-4.486-4.546-.015-.22-.062-.44-.095-.66v-6.789Zm8.802 10.484c1.292 0 2.585.039 3.875-.009 2.022-.075 3.266-1.282 3.313-3.302.059-2.518.059-5.039 0-7.557-.047-2.02-1.292-3.255-3.313-3.298a182.871 182.871 0 0 0-7.7 0c-2.007.042-3.254 1.253-3.309 3.25-.069 2.55-.069 5.103 0 7.653.055 1.998 1.302 3.18 3.309 3.254 1.273.047 2.55.009 3.825.009Z" fill="#fff"/><path d="M14 9.515a4.485 4.485 0 1 0 0 8.97 4.485 4.485 0 0 0 0-8.97Zm0 7.426a2.94 2.94 0 1 1 0-5.881 2.94 2.94 0 0 1 0 5.88Zm5.814-7.631a1.067 1.067 0 1 1-2.134 0 1.067 1.067 0 0 1 2.134 0Z" fill="#fff"/></g><defs><linearGradient id="c" x1="10.739" y1="12.166" x2="-36.696" y2="-14.517" gradientUnits="userSpaceOnUse"><stop stop-color="#A1B5D8" stop-opacity="0"/><stop offset=".309" stop-color="#90A2BD" stop-opacity=".31"/><stop offset=".755" stop-color="#7C8B9C" stop-opacity=".757"/><stop offset="1" stop-color="#748290"/></linearGradient><linearGradient id="d" x1="14" y1="24.717" x2="14" y2="29.081" gradientUnits="userSpaceOnUse"><stop stop-color="#FAE100" stop-opacity="0"/><stop offset=".307" stop-color="#FCA800" stop-opacity=".306"/><stop offset=".627" stop-color="#FE7300" stop-opacity=".627"/><stop offset=".869" stop-color="#FF5200" stop-opacity=".867"/><stop offset="1" stop-color="#FF4500"/></linearGradient><linearGradient id="e" x1="12.407" y1="12.367" x2="5.478" y2="5.438" gradientUnits="userSpaceOnUse"><stop stop-color="#833AB4" stop-opacity="0"/><stop offset="1" stop-color="#833AB4"/></linearGradient><linearGradient id="f" x1="19.19" y1="25.61" x2="15.731" y2="9.304" gradientUnits="userSpaceOnUse"><stop stop-color="#833AB4" stop-opacity="0"/><stop offset="1" stop-color="#833AB4"/></linearGradient><linearGradient id="g" x1="20.506" y1="20.506" x2="6.614" y2="6.614" gradientUnits="userSpaceOnUse"><stop stop-color="#833AB4" stop-opacity="0"/><stop offset="1" stop-color="#833AB4"/></linearGradient><linearGradient id="h" x1="21.536" y1="12.1" x2="16.942" y2="7.507" gradientUnits="userSpaceOnUse"><stop stop-color="#833AB4" stop-opacity="0"/><stop offset="1" stop-color="#833AB4"/></linearGradient><linearGradient id="i" x1="19.559" y1="8.479" x2="8.233" y2="19.806" gradientUnits="userSpaceOnUse"><stop stop-color="#833AB4"/><stop offset=".092" stop-color="#9C3495"/><stop offset=".293" stop-color="#DC2546"/><stop offset=".392" stop-color="#FD1D1D"/><stop offset=".559" stop-color="#FC6831"/><stop offset=".689" stop-color="#FC9B40"/><stop offset=".752" stop-color="#FCAF45"/><stop offset=".781" stop-color="#FDB750"/><stop offset=".866" stop-color="#FECB6A"/><stop offset=".942" stop-color="#FFD87A"/><stop offset="1" stop-color="#FFDC80"/></linearGradient><radialGradient id="b" cx="0" cy="0" r="1" gradientUnits="userSpaceOnUse" gradientTransform="translate(5.74 24.47) scale(30.8791)"><stop stop-color="#FAE100"/><stop offset=".054" stop-color="#FADC04"/><stop offset=".117" stop-color="#FBCE0E"/><stop offset=".183" stop-color="#FCB720"/><stop offset=".251" stop-color="#FE9838"/><stop offset=".305" stop-color="#FF7950"/><stop offset=".492" stop-color="#FF1C74"/><stop offset="1" stop-color="#6C1CD1"/></radialGradient><clipPath id="a"><path fill="#fff" d="M0 0h28v28H0z"/></clipPath></defs></svg>