<svg width="28" height="28" fill="none" xmlns="http://www.w3.org/2000/svg"><g clip-path="url(#a)"><path d="M22.992 27.52c-5.989.64-11.995.64-17.984 0A5.098 5.098 0 0 1 .48 22.993a84.57 84.57 0 0 1 0-17.984A5.098 5.098 0 0 1 5.01.48a84.57 84.57 0 0 1 17.983 0 5.098 5.098 0 0 1 4.529 4.53 84.587 84.587 0 0 1 0 17.983 5.098 5.098 0 0 1-4.53 4.529Z" fill="url(#b)"/><path d="M25.997 6.021a4.524 4.524 0 0 0-4.018-4.019 75.075 75.075 0 0 0-15.958 0A4.525 4.525 0 0 0 2 6.021a75.072 75.072 0 0 0 0 15.958 4.524 4.524 0 0 0 4.02 4.019 75.04 75.04 0 0 0 15.958 0 4.524 4.524 0 0 0 4.018-4.02 75.04 75.04 0 0 0 0-15.957Z" fill="url(#c)"/><path d="M.42 22.411c.02.194.039.387.06.58a5.098 5.098 0 0 0 4.529 4.53 84.587 84.587 0 0 0 17.983 0 5.098 5.098 0 0 0 4.529-4.53l.06-.58H.42Z" fill="url(#d)"/><path d="M27.219 24.258 9.149 6.188a2.207 2.207 0 1 0-3.093 3.093l18.007 18.007a5.103 5.103 0 0 0 3.156-3.03Z" fill="url(#e)"/><path d="M9.25 11.184H5.542v11.494l5.262 5.261a84.57 84.57 0 0 0 12.187-.418 5.084 5.084 0 0 0 1.966-.63L9.25 11.183Z" fill="url(#f)"/><path d="M21.843 12.147a3.698 3.698 0 0 0-2.74-1.21c-1.717 0-2.825.603-3.485 1.162l-.726-.915h-3.417v11.494l5.277 5.277a84.755 84.755 0 0 0 6.24-.434 5.098 5.098 0 0 0 4.529-4.53c.17-1.596.295-3.194.374-4.792l-6.052-6.052Z" fill="url(#g)"/><path d="M5.543 11.184h3.708v11.494H5.543V11.184Zm13.559-.248c-2.717 0-3.91 1.51-4.21 1.97v-1.722h-3.417v11.494h3.708v-5.774c0-1.668.768-2.966 2.225-2.966 1.456 0 1.694 1.616 1.694 3.602v5.138h3.708v-8.034a3.708 3.708 0 0 0-3.707-3.708ZM9.604 7.53a2.207 2.207 0 1 1-4.414 0 2.207 2.207 0 0 1 4.414 0Z" fill="#fff"/></g><defs><linearGradient id="b" x1="9.297" y1="3.937" x2="16.378" y2="19.089" gradientUnits="userSpaceOnUse"><stop stop-color="#0077B5"/><stop offset="1" stop-color="#0066B2"/></linearGradient><linearGradient id="c" x1="19.922" y1="17.177" x2="-20.759" y2="-4.646" gradientUnits="userSpaceOnUse"><stop stop-color="#0066B2" stop-opacity="0"/><stop offset="1" stop-color="#07485E"/></linearGradient><linearGradient id="d" x1="14" y1="22.741" x2="14" y2="28.593" gradientUnits="userSpaceOnUse"><stop stop-color="#0066B2" stop-opacity="0"/><stop offset="1" stop-color="#07485E"/></linearGradient><linearGradient id="e" x1="14.84" y1="14.972" x2="4.37" y2="4.503" gradientUnits="userSpaceOnUse"><stop stop-color="#0066B2" stop-opacity="0"/><stop offset="1" stop-color="#07485E"/></linearGradient><linearGradient id="f" x1="20.986" y1="24.698" x2="-.096" y2="14.816" gradientUnits="userSpaceOnUse"><stop stop-color="#0066B2" stop-opacity="0"/><stop offset="1" stop-color="#07485E"/></linearGradient><linearGradient id="g" x1="26.115" y1="26.866" x2="11.428" y2="12.178" gradientUnits="userSpaceOnUse"><stop stop-color="#0066B2" stop-opacity="0"/><stop offset="1" stop-color="#07485E"/></linearGradient><clipPath id="a"><path fill="#fff" d="M0 0h28v28H0z"/></clipPath></defs></svg>