<svg width="115" height="47" fill="none" xmlns="http://www.w3.org/2000/svg"><path d="M109.672 5.615a45.243 45.243 0 0 1-2.308 3.997 41.431 41.431 0 0 1-2.708 3.726 39.108 39.108 0 0 1-6.526 6.433 40.75 40.75 0 0 1-3.75 2.61C90.52 24.76 86.162 26.517 81.85 28c-2.91.997-5.867 1.872-8.82 2.82-.368.117-.736.242-1.104.365-2.6.84-5.144 1.85-7.613 3.02-1.41.684-2.812 1.413-4.149 2.227a37.1 37.1 0 0 0-3.884 2.674l-.914.741a25.518 25.518 0 0 0-5.415 6.17c.073.104.522.302.614.208 1.749-1.934 3.435-3.887 5.537-5.425l.945-.637a45.154 45.154 0 0 1 3.916-2.303c1.353-.697 2.72-1.383 4.123-1.973a162.26 162.26 0 0 1 4.229-1.723l1.07-.41 1.076-.402 2.164-.784c2.888-1.044 5.812-2.075 8.723-3.156 2.182-.812 4.362-1.694 6.47-2.689l.521-.261a47.812 47.812 0 0 0 4.647-2.527l.985-.64a41.544 41.544 0 0 0 3.74-2.806 42.077 42.077 0 0 0 8.987-10.67 45.02 45.02 0 0 0 2.138-4.125l-.164-.079Z" fill="#D9D9D9"/><path d="M68.942 34.724a12.993 12.993 0 0 0-4.561.329 16.619 16.619 0 0 1-3.877 1.887c.81 1.126 3.958 5.063 7.717 3.99 5.167-1.478 8.924-1.517 8.924-1.517.055-.41-3.619-4.167-8.203-4.69Zm-2.089 4.125c-2.075.574-3.754-2.037-3.754-2.037s1.919-1.164 4.091-.913c2.172.25 3.916 2.03 3.885 2.221-1.432.068-2.85.31-4.224.72l.002.009Zm12.962-8.729c-4.584-.522-8.636 1.927-8.636 1.927s3.543 5.53 7.915 4.279c5.17-1.476 8.924-1.517 8.924-1.517.057-.402-3.616-4.156-8.203-4.69Zm-1.93 4.305c-2.072.59-3.75-2.028-3.75-2.028s1.918-1.165 4.09-.912c2.172.254 3.916 2.032 3.887 2.22a17.77 17.77 0 0 0-4.226.72Zm12.107-7.829a10.826 10.826 0 0 0-4.376.465c-.718.528-1.495.97-2.315 1.32 0 0-.045-.114-.112-.315-.249.133-.384.219-.384.219s2.926 4.751 6.566 3.655c4.3-1.29 7.422-1.337 7.422-1.337.047-.344-2.992-3.563-6.801-4.007Zm-1.655 3.95c-1.723.522-3.11-1.734-3.11-1.734s1.6-1.007 3.394-.799c1.794.21 3.243 1.737 3.222 1.898-1.19.065-2.368.278-3.506.635Zm10.2-8.504a10.181 10.181 0 0 0-4.224.475 11.606 11.606 0 0 1-1.697 1.828 9.187 9.187 0 0 1-.598-.835l-.19.112s2.733 4.438 6.13 3.415c4.014-1.204 6.928-1.248 6.928-1.248.044-.327-2.793-3.337-6.35-3.747Zm-1.94 3.702c-1.608.483-2.903-1.616-2.903-1.616s1.493-.942 3.18-.746c1.686.195 3.028 1.618 3.005 1.772-1.115.06-2.217.258-3.282.59Zm7.167-7.991a8.926 8.926 0 0 0-4.063 1.044 9.185 9.185 0 0 1-.832 1.146s-.168-.149-.41-.404c-.133.091-.207.148-.207.148s2.703 3.491 5.483 2.327a23.85 23.85 0 0 1 5.725-1.68c0-.278-2.663-2.555-5.696-2.581Zm-.862 3.133c-1.305.553-2.592-1.1-2.592-1.1a4.633 4.633 0 0 1 2.61-.916c1.439 0 2.7 1.092 2.695 1.222-.934.15-1.845.418-2.713.794Zm4.587-8.056a7.33 7.33 0 0 0-2.838 1.18 8.372 8.372 0 0 1-.901 1.566 6.091 6.091 0 0 1-.493-.428l-.086.094s2.765 2.516 4.908 1.138a20.347 20.347 0 0 1 4.535-2.237c-.031-.222-2.587-1.734-5.125-1.314Zm-.41 2.714c-1.015.653-2.326-.54-2.326-.54a3.914 3.914 0 0 1 2.047-1.146c1.201-.201 2.412.522 2.428.627a9.497 9.497 0 0 0-2.149 1.06Zm-.039-5.521-.042.05s2.331 2.307 4.156 1.12a16.37 16.37 0 0 1 3.854-1.912c-.026-.209-2.185-1.613-4.337-1.287a6.182 6.182 0 0 0-2.827 1.306 6.328 6.328 0 0 1-.475.937s-.139-.078-.329-.214Zm3.169-1.11c1.018-.154 2.042.522 2.055.609a7.785 7.785 0 0 0-1.828.905c-.864.562-1.968-.522-1.968-.522a3.227 3.227 0 0 1 1.733-.992h.008ZM64.381 35.044a12.85 12.85 0 0 0 2.976-2.689c2.859-3.626 2.788-8.876 2.465-9.122 0 0-2.679 2.635-7.373 5.253-3.97 2.22-2.55 8.631-2.55 8.631s.23-.057.618-.185c-.13-.183-.2-.293-.2-.293a15.929 15.929 0 0 1 4.064-1.595Zm-1.783-3.738a17.687 17.687 0 0 0 3.49-2.488c.154.117.188 2.61-1.167 4.32-1.355 1.71-3.532 2.256-3.532 2.256s-.67-3.036 1.209-4.088Z" fill="#D9D9D9"/><path d="M60.308 36.64s.07.109.2.291a16.622 16.622 0 0 0 3.878-1.887 15.927 15.927 0 0 0-4.078 1.595Zm18.562-8.893c3.279-3.25 3.85-8.472 3.558-8.754 0 0-2.978 2.287-7.957 4.313-4.211 1.715-3.587 8.255-3.587 8.255s4.704-.566 7.986-3.814ZM74.322 26a17.812 17.812 0 0 0 3.77-2.041c.138.133-.133 2.61-1.687 4.146-1.553 1.535-3.783 1.806-3.783 1.806s-.305-3.099 1.7-3.91Zm14.093-1.966c1.73-3.026 1.013-6.986.734-7.137 0 0-1.718 2.258-4.982 4.699-2.331 1.752-1.344 5.373-.979 6.461a13.651 13.651 0 0 1 2.428-1.005 9.983 9.983 0 0 0 2.799-3.018Zm-4.104-.566a13.069 13.069 0 0 0 2.35-2.23c.133.07.472 1.948-.348 3.394-.82 1.446-2.422 2.057-2.422 2.057s-.888-2.24.42-3.221Z" fill="#D9D9D9"/><path d="M85.617 27.06c-.84.257-1.654.593-2.428 1.006.067.2.112.316.112.316a11.57 11.57 0 0 0 2.316-1.322Zm10.623-8.579c.738-3.503-1.215-7.148-1.536-7.21 0 0-.966 2.751-3.38 6.177-1.47 2.088-.16 4.733.694 6.059.73-.405 1.499-.737 2.295-.99a10.258 10.258 0 0 0 1.926-4.036Zm-3.755.342a13.311 13.311 0 0 0 1.603-2.926c.152.028 1.076 1.757.726 3.415-.35 1.657-1.715 2.777-1.715 2.777s-1.583-1.895-.614-3.266Z" fill="#D9D9D9"/><path d="M94.312 22.518c-.795.25-1.564.577-2.294.979.183.289.383.568.597.835a11.6 11.6 0 0 0 1.697-1.814Zm6.828-7.958c.159-3.03-1.95-5.827-2.227-5.837a23.784 23.784 0 0 1-2.026 5.613c-1.045 2.088.728 4.307 1.566 5.2.398-.275.815-.522 1.248-.739a9.156 9.156 0 0 0 1.439-4.237Zm-3.217 1.029c.43-.842.753-1.735.96-2.658.131 0 1.131 1.329 1.045 2.765a4.646 4.646 0 0 1-1.075 2.548s-1.562-1.378-.93-2.655Z" fill="#D9D9D9"/><path d="M98.868 19.94c.307-.359.585-.741.833-1.143-.431.217-.846.465-1.242.741.242.254.41.402.41.402Zm5.783-5.93c.45-.976.681-2.038.679-3.112-.052-2.572-2.011-4.804-2.245-4.796a20.296 20.296 0 0 1-1.363 4.863c-.708 1.742.731 3.423 1.535 4.178a9.026 9.026 0 0 1 1.394-1.134Zm-2.292-2.418a9.618 9.618 0 0 0 .647-2.305c.11 0 1.044 1.044 1.063 2.268a3.915 3.915 0 0 1-.75 2.222s-1.412-1.065-.96-2.185Z" fill="#D9D9D9"/><path d="M104.651 14.01c-.502.335-.969.72-1.394 1.149.156.151.321.294.493.428.357-.492.659-1.02.901-1.577Zm2.389-3.988a7.12 7.12 0 0 1 .804-.729 5.954 5.954 0 0 0 .475-2.989c-.261-2.068-2.122-3.689-2.323-3.655a15.742 15.742 0 0 1-.749 4.052c-.491 1.553 1.08 2.835 1.793 3.32Zm-.757-2.752a7.507 7.507 0 0 0 .355-1.919c.094-.013.974.755 1.099 1.734a3.098 3.098 0 0 1-.449 1.858s-1.292-.73-1.013-1.673h.008Z" fill="#D9D9D9"/><path d="M107.04 10.022c.198.136.329.21.329.21.184-.3.343-.613.475-.938a7.127 7.127 0 0 0-.804.728Zm5.532-5.545C113.911 2.595 113.922.1 113.776 0c0 0-.523.877-2.695 2.378-1.835 1.277-1.953 4.77-1.953 4.77a8.314 8.314 0 0 0 3.444-2.67Zm-2.214.784s.063-1.658.932-2.261c1.029-.71 1.274-1.125 1.274-1.125.071.046.065 1.23-.569 2.12a3.942 3.942 0 0 1-1.637 1.273v-.007ZM5.331 5.718a44.611 44.611 0 0 0 2.306 4 41.21 41.21 0 0 0 2.71 3.725 39.222 39.222 0 0 0 6.526 6.433c1.2.941 2.453 1.815 3.752 2.616 3.861 2.38 8.218 4.138 12.531 5.62 2.909.998 5.867 1.873 8.82 2.82.37.118.738.24 1.106.363 2.6.843 5.143 1.853 7.613 3.023 1.407.684 2.81 1.413 4.146 2.227a36.96 36.96 0 0 1 3.885 2.674l.916.741a25.5 25.5 0 0 1 5.412 6.167c-.073.107-.522.305-.61.211-1.752-1.934-3.439-3.887-5.54-5.425l-.946-.637a44.49 44.49 0 0 0-3.916-2.303c-1.352-.7-2.72-1.386-4.122-1.973-1.402-.588-2.81-1.18-4.235-1.731l-1.07-.413-1.076-.4c-.718-.26-1.438-.534-2.161-.782-2.89-1.045-5.815-2.089-8.725-3.16-2.183-.811-4.363-1.691-6.467-2.686l-.522-.26a47.829 47.829 0 0 1-4.627-2.53l-.986-.638a42.289 42.289 0 0 1-3.762-2.806A42.103 42.103 0 0 1 7.31 9.92a44.408 44.408 0 0 1-2.14-4.125l.161-.078Z" fill="#D9D9D9"/><path d="M37.856 39.508s3.756.04 8.923 1.517c3.762 1.073 6.908-2.872 7.717-3.99a16.67 16.67 0 0 1-3.877-1.887 12.988 12.988 0 0 0-4.56-.331c-4.585.532-8.258 4.29-8.203 4.691Zm6.07-1.282c-.027-.19 1.712-1.968 3.884-2.221 2.172-.254 4.091.91 4.091.91s-1.678 2.612-3.749 2.03a17.69 17.69 0 0 0-4.227-.719Zm-16.944-3.313s3.757.039 8.923 1.517c4.373 1.25 7.919-4.282 7.919-4.282s-4.055-2.457-8.64-1.924c-4.584.533-8.26 4.287-8.202 4.689Zm5.913-1.104c-.029-.191 1.713-1.969 3.885-2.222 2.172-.253 4.09.914 4.09.914s-1.678 2.61-3.748 2.026a17.69 17.69 0 0 0-4.227-.718ZM18.21 30.71s3.133.047 7.42 1.337c3.639 1.091 6.566-3.655 6.566-3.655s-.136-.086-.382-.22c-.067.202-.114.317-.114.317-.82-.35-1.598-.793-2.316-1.321a10.773 10.773 0 0 0-4.373-.465c-3.812.449-6.85 3.66-6.801 4.007Zm4.94-.686c-.024-.165 1.414-1.69 3.218-1.898 1.804-.21 3.394.799 3.394.799s-1.386 2.25-3.11 1.733a14.32 14.32 0 0 0-3.503-.634Zm-13.036-4.137s2.916.045 6.929 1.25c3.394 1.02 6.13-3.417 6.13-3.417s-.068-.041-.19-.11c-.184.29-.384.57-.599.836a11.748 11.748 0 0 1-1.697-1.827 10.14 10.14 0 0 0-4.224-.475c-3.556.415-6.394 3.42-6.35 3.743Zm5.002-.629c-.02-.154 1.321-1.566 3.008-1.775 1.686-.209 3.177.747 3.177.747s-1.306 2.088-2.903 1.618a13.363 13.363 0 0 0-3.282-.59ZM5.55 20.436a23.84 23.84 0 0 1 5.726 1.679c2.77 1.164 5.482-2.326 5.482-2.326s-.073-.058-.206-.152c-.243.261-.41.405-.41.405a9.21 9.21 0 0 1-.833-1.146 8.993 8.993 0 0 0-4.062-1.044c-3.044.03-5.705 2.307-5.697 2.584Zm3.838-.235c0-.13 1.256-1.211 2.694-1.222a4.655 4.655 0 0 1 2.611.914s-1.282 1.655-2.592 1.102a11.253 11.253 0 0 0-2.702-.794h-.01Zm-7.002-5.944a20.344 20.344 0 0 1 4.535 2.238c2.143 1.378 4.908-1.141 4.908-1.141l-.08-.091a6.085 6.085 0 0 1-.494.428 8.42 8.42 0 0 1-.9-1.58 7.37 7.37 0 0 0-2.839-1.177c-2.54-.42-5.096 1.091-5.13 1.323Zm3.394.33c.016-.11 1.225-.826 2.428-.627a3.947 3.947 0 0 1 2.044 1.146s-1.305 1.193-2.326.54a9.64 9.64 0 0 0-2.151-1.06h.005Zm1.862-4.251a6.14 6.14 0 0 1-.478-.937 6.208 6.208 0 0 0-2.825-1.306C2.185 7.773.026 9.177 0 9.4a16.391 16.391 0 0 1 3.856 1.908c1.828 1.19 4.154-1.12 4.154-1.12l-.042-.047c-.198.123-.326.196-.326.196ZM6.54 9.999s-1.104 1.094-1.969.522a7.858 7.858 0 0 0-1.827-.903c.013-.1 1.044-.765 2.055-.61.67.137 1.28.485 1.74.991Z" fill="#D9D9D9"/><path d="M54.697 36.744s-.067.11-.2.292c.389.128.62.186.62.186s1.419-6.415-2.552-8.631c-4.7-2.611-7.37-5.253-7.37-5.253-.327.243-.395 5.482 2.461 9.122a12.85 12.85 0 0 0 2.964 2.689c1.427.34 2.799.876 4.078 1.595Zm-1.086-1.237s-2.18-.538-3.532-2.256c-1.352-1.718-1.32-4.206-1.167-4.32a17.685 17.685 0 0 0 3.49 2.487c1.883 1.042 1.21 4.089 1.21 4.089Z" fill="#D9D9D9"/><path d="M54.697 36.744s-.068.11-.2.292a16.671 16.671 0 0 1-3.878-1.888c1.427.34 2.8.877 4.078 1.596Zm-10.576-5.078s.621-6.54-3.59-8.255c-4.976-2.026-7.957-4.313-7.957-4.313-.292.282.28 5.503 3.56 8.75 3.283 3.249 7.987 3.818 7.987 3.818Zm-1.744-1.642s-2.23-.262-3.783-1.81-1.827-4.012-1.684-4.145a17.672 17.672 0 0 0 3.768 2.039c1.994.809 1.7 3.916 1.7 3.916Zm-12.993-2.859c.84.256 1.654.593 2.43 1.005.363-1.089 1.35-4.713-.981-6.462-3.264-2.449-4.981-4.7-4.981-4.7-.28.152-.998 4.113.736 7.139a9.945 9.945 0 0 0 2.796 3.018Zm1.715-.384s-1.6-.624-2.42-2.057c-.82-1.434-.483-3.316-.35-3.384a13.025 13.025 0 0 0 2.35 2.232c1.318.982.42 3.209.42 3.209Z" fill="#D9D9D9"/><path d="M29.384 27.164c.84.257 1.654.593 2.43 1.005-.067.201-.114.316-.114.316-.82-.35-1.598-.793-2.316-1.32Zm-8.697-4.542c.794.251 1.56.583 2.287.99.854-1.33 2.165-3.98.698-6.063-2.418-3.422-3.394-6.174-3.394-6.174-.322.06-2.272 3.707-1.536 7.21a10.312 10.312 0 0 0 1.945 4.037Zm1.214-.43s-1.368-1.118-1.715-2.779c-.347-1.66.575-3.393.726-3.414a13.39 13.39 0 0 0 1.603 2.924c.982 1.376-.614 3.268-.614 3.268Z" fill="#D9D9D9"/><path d="M20.688 22.621c.794.251 1.56.583 2.287.99a9.459 9.459 0 0 1-.598.835 11.75 11.75 0 0 1-1.69-1.825ZM15.3 18.896c.43.217.845.465 1.242.741.843-.89 2.61-3.11 1.566-5.2a23.944 23.944 0 0 1-2.026-5.61c-.276 0-2.386 2.806-2.224 5.834a9.104 9.104 0 0 0 1.441 4.235Zm.837-.549a4.647 4.647 0 0 1-1.075-2.548c-.076-1.435.924-2.762 1.044-2.764.208.922.53 1.815.96 2.657.643 1.277-.929 2.655-.929 2.655Z" fill="#D9D9D9"/><path d="M16.132 20.043a9.186 9.186 0 0 1-.833-1.146c.43.217.846.465 1.242.74-.242.26-.41.406-.41.406Zm-4.384-4.781c.804-.763 2.243-2.444 1.535-4.178a20.195 20.195 0 0 1-1.36-4.871c-.235 0-2.193 2.224-2.248 4.793a7.378 7.378 0 0 0 .68 3.112 9.04 9.04 0 0 1 1.393 1.144Zm-.062-1.381a3.916 3.916 0 0 1-.75-2.222c.029-1.217.948-2.261 1.073-2.261.117.793.334 1.569.645 2.308.441 1.107-.974 2.175-.974 2.175h.006Z" fill="#D9D9D9"/><path d="M10.35 14.11a8.98 8.98 0 0 1 1.399 1.152 6.105 6.105 0 0 1-.494.428 8.427 8.427 0 0 1-.906-1.58ZM9.761 6.8a15.664 15.664 0 0 1-.749-4.052c-.198-.028-2.06 1.593-2.323 3.655a5.973 5.973 0 0 0 .475 2.995c.286.223.554.468.804.731.707-.488 2.276-1.775 1.793-3.329ZM7.722 9.048a3.091 3.091 0 0 1-.451-1.859c.125-.981 1.005-1.749 1.099-1.733.034.652.154 1.297.355 1.919.292.942-1.003 1.673-1.003 1.673Z" fill="#D9D9D9"/><path d="M7.968 10.127c-.198.136-.326.209-.326.209a6.14 6.14 0 0 1-.478-.938c.286.223.555.466.804.729ZM5.885 7.252s-.128-3.501-1.969-4.77C1.75.978 1.227.104 1.227.104c-.149.099-.136 2.595 1.201 4.477a8.313 8.313 0 0 0 3.457 2.67ZM3.013 4.119c-.642-.906-.648-2.089-.577-2.136 0 0 .248.415 1.274 1.128.872.6.932 2.258.932 2.258a3.916 3.916 0 0 1-1.637-1.263l.008.013Z" fill="#D9D9D9"/></svg>