<svg width="84" height="73" fill="none" xmlns="http://www.w3.org/2000/svg"><g clip-path="url(#a)" fill="#373737"><path d="m56.258 35.215.01-.002-.01.002Zm.06-.013-.048.012h.003l-.062.015.043-.01-.092.022.03-.008-.035.009.008-.002a8.104 8.104 0 0 1-1.517.126c.391.057 1.587.636 2.082.206-.121 1.434-.448 2.938.06 4.397-.218.18-.187.588-.192 1.523-.177-.018-.376-.039-.617-.062-.035-.218.006-.489-.052-.8-1.157 1.693 1.622 1.403 1.815.95a15.51 15.51 0 0 1-1.118-.085c.266-.306.025-1.162.618-1.178 3.302.194 6.515.728 9.838.166.104-.041.55-.065.168-.097-3.119-.427-6.066-.497-9.27-.56-.481.003-.794 0-.999.053.04-.493.072-.998.084-1.51 1.914-.606.753-3.416 1.364-4.377-1.37.524-.081 3.334-1.363 4.31.02-.951-.03-1.921-.223-2.866a.672.672 0 0 0 .063-.146c.614-3.495-.65-7.946.122-11.183 1.513-4.539 5.198-6.226 8.776-2.617 1.291 1.613-.904-3.33-4.498-2.839-7.48 1.83-4.902 11.035-4.988 16.55Zm-.003.028-.014.012.014-.013Zm-.337 6.195c0-.004-.004-.008-.005-.012l.005.012Zm1.076-1.108-.036.014c.01-.006-.001 0 .035-.013l.002-.001Zm-.71-5.124.01-.019a.168.168 0 0 1-.013.02h.002Z"/><path d="M69.918 36.107c-.566-.09-1.19-.046-1.876-.186.296-8.396.43-11.776-1.43-13.306 1.345 2.038.604 9.946.809 11.396.01.261.013.498.014.71-.184 1.243-.33 2.525-.195 3.842 0-.009 0-.017-.003-.026 0 .013 0 .013.007.072l-.002-.022c.617 4.333.593-.456.405-2.22.268.201.881.043 2.27-.26Zm-1.884-.19v-.003.004Zm-8.819-18.463c-6.84 1.453-4.91 13.266-4.518 17.727 1.209-5.834-2.13-15.857 6.063-17.74.59-.098-1.354-.103-1.545.013Z"/><path d="M62.052 17.037c-1.878.188 3.007.016 4.976 3.302 2.899 4.834 1.296 10.313 2.485 15.015.323-3.53.582-7.164-.08-10.777l.018.11c-.851-4.35-2.555-7.759-7.4-7.65ZM56.91 41.309c2.91.603 5.77.664 8.783.744 1.123-.172 2.897.6 1.953-1.27.005.24.06.536-.01.882-3.254-.325-8.433-.922-10.726-.356Zm10.742.342a.235.235 0 0 1-.013.016l.013-.016Zm-5.045 1.438c2.871 1.067 5.746 2.406 8.927 2.564-2.818-1.158-5.958-2.06-9.04-2.607l.073.028c-.08-.01-.277.009-.608.064-3.142.59-6.571.587-9.542 2.154 5.024-.555 10.296-2.026 10.19-2.203Zm-9.967 4.874v-.077a.76.76 0 0 1 0 .077Z"/><path d="m54.527 57.422.044.258c.015-.088.03-.177.043-.267l.043-.003-.041-.006c.499-3.24.48-7.743.129-9.982.103.018.237.046.441.08 7.098.806 22.066.098 10.348-.256h.018a39.649 39.649 0 0 0-1.734-.014c-2.975.12-6.01-.115-9.074.182v-.007.008l-.025.002.024.004c-.35 3.252-.766 6.63-.22 9.97-.449-.07-.97-.142-1.496-.265-.138-3.924.655-7.913-.093-11.863-.178.833-.25 1.706-.291 2.664-.246 11.437-.812 9.727 1.884 9.495Z"/><path d="M71.568 57.59c-.313-.025-.74-.008-1.127-.153.013-2.664.294-8.841-.604-9.714.091 1.617-.032 3.27-.078 4.944a29.657 29.657 0 0 0-.37-4.582c-.155.978-.252 2.334-.298 3.758-.618-.144-1.246-.246-1.949-.206-3.036.255.36.564 1.94.453-.074 2.607.016 5.38.223 6.44l.007.09c-.135.913-.08 1.866.087 2.83-1.184-.144-2.749-.208-4.349-.237.403-1.954.005-4.018-.043-6.077 0-2.342.315-4.786-.108-7.189-1.138 6.116-.4 9.24.068 13.264-1.311-.023-2.641-.023-3.8-.028a37.236 37.236 0 0 0-2.03.01c.17-3.098.3-6.284-.035-9.424l.03-.004c.13-.028.093-.069-.043-.113a26.755 26.755 0 0 0-.68-3.774c-.117 1.2-.116 2.407-.057 3.626-.672-.097-1.517-.151-1.672-.033-3.309.61-.036.499 1.69.366.06 1.062.16 2.134.258 3.216.162 2.07-.135 4.083.329 6.146-1.503.06-3.008.23-4.524.588 5.493.406 12.406.32 14.986-.221l.004.023.007-.025c.107-.023.207-.046.299-.07a15.493 15.493 0 0 0-.268-.037c.333-1.192.408-2.504.074-3.81a6.059 6.059 0 0 0-.038.125c.122-1.245.213-2.505.247-3.77.004.83.062 1.66.176 2.481-.02 1.342.186 1.556 1.648 1.106Zm.278-11.638c-.192 3.778-.704 7.72-.091 11.577.583-3.745.718-7.726.09-11.577Zm2.887 12.053.009-.003h-.003l-.006.003Z"/><path d="M74.351 55.152c-.238-.1-.834 3.67.384 2.854l-.02.006.036-.012-.006.002.213-.061c.2.089.398.259.253.785-.278 2.135-.093 4.126.153 6.297-.102.028-.586.13-.647.211 1.462.374.835-.996 1.1-2-.042-1.488.34-4.802-.639-5.363.246-.09.093-.119-.65-.142.105-.696.03-1.37-.056-2.186v.007a1.242 1.242 0 0 1-.009-.187c.406-.13.729-.167-.112-.21Zm.892 2.982-.009-.013a.086.086 0 0 1 .009.013Zm.06-3.308c.043.105-.102.854.036.504 1.174-4.05.294-8.246.361-12.448-.542 3.884-.558 7.939-.397 11.944Zm-.613 11.161a4.337 4.337 0 0 0-.148-.726c-.3.665.129 2.963.148.726Zm.001.013v-.019.02Zm3.406-26.418c-1.267 8.141-.468 24.92.038 27.204.486-5.074-.156-10.262-.09-15.435-.062-4.039.586-7.739.052-11.769ZM75.84 27.108c-.162 1.027-1.005 6.58.544 5.689-.084-.03-.136.018-.403-.086-.078-1.766.524-3.763-.141-5.603Z"/><path d="M76.33 32.564c.259-.878.47-1.927.383-2.94l.001.063c-.022-.417.01-.882-.276-1.395-.229 1.341-.327 2.795-.108 4.272Z"/><path d="m83.67 34.333-.005.01.008-.015c.043.048.086.097.13.142a2.665 2.665 0 0 0-.061-.259l.015-.027-.02.013c-.36-1.251-1.731-3.425-2.619-4.803C67.3 7.443 66.5 3.557 63.276 0c3.183 6.694 7.78 12.832 11.435 19.35 4.5 7.329 6.93 12.656 8.913 14.923-.989.73-.368 2.102-.076 2.458-.138-.014-.438.021-.944.122-1.206.167-3.608.801-4.177 1.386.122-1.58.065-3.165-.029-4.816v.087a47.114 47.114 0 0 0-.006-.491v.08c-.014-.888-.123-1.813-.28-2.813-.686 3.026-.248 7.207.086 9.773.105-.59.177-1.18.224-1.769 1.604.007 4.978-1.164 5.204-1.483.06.035.072-.035-.013-.253-.083-.68-.308-1.476.057-2.22Z"/><path d="M62.486 4.463c.565-.88.938-1.502 1.068-1.779-6.85 8.807-13.809 18.997-14.3 20.344.235-.232.565-.58.83-.885 4.708-6.282 10.074-14.056 12.375-17.64 1.447 3.252 3.34 6.274 5.26 9.302-1.957-.165-5.002-.771-7.174-.83-.324-.052-3.715.31-2.92.366 3.625.457 6.938 1.35 10.224.67.912 1.439 1.827 2.881 2.7 4.353 3.03 4.626 4.763 8.302 7.039 11.18.673.834.379.43.166-.142-.324-.57-.646-1.136-.968-1.696.25-.013.626-.108.832-.276 3.746 6.245 7.888 12.879 4.152 5.703-11.898-19.071-16.137-27.17-18.286-29.65 2.943 6.06 6.973 11.657 10.348 17.53a424.73 424.73 0 0 0 3.082 5.24c-.19.04-.513.106-.868.162-6.577-11.446-12.09-20.306-13.56-21.952Zm14.612 22.21c.056.127.076.325.15.595a3.448 3.448 0 0 0-.572.243l-.54-.942c.315.075.639.11.962.103Zm-29.63-1.105c-2.26 2.409-4.23 5.105-5.708 8.12 2.294-2.353 4.193-5.152 5.708-8.12Zm-4.506 4.533C57.934 7.752 61.196 4.62 63.28.311c-4.589 5.339-8.092 11.701-12.27 17.422-2.295 3.305-13.877 19.37-8.05 12.368Zm-27.409 4.63c1.683.335 3.342.467 5.005.54-.98.939-.886 1.363-.23 2.667.113-1.6-.24-1.172.441-2.657.186.008.372.015.559.021-.563.747-.813 1.693-.641 2.725-.084.115-.139.182-.165.22-.02.016-.043.032-.068.055.607.112.835-2.217.988-2.996 1.442.05 2.89.075 4.368.168 5.103.14 9.364.684 13.107.323.62-.067.63-.035-.006-.16-7.22-.899-14.363-.89-21.627-1.142-.334.02-2.616.087-1.73.236Zm5.12 3.382.005-.004-.004.004Zm.005-.004.004-.005-.004.005Zm17.616-4.746c.3-.046.82-.012.168-.12-6.886-.785-13.672-.772-20.587-1.19-12.447.365 21.026 1.631 20.419 1.31Z"/><path d="M8.537 38.591c1.02-11.1 2.008-20.221 2.252-24.834.27 2.546.907 5.093 1.403 7.628.12.557.23 1.114.337 1.67-2.709 13.06-2.765 23.148-1.541 14.298.14-1.585.32-3.163.516-4.744.163-.198.307-.433.37-.665-.1.095-.217.205-.329.33.361-2.876.77-5.756 1.088-8.666.536 2.852 1.002 5.684 2.035 8.472.086.194.127.462.114.142-.079-2.414-.506-4.648-1.035-7.037-1.132-5.06-1.625-9.328-2.904-12.864.012-.714-.01-1.23-.072-1.526-1.06 4.077-1.037 8.403-1.526 12.622-.622 7.414-1.383 12.85-1.436 16.801v-.06c-.005.52.017 1.236.065 1.832.293-1.092.494-2.215.663-3.399Zm29.018-24.706c-3.87-1.023-7.902-1.059-11.917-1.496-5.6-.429-10.219-1.215-13.989-.89 3.67.998 7.557 1.023 11.355 1.44 5.926.48 10.425 1.243 14.55.946Zm8.151 1.042a17.9 17.9 0 0 0 2.086-.1c-1.514-.438-3.11-.751-4.773-.71-4.38-.005 2.123.943 2.687.81Zm-5.474 16.669-.003.006c0-.003.004-.007.007-.013 2.025-3.65 3.83-7.54 4.958-11.63-2.478 3.506-6.688 15.054-4.962 11.637Zm-.006.01-.003.005.003-.005Z"/><path d="m40.24 31.585-.004.005.003-.005Zm-.007.011.003-.005v.003l-.003.002Zm7.503-17.941C54.724 8.56 61.998 1.902 63.209.348c-2.57 1.462-4.713 3.61-7 5.53-2.877 2.557-5.89 4.721-8.45 7.585-.152.211-.562.545-.022.193Z"/><path d="M47.743 54.18c.526-3.733.57-7.655-.04-11.45.197 0 .395-.016.591-.046.097.178.114.433.17.717.555-1.468-.526-1.083-1.651-1.158a8.368 8.368 0 0 0-.995.049 4.168 4.168 0 0 0 1.856.438 33.65 33.65 0 0 0-.305 2.766 26.772 26.772 0 0 0-2.092-.238c.5-3.984.222-8.058.18-12.123v.019c-.061-1.06-.165-2.231-.376-3.342-.715 5.564-.41 12.528-.05 15.429-2.92-.202-5.897-.03-8.853-.153-10.423-.239-20.662-.873-31.04-1.212a41.79 41.79 0 0 0-1.523.113c4.67-1.088 9.219-2.994 13.664-4.86l-.238.064c.314-.552.209-3.024-.145-4.136-.38 1.323-.262 2.74.112 4.145a136.96 136.96 0 0 0-3.61 1.028c-.08-3.804.146-7.708.025-11.594-.973 3.748-.467 7.721-.034 11.596-4.726 1.417-8.698 2.893-10.435 3.848-.121.028-.166.054-.142.08l-.025.015.032-.008c.647.45 22.168.673 21.76.732 9.198.136 16.665.672 20.503.731.026.176.051.332.076.463.024-.153.047-.307.067-.461.968.012 1.691-.008 2.138-.077-.19 2.855-.044 5.779.38 8.626ZM7.738 63.891c.472-1.423.479-4.92.474-7.106-.057-3.256.177-6.428-.42-9.658a22.258 22.258 0 0 0-.296 2.204c0-.018.003-.036.005-.054-.184 4.808-.423 9.77.237 14.614Zm-1.086 1.476c.815-7.115.38-16.292-.002-18.013-.72 5.463-.492 11.095-.235 16.63.055.34.182 1.881.237 1.383Zm13.222 6.639c-2.42-.049-13.418.544-10.31.813 6.58.678 23-.758 10.31-.813ZM9.625 71.44c6.74.696 19.077-.74 7.52-.715-1.577-.084-9.997.544-7.52.714Zm.269-1.77c3.424.434 6.703.308 10.129-.318-1.59-.22-3.245-.29-4.94-.255-1.592.064-4.287.17-5.19.574Z"/><path d="M17.466 67.782c-1.537-.206-3.105-.281-4.708-.275-.784-.033-3.773.279-4.527.475a26.018 26.018 0 0 0-.292-2.08c-.603 1.636-.232 3.604.459 5.268a36.25 36.25 0 0 0-.156-3.059c.06.006.136.01.227.015 3.03.43 5.995.204 8.997-.344Z"/><path d="M18.11 66.407c-.864-.29-3.88-.382-5.518-.381-1.352.038-2.818.17-4.208.434 3.161.554 6.482.407 9.726-.052Zm56.127 4.153.1-.001-.1.002Z"/><path d="M74.338 70.56c-12.702.543-22.325.814-29.438.992a27.42 27.42 0 0 0 .317-3.093c.99.178 2.21.112 2.56-.01l.035.214c.013-.057 0 0 .028-.166l.012-.085c.027-.02.03-.04.009-.061.435-3.135.478-6.16-.095-9.314-.51 2.852-.465 5.87-.08 8.805.021.163.042.306.066.457-.197-.062-.644-.12-1.439-.16-.057-.001-.639.042-1.086.094.029-.65.041-1.3.044-1.951.265-.038.522-.08.773-.126a23.258 23.258 0 0 0-.772-.112c.003-1.665-.046-3.336-.02-5.031-.072-4.558.341-8.629-.308-12.149-.626 3.206-.333 6.57-.399 9.874.046 2.428-.073 4.823-.078 7.213a31.476 31.476 0 0 0-3.409-.146 589.5 589.5 0 0 1-11.75.101c.387-1.835.26-5.18.238-7.42-.072-2.832.148-5.538-.324-8.333.119-.01.219-.022.299-.035-.105-.017-.209-.032-.314-.05a14.251 14.251 0 0 0-.07-.383l-.041.366c-1-.158-2.004-.294-3.014-.406.152-.114.277-.306.353-.596v-.004c-1.719 1.573-1.558-2.703.596-.954-.148-.839-1.136-1.123-1.858-.6-1 .644-.695 1.6-.125 2.044a80.25 80.25 0 0 0-1.132-.106c.134-.157.22-.407.223-.776-.273 1.38-2.37-.211-.474-1.158.191-.028.505-.249 1.03.245-.145-.553-.773-.852-1.417-.636-1.526.632-1.229 1.7-.595 2.225-.37-.027-.742-.052-1.113-.076.102-.14.124-.365.017-.693-.025.004.129.293-.1.433-1.928.427-.666-2.764.556-1.3.077-.516-.5-.904-1.128-.723-1.712.8-1.291 1.76-.58 2.212-.457-.024-.914-.046-1.37-.065.104-.11.158-.283.128-.528 0-.004 0-.007.002-.01-1.387 1.401-1.295-2.285.586-.893-.213-.582-.933-1.009-1.555-.51-1.058.798-.75 1.552-.212 1.9-.594-.021-1.188-.04-1.782-.055.123-.153.232-.367.316-.653-1.677 1.752-1.406-1.844.79-1.04.037-.264-.927-.7-1.438-.409-1.349.513-1.324 1.539-.885 2.072l-.997-.02c.229-.283.259-.631-.172-.81l-.004-.002c.011.01.021.02.03.032.58 1.155-2.262.653-.389-.949.039.005.288-.173.947.204-.241-.405-.8-.822-1.395-.52-.722.217-1.094 1.346-.668 2.017l-1.218-.02a.682.682 0 0 0 .15-.315.117.117 0 0 1 .006-.012c-.033.032-.008.042-.094.077-2.01.4-.386-3.043.74-1.09.123-.544-.313-.934-.831-1.022 11.342.28 22.505.803 33.85 1.003.595-.04 2.43-.123 1.87-.194-4.214-.702-8.323-.41-12.585-.654-9.908-.253-19.522-.742-29.368-.958-.567.013-1.197.043-1.828.107.01-.489.043-1.083-.208-1.597-.081.5-.13 1.038.102 1.572l-.044.04c-.226.026-.45.055-.669.09.158.032.317.064.477.094-.647.652-1.145 1.495-1.573 2.389-3.194.279 1.793.725 3.7.59-.637 4.801-.36 9.76-.216 14.63.032.226.123 1.307.198 1.771l-.018.033-.132-.022c.032.03.065.057.1.085-.72 1.464-.44 3.96-.457 5.322.758-2.246.6-3.133.607-5.212.377.249.856.417 1.349.604-.082 1.1.366 3.569.846 4.053-.35-5.03.742-4.354-2.194-4.81v-.079c.707-6.554.418-13.9.057-16.387.274-.026.464-.067.526-.127-.188-.051-.378-.1-.57-.144a7.03 7.03 0 0 0-.034-.183l-.023.17c-1.11-.256-2.256-.385-3.442-.316.5-.466 1.175-1.567 1.44-2.336 1.262.221 2.574.316 3.903.371 1.32.024 2.638.052 3.952.085a1.14 1.14 0 0 0-.563.226c-1.062.765-.604 1.733.021 2.13h-.05c-.233.028-2.023.107-1.454.189.61.094 1.238.181 1.877.262-.635 4.936-.553 10.126.008 15.116.562-4.966.652-10.104.012-15.114 2.252.284 4.647.488 6.956.628-.595 4.685-.427 9.54-.053 14.287.041.29.08.517.133.832.012-.057 0 .002.028-.167.673-6.269.288-12.877-.09-14.95 5.178.313 9.918.308 11.62.176-.282 2.655-.367 5.65-.345 8.356-2.134-.461-4.446-.393-6.69-.356-2.586.214-3.377.36-3.138.453-.671 2.376-.453 5.03.324 7.425.071-2.199.064-4.974-.296-7.416.827.242 8.773.126 9.386-.027.119 0 .255.003.413-.003.029 3.201.206 5.985.378 7.308-4.224 0-6.247-.01-8.216.285-.992.185-1.41.137-.414.274 3.485.521 6.86.134 10.377.178 5.683-.097 10.197.102 13.606-.262.007 1.717.082 3.433.328 5.16 0 .004 0 .008.003.013-10.898.273-15.866.327-16.958.805 1.521.485 5.012.31 7.28.17 4.362-.2 8.769-.335 13.185-.487 12.001-.495 28.861-.481 30.297-1.22a24.416 24.416 0 0 0-4.263-.261ZM2.856 45.849l.012.027-.02.002.008-.029Z"/><path d="M72.688 67.477c-11.06.482-22.193.097-24.811.914 5.835.574 11.586-.057 17.426-.046l-.086.002c11.236.01 16.529-.764 7.47-.87Zm-50.778.932c-.13-.143-.382-.162-.507-.773l.013.042a2.947 2.947 0 0 0-.055-.176c.005.014.01.028.013.042-.079-.255-.2-.66-.446-.962.046.592.04 1.787.981 1.827Zm5.25 3.605c-.458-.086-.564-.113-1.158-.07-.038 0-.594.13-.955.24.19-.396.211-.916-.158-1.288.065.361.059.86.023 1.331-.177.062-.25.11-.062.111a.243.243 0 0 0 .052.016l-.007.076a.817.817 0 0 0 .05-.07c.558.067 2.825-.23 2.216-.346Zm-20.316.505c.214-.475.378-1.104.179-1.695-.156.498-.26 1.079-.179 1.695Zm1.639-1.544c-.092.136-.288 1.588-.12 1.322.162-.346.29-.855.12-1.322Zm-4.243.035c.583.636 1.196 1.59 2.166 1.901-.629-.638-1.13-1.638-2.167-1.902Z"/><path d="M6.967 72.599c-1.635.349 1.405.263 1.73.233-.48-.233-1.097-.399-1.73-.233Zm2.565-7.274c-3.75.462 1.143.68 2.439.246-.756-.087-1.56-.324-2.439-.246Z"/><path d="M13.084 65.498c-2.868.324 2.836.68 3.43.273-1.055-.2-2.247-.4-3.43-.273Z"/><path d="M19.475 66.164c-.797-.373-1.746-.562-2.72-.391-.803.037.52.356 1.807.41.054.15.107.303.159.457.747 1.417-1.33 2.075 5.72 3.844a108.83 108.83 0 0 0-.394-.245c1.436.633 2.76.73 2.692 1.613 1.03-1.455-4.32-2.802-4.99-3.42.254.362.555.686.896.966-4.368-2.534-1.77-.06-4.046-3.214.292.013.585.006.876-.02Zm.031-2.314c.151.1.48.236.69-.01 1.504-1.468-1.091-4.577 1.227-4.653.173-.23-1.053-.264-1.306.174-1.17.91.964 4.664-.611 4.488Zm1.434-.365c.908.504 1.358-1.294 1.25-2.24.028-.605-.323-1.616.528-1.882.385.139-.026-.267-.367-.089-1.74.658.1 3.97-1.412 4.21Zm1.713-4.124h-.009.01Zm-.054.015-.017.008.017-.008Z"/><path d="M23.769 59.467c-1.942.845.002 3.99-1.505 4.085.04.024.075.047.223.082 1.94-.235-.032-3.64 1.9-4.206-.145-.015-.376-.047-.618.039Z"/><path d="M25.179 59.558c-1.96.655 0 3.855-1.808 4.04 2.561.66.442-4.182 2.49-3.887-.214-.095-.214-.232-.682-.153Zm1.686.022c-1.644.5-.607 2.24-1.67 3.734 1.919-.763.476-3.481 2.097-3.616-.126-.037-.063-.124-.427-.117Zm1.755.19c.132.093-.077-.274-.44-.115-1.053.442-.974 2.535-1.312 3.135 1.51-1.015.48-2.786 1.752-3.02Zm-.153-.025-.014.002.014-.002ZM16.448 48.366v.001-.001Zm-.001.005v-.005.005Zm12.717-.247c-.194-.304-.535-.73-1.05-.563-2.045.771.207 3.386.816 1.885l.003-.007a.145.145 0 0 1-.026.044c-1.27.671-1.542-2.416.257-1.359Zm-.286 1.382-.006.002.006-.002Zm-27.11-4.512.003-.004-.003.004Zm0 0c-.97.989-1.793 2.193-.753 3.428-.489-1.696 1.306-2.811 1.829-4.445-.319.301-.708.644-1.076 1.019v-.002Zm.003-.004.025-.03-.025.03Zm9.222-7.66v.007-.007Zm-.001.008c0 .005 0 .01-.002.015v.01l.002-.025Zm.98-5.684c-.339 2.751-.55 5.686.157 8.485-.243-2.563.523-6.425-.157-8.485Zm.426-1.146c.39-.307.69-.787.888-1.324-.36.303-.754.768-.888 1.324Zm29.768 4.246c-.685 1.64-.836 3.415-.533 5.239-1.916-.456-5.533-.443-7.932-.5-4.708-.102-9.175-.401-13.876-.466-12.898.514 22.985 1.548 22.19 1.07a5.09 5.09 0 0 0-.295-.083c.213-.543.325-1.71.453-2.492v.008c.112-.859.108-1.886-.007-2.776Z"/><path d="M39.404 35.856c.982-.579 2.176-1.194 2.905-2.199-1.056.475-2.308.997-2.905 2.2Zm-.886-2.237c1.352-.017 2.264-.914 3.495-1.49-.269.006-.536.03-.8.074-.777.098-2.51 1.082-2.695 1.416Zm10.317-8.239c.157-.572.347-1.343.039-2.018l-.052.291-.097-.016c-.157.012-.21-.374-.452-.297-.36.817-.054 3.407.194.327.043.014.177.085.353.011-.086.525-.13 1.098.015 1.703Zm-.872 4.799-.002-.008c.217 1.542.249-.065.291-.858.176-1.309-.634-2.836.584-3.906-2.11.714-1.14 3.195-.873 4.772Zm-.079.734c-.123.051-.279.1-.582.213.15.015.37.08.582-.213Z"/><path d="M47.194 31.014c.275-1.149.287-2.49.007-3.74-.184 1.188-.456 2.463-.007 3.74Zm19.382-4.602a48.595 48.595 0 0 0-4.46-.569c.469.027.84.037.992.022 1.132.004 2.036-.152 3.195-.055-.77-.286-1.624-.303-2.531-.443-1.477-.179-2.827-.372-4.372-.199-2.027.162-.183.438 1.569.592a63.831 63.831 0 0 0-2.044-.097c-7.16.285 7.332 1.07 7.65.75Zm-4.616 6.801c-.088-2.125-.184-4.255-.18-6.43-.149.9-.252 3.663-.258 6.417-.918-.022-1.839-.025-2.755-.04-.07.052-2.106.11-1.575.19 1.442.323 2.881.459 4.33.515.01 3.388.172 6.534.578 5.91l.006-.482c.008 0 .011-.003.08-.014a.957.957 0 0 1-.007-.042 1.256 1.256 0 0 1-.072.046c.016-1.815-.045-3.609-.118-5.403 1.696.046 3.407-.004 5.155.015-1.659-.473-3.41-.624-5.184-.682Z"/><path d="M64.502 34.042c.003 0 .004.004.016 0h-.016ZM49.547 55.13c-.04.721.116 1.57.35 2.35.014-.935.776-3.035-.313-2.893-2.208-.021-2.124.094-.037.543Zm.405 2.427c-.367-.056-.622-.127-1.122-.08-.399.02-.85.389-.74.91.205-.717 1.217-.526 1.862-.83Zm4.811-.109c-.651 1.233-.529 2.679-.215 4.08.318-1.282.33-2.662.215-4.08Zm6.744-5.802c-4.345.071-.863.711.852.53h-.032c.473-.032 1.113-.067 1.666-.13-.75-.204-1.6-.387-2.486-.4ZM60.28 33.954a1.144 1.144 0 0 0-.336.065c-1.676 1.126-.117 3.085-1.64 4.288 1.64-.443 1.215-2.056 1.39-3.43.082-.385.157-.659.586-.923Zm3.424.363c-1.513 1.088.286 3.548-1.251 4.634 2.14-.55.44-3.333 1.528-4.721.196-.168-.073-.062-.277.087Zm2.084-.08a1.265 1.265 0 0 0-.533.055c-1.72.99-.044 3.797-1.617 4.706 2.311-.325.442-4.24 2.15-4.76Zm-.155.07.004-.002-.004.002Zm1.302.228c-2.175.176-.154 3.395-2.155 4.594 3.004-.785.475-3.825 2.155-4.594Zm-5.82-.188a.405.405 0 0 0-.214-.044c-1.125.623.505 3.191-1.432 4.072 1.631-.147 1.748-1.818 1.416-3.132-.016-.189-.257-.876.23-.896Zm-.15.028a.097.097 0 0 0-.01.005l.01-.005Zm-46.182 3.489c.004.156.007.313.005.47.472-1.355.882-3.211-.113-4.525.054.393.11.934.06 1.435l.003-.03c-.086.776.002 1.598.037 2.443-2.13 1.87-1.523 2.917.008.207Zm22.97 10.549c.595-.095-1.294-.126-1.609-.067-5.65.638-5.507 9.184-4.818 11.955.9-7.844.864-10.662 6.427-11.888Zm-6.024 12.699c2.633.77 5.396.302 8.102.025a35.558 35.558 0 0 0-5.125-.364c-.811.044-2.663.2-2.978.34Z"/><path d="M42.977 55.445c.154 1.431.178 2.909.338 4.271 1.268-3.528.448-11.535-5.424-11.202.518.213 1.132.458 1.722.733.251.126.487.28.702.46l-.064-.057c.071.065.143.13.215.192l-.067-.06c1.795 1.392 2.338 3.46 2.575 5.639-1.676-.217-3.392-.453-5.142-.575.173-1.872.158-3.756-.35-5.594-.136 1.824-.297 3.68-.388 5.55a31.213 31.213 0 0 0-.764-.03 11.61 11.61 0 0 0-2.495.374c1.085.119 2.114.263 3.228.39a42.574 42.574 0 0 0 .04 4.286c-1.402.04-2.83.281-4.255.611 3.358.426 6.772-.04 10.224-.124.249-.019.291-.014.604-.045-2.01-.19-4.048-.483-6.163-.45-.129 0-.256.003-.384.007.203-1.375.453-2.786.621-4.21 1.782.196 3.41-.117 5.227-.166ZM62.521 5.707c-.465 1.666-.785 3.391-.638 5.212-.068 3.695 1.33-4.523.638-5.212Zm15.634 64.722a8.564 8.564 0 0 0-.168-4.01c-.18 1.361-.359 2.62.168 4.01Z"/></g><defs><clipPath id="a"><path fill="#fff" d="M0 0h83.802v73H0z"/></clipPath></defs></svg>