<svg width="1194" height="120" viewBox="0 0 1194 120" fill="none" xmlns="http://www.w3.org/2000/svg">
<g filter="url(#filter0_d_965_108)">
<mask id="path-1-inside-1_965_108" fill="white">
<path fill-rule="evenodd" clip-rule="evenodd" d="M543.672 39.3042C539.497 34.9661 533.945 32 527.925 32H36C25.5066 32 17 40.5066 17 51V117C17 117.552 17.4477 118 18 118H1176C1176.55 118 1177 117.552 1177 117V51C1177 40.5066 1168.49 32 1158 32H666.075C660.055 32 654.503 34.9661 650.328 39.3042C636.865 53.2947 617.949 62 597 62C576.051 62 557.135 53.2947 543.672 39.3042Z"/>
</mask>
<path fill-rule="evenodd" clip-rule="evenodd" d="M543.672 39.3042C539.497 34.9661 533.945 32 527.925 32H36C25.5066 32 17 40.5066 17 51V117C17 117.552 17.4477 118 18 118H1176C1176.55 118 1177 117.552 1177 117V51C1177 40.5066 1168.49 32 1158 32H666.075C660.055 32 654.503 34.9661 650.328 39.3042C636.865 53.2947 617.949 62 597 62C576.051 62 557.135 53.2947 543.672 39.3042Z" fill="white"/>
<path d="M650.328 39.3042L658.975 47.6249L650.328 39.3042ZM543.672 39.3042L552.319 30.9836L543.672 39.3042ZM36 44H527.925V20H36V44ZM29 51C29 47.134 32.134 44 36 44V20C18.8792 20 5 33.8792 5 51H29ZM29 117V51H5V117H29ZM18 106C24.0753 106 29 110.925 29 117H5C5 124.18 10.8202 130 18 130V106ZM1176 106H18V130H1176V106ZM1165 117C1165 110.925 1169.93 106 1176 106V130C1183.18 130 1189 124.18 1189 117H1165ZM1165 51V117H1189V51H1165ZM1158 44C1161.87 44 1165 47.134 1165 51H1189C1189 33.8792 1175.12 20 1158 20V44ZM666.075 44H1158V20H666.075V44ZM641.681 30.9836C630.387 42.7206 614.554 50 597 50V74C621.345 74 643.344 63.8688 658.975 47.6249L641.681 30.9836ZM597 50C579.446 50 563.613 42.7206 552.319 30.9836L535.025 47.6249C550.656 63.8688 572.655 74 597 74V50ZM666.075 20C656.02 20 647.52 24.9156 641.681 30.9836L658.975 47.6249C661.485 45.0165 664.089 44 666.075 44V20ZM527.925 44C529.911 44 532.515 45.0165 535.025 47.6249L552.319 30.9836C546.48 24.9156 537.98 20 527.925 20V44Z" fill="#DEE0EA" mask="url(#path-1-inside-1_965_108)"/>
</g>
<mask id="path-3-inside-2_965_108" fill="white">
<path fill-rule="evenodd" clip-rule="evenodd" d="M543.672 39.3042C539.497 34.9661 533.945 32 527.925 32H36C25.5066 32 17 40.5066 17 51V117C17 117.552 17.4477 118 18 118H1176C1176.55 118 1177 117.552 1177 117V51C1177 40.5066 1168.49 32 1158 32H666.075C660.055 32 654.503 34.9661 650.328 39.3042C636.865 53.2947 617.949 62 597 62C576.051 62 557.135 53.2947 543.672 39.3042Z"/>
</mask>
<path d="M650.328 39.3042L658.254 46.9315L650.328 39.3042ZM543.672 39.3042L551.598 31.677L543.672 39.3042ZM36 43H527.925V21H36V43ZM28 51C28 46.5817 31.5817 43 36 43V21C19.4315 21 6 34.4315 6 51H28ZM28 117V51H6V117H28ZM18 107C23.523 107 28 111.477 28 117H6C6 123.627 11.3725 129 18 129V107ZM1176 107H18V129H1176V107ZM1166 117C1166 111.477 1170.48 107 1176 107V129C1182.63 129 1188 123.628 1188 117H1166ZM1166 51V117H1188V51H1166ZM1158 43C1162.42 43 1166 46.5817 1166 51H1188C1188 34.4315 1174.57 21 1158 21V43ZM666.075 43H1158V21H666.075V43ZM642.402 31.677C630.927 43.6018 614.837 51 597 51V73C621.062 73 642.804 62.9877 658.254 46.9315L642.402 31.677ZM597 51C579.163 51 563.073 43.6018 551.598 31.677L535.746 46.9315C551.196 62.9877 572.938 73 597 73V51ZM666.075 21C656.356 21 648.102 25.7532 642.402 31.677L658.254 46.9315C660.903 44.179 663.753 43 666.075 43V21ZM527.925 43C530.247 43 533.097 44.179 535.746 46.9315L551.598 31.677C545.898 25.7532 537.644 21 527.925 21V43Z" fill="white" mask="url(#path-3-inside-2_965_108)"/>
<rect x="29" y="92" width="1136" height="26" fill="white"/>
<line x1="1165.5" y1="105" x2="1165.5" y2="118" stroke="#DEE0EA"/>
<line x1="28.5" y1="105" x2="28.5" y2="118" stroke="#DEE0EA"/>
<defs>
<filter id="filter0_d_965_108" x="0" y="0" width="1194" height="120" filterUnits="userSpaceOnUse" color-interpolation-filters="sRGB">
<feFlood flood-opacity="0" result="BackgroundImageFix"/>
<feColorMatrix in="SourceAlpha" type="matrix" values="0 0 0 0 0 0 0 0 0 0 0 0 0 0 0 0 0 0 127 0" result="hardAlpha"/>
<feOffset dy="-15"/>
<feGaussianBlur stdDeviation="8.5"/>
<feComposite in2="hardAlpha" operator="out"/>
<feColorMatrix type="matrix" values="0 0 0 0 0 0 0 0 0 0 0 0 0 0 0 0 0 0 0.04 0"/>
<feBlend mode="normal" in2="BackgroundImageFix" result="effect1_dropShadow_965_108"/>
<feBlend mode="normal" in="SourceGraphic" in2="effect1_dropShadow_965_108" result="shape"/>
</filter>
</defs>
</svg>
