<svg width="384" height="120" viewBox="0 0 384 120" fill="none" xmlns="http://www.w3.org/2000/svg">
<g filter="url(#filter0_d_976_64)">
<mask id="path-1-inside-1_976_64" fill="white">
<path fill-rule="evenodd" clip-rule="evenodd" d="M137.263 39.7995C133.061 35.1832 127.339 32 121.096 32H36C25.5066 32 17 40.5066 17 51V117C17 117.552 17.4477 118 18 118H366C366.552 118 367 117.552 367 117V51C367 40.5066 358.493 32 348 32H262.904C256.661 32 250.939 35.1832 246.736 39.7995C233.201 54.6678 213.691 64 192 64C170.309 64 150.799 54.6678 137.263 39.7995Z"/>
</mask>
<path fill-rule="evenodd" clip-rule="evenodd" d="M137.263 39.7995C133.061 35.1832 127.339 32 121.096 32H36C25.5066 32 17 40.5066 17 51V117C17 117.552 17.4477 118 18 118H366C366.552 118 367 117.552 367 117V51C367 40.5066 358.493 32 348 32H262.904C256.661 32 250.939 35.1832 246.736 39.7995C233.201 54.6678 213.691 64 192 64C170.309 64 150.799 54.6678 137.263 39.7995Z" fill="white"/>
<path d="M36 44H121.096V20H36V44ZM29 51C29 47.134 32.134 44 36 44V20C18.8792 20 5 33.8792 5 51H29ZM29 117V51H5V117H29ZM18 106C24.0751 106 29 110.925 29 117H5C5 124.18 10.8203 130 18 130V106ZM366 106H18V130H366V106ZM355 117C355 110.925 359.925 106 366 106V130C373.18 130 379 124.18 379 117H355ZM355 51V117H379V51H355ZM348 44C351.866 44 355 47.134 355 51H379C379 33.8792 365.121 20 348 20V44ZM262.904 44H348V20H262.904V44ZM237.863 31.7214C226.506 44.1969 210.173 52 192 52V76C217.208 76 239.897 65.1387 255.61 47.8776L237.863 31.7214ZM192 52C173.827 52 157.494 44.1969 146.137 31.7214L128.39 47.8776C144.103 65.1387 166.792 76 192 76V52ZM262.904 20C252.476 20 243.732 25.2741 237.863 31.7214L255.61 47.8776C258.146 45.0923 260.847 44 262.904 44V20ZM121.096 44C123.153 44 125.854 45.0923 128.39 47.8776L146.137 31.7214C140.268 25.2741 131.524 20 121.096 20V44Z" fill="#DEE0EA" mask="url(#path-1-inside-1_976_64)"/>
</g>
<mask id="path-3-inside-2_976_64" fill="white">
<path fill-rule="evenodd" clip-rule="evenodd" d="M137.263 39.7995C133.061 35.1832 127.339 32 121.096 32H36C25.5066 32 17 40.5066 17 51V117C17 117.552 17.4477 118 18 118H366C366.552 118 367 117.552 367 117V51C367 40.5066 358.493 32 348 32H262.904C256.661 32 250.939 35.1832 246.736 39.7995C233.201 54.6678 213.691 64 192 64C170.309 64 150.799 54.6678 137.263 39.7995Z"/>
</mask>
<path d="M36 43H121.096V21H36V43ZM28 51C28 46.5817 31.5817 43 36 43V21C19.4315 21 6 34.4315 6 51H28ZM28 117V51H6V117H28ZM18 107C23.5228 107 28 111.477 28 117H6C6 123.627 11.3726 129 18 129V107ZM366 107H18V129H366V107ZM356 117C356 111.477 360.477 107 366 107V129C372.627 129 378 123.627 378 117H356ZM356 51V117H378V51H356ZM348 43C352.418 43 356 46.5817 356 51H378C378 34.4315 364.569 21 348 21V43ZM262.904 43H348V21H262.904V43ZM238.602 32.3946C227.064 45.0695 210.466 53 192 53V75C216.915 75 239.339 64.2661 254.871 47.2044L238.602 32.3946ZM192 53C173.534 53 156.936 45.0695 145.398 32.3946L129.129 47.2044C144.661 64.2661 167.085 75 192 75V53ZM262.904 21C252.824 21 244.332 26.0999 238.602 32.3946L254.871 47.2044C257.545 44.2665 260.498 43 262.904 43V21ZM121.096 43C123.502 43 126.455 44.2665 129.129 47.2044L145.398 32.3946C139.668 26.0999 131.176 21 121.096 21V43Z" fill="white" mask="url(#path-3-inside-2_976_64)"/>
<rect x="29" y="92" width="326" height="26" fill="white"/>
<line x1="28.5" y1="105" x2="28.5" y2="118" stroke="#DEE0EA"/>
<line x1="355.5" y1="105" x2="355.5" y2="118" stroke="#DEE0EA"/>
<defs>
<filter id="filter0_d_976_64" x="0" y="0" width="384" height="120" filterUnits="userSpaceOnUse" color-interpolation-filters="sRGB">
<feFlood flood-opacity="0" result="BackgroundImageFix"/>
<feColorMatrix in="SourceAlpha" type="matrix" values="0 0 0 0 0 0 0 0 0 0 0 0 0 0 0 0 0 0 127 0" result="hardAlpha"/>
<feOffset dy="-15"/>
<feGaussianBlur stdDeviation="8.5"/>
<feComposite in2="hardAlpha" operator="out"/>
<feColorMatrix type="matrix" values="0 0 0 0 0 0 0 0 0 0 0 0 0 0 0 0 0 0 0.04 0"/>
<feBlend mode="normal" in2="BackgroundImageFix" result="effect1_dropShadow_976_64"/>
<feBlend mode="normal" in="SourceGraphic" in2="effect1_dropShadow_976_64" result="shape"/>
</filter>
</defs>
</svg>
