<svg width="586" height="120" viewBox="0 0 586 120" fill="none" xmlns="http://www.w3.org/2000/svg">
<g filter="url(#filter0_d_965_109)">
<mask id="path-1-inside-1_965_109" fill="white">
<path fill-rule="evenodd" clip-rule="evenodd" d="M238.264 39.7995C234.061 35.1832 228.339 32 222.096 32H36C25.5066 32 17 40.5066 17 51V117C17 117.552 17.4477 118 18 118H568C568.552 118 569 117.552 569 117V51C569 40.5066 560.493 32 550 32H363.904C357.661 32 351.939 35.1832 347.737 39.7995C334.201 54.6678 314.691 64 293 64C271.309 64 251.799 54.6678 238.264 39.7995Z"/>
</mask>
<path fill-rule="evenodd" clip-rule="evenodd" d="M238.264 39.7995C234.061 35.1832 228.339 32 222.096 32H36C25.5066 32 17 40.5066 17 51V117C17 117.552 17.4477 118 18 118H568C568.552 118 569 117.552 569 117V51C569 40.5066 560.493 32 550 32H363.904C357.661 32 351.939 35.1832 347.737 39.7995C334.201 54.6678 314.691 64 293 64C271.309 64 251.799 54.6678 238.264 39.7995Z" fill="white"/>
<path d="M347.737 39.7995L356.61 47.8776L347.737 39.7995ZM238.264 39.7995L229.39 47.8776L238.264 39.7995ZM36 44H222.096V20H36V44ZM29 51C29 47.134 32.134 44 36 44V20C18.8792 20 5 33.8792 5 51H29ZM29 117V51H5V117H29ZM18 106C24.0749 106 29 110.925 29 117H5C5 124.18 10.8206 130 18 130V106ZM568 106H18V130H568V106ZM557 117C557 110.925 561.925 106 568 106V130C575.18 130 581 124.18 581 117H557ZM557 51V117H581V51H557ZM550 44C553.866 44 557 47.134 557 51H581C581 33.8792 567.121 20 550 20V44ZM363.904 44H550V20H363.904V44ZM338.863 31.7214C327.506 44.1969 311.173 52 293 52V76C318.208 76 340.897 65.1387 356.61 47.8776L338.863 31.7214ZM293 52C274.827 52 258.494 44.1969 247.137 31.7214L229.39 47.8776C245.103 65.1387 267.792 76 293 76V52ZM363.904 20C353.476 20 344.732 25.2741 338.863 31.7214L356.61 47.8776C359.146 45.0923 361.847 44 363.904 44V20ZM222.096 44C224.153 44 226.854 45.0923 229.39 47.8776L247.137 31.7214C241.268 25.2741 232.524 20 222.096 20V44Z" fill="#DEE0EA" mask="url(#path-1-inside-1_965_109)"/>
</g>
<mask id="path-3-inside-2_965_109" fill="white">
<path fill-rule="evenodd" clip-rule="evenodd" d="M238.264 39.7995C234.061 35.1832 228.339 32 222.096 32H36C25.5066 32 17 40.5066 17 51V117C17 117.552 17.4477 118 18 118H568C568.552 118 569 117.552 569 117V51C569 40.5066 560.493 32 550 32H363.904C357.661 32 351.939 35.1832 347.737 39.7995C334.201 54.6678 314.691 64 293 64C271.309 64 251.799 54.6678 238.264 39.7995Z"/>
</mask>
<path d="M347.737 39.7995L355.871 47.2044L347.737 39.7995ZM238.264 39.7995L230.129 47.2044L238.264 39.7995ZM36 43H222.096V21H36V43ZM28 51C28 46.5817 31.5817 43 36 43V21C19.4315 21 6 34.4315 6 51H28ZM28 117V51H6V117H28ZM18 107C23.5226 107 28 111.477 28 117H6C6 123.628 11.3728 129 18 129V107ZM568 107H18V129H568V107ZM558 117C558 111.477 562.477 107 568 107V129C574.628 129 580 123.627 580 117H558ZM558 51V117H580V51H558ZM550 43C554.418 43 558 46.5817 558 51H580C580 34.4315 566.569 21 550 21V43ZM363.904 43H550V21H363.904V43ZM339.602 32.3946C328.064 45.0695 311.466 53 293 53V75C317.915 75 340.339 64.2662 355.871 47.2044L339.602 32.3946ZM293 53C274.534 53 257.936 45.0695 246.398 32.3946L230.129 47.2044C245.661 64.2661 268.085 75 293 75V53ZM363.904 21C353.824 21 345.332 26.0999 339.602 32.3946L355.871 47.2044C358.545 44.2665 361.498 43 363.904 43V21ZM222.096 43C224.502 43 227.455 44.2665 230.129 47.2044L246.398 32.3946C240.668 26.0999 232.176 21 222.096 21V43Z" fill="white" mask="url(#path-3-inside-2_965_109)"/>
<rect x="29" y="92" width="528" height="26" fill="white"/>
<line x1="28.5" y1="105" x2="28.5" y2="118" stroke="#DEE0EA"/>
<line x1="557.5" y1="105" x2="557.5" y2="118" stroke="#DEE0EA"/>
<defs>
<filter id="filter0_d_965_109" x="0" y="0" width="586" height="120" filterUnits="userSpaceOnUse" color-interpolation-filters="sRGB">
<feFlood flood-opacity="0" result="BackgroundImageFix"/>
<feColorMatrix in="SourceAlpha" type="matrix" values="0 0 0 0 0 0 0 0 0 0 0 0 0 0 0 0 0 0 127 0" result="hardAlpha"/>
<feOffset dy="-15"/>
<feGaussianBlur stdDeviation="8.5"/>
<feComposite in2="hardAlpha" operator="out"/>
<feColorMatrix type="matrix" values="0 0 0 0 0 0 0 0 0 0 0 0 0 0 0 0 0 0 0.04 0"/>
<feBlend mode="normal" in2="BackgroundImageFix" result="effect1_dropShadow_965_109"/>
<feBlend mode="normal" in="SourceGraphic" in2="effect1_dropShadow_965_109" result="shape"/>
</filter>
</defs>
</svg>
