<svg width="28" height="28" fill="none" xmlns="http://www.w3.org/2000/svg"><g clip-path="url(#a)"><path d="M22.992 27.52c-5.989.64-11.995.64-17.984 0A5.098 5.098 0 0 1 .48 22.993a84.57 84.57 0 0 1 0-17.984A5.098 5.098 0 0 1 5.01.48a84.57 84.57 0 0 1 17.983 0 5.098 5.098 0 0 1 4.529 4.53 84.587 84.587 0 0 1 0 17.983 5.098 5.098 0 0 1-4.53 4.529Z" fill="url(#b)"/><path d="M25.997 6.021a4.524 4.524 0 0 0-4.018-4.019 75.075 75.075 0 0 0-15.958 0A4.525 4.525 0 0 0 2 6.021a75.072 75.072 0 0 0 0 15.958 4.524 4.524 0 0 0 4.02 4.019 75.04 75.04 0 0 0 15.958 0 4.524 4.524 0 0 0 4.018-4.02 75.04 75.04 0 0 0 0-15.957Z" fill="#4ECC5C"/><path d="M.42 22.411c.02.194.039.387.06.58a5.098 5.098 0 0 0 4.529 4.53 84.587 84.587 0 0 0 17.983 0 5.098 5.098 0 0 0 4.529-4.53l.06-.58H.42Z" fill="url(#c)"/><path fill-rule="evenodd" clip-rule="evenodd" d="M20.122 7.844c-1.624-1.625-3.73-2.411-6.03-2.412a8.52 8.52 0 0 0-8.549 8.545c0 1.516.505 2.94 1.258 4.244l-1.44 4.457 5.254 5.254a84.56 84.56 0 0 0 12.377-.411 5.098 5.098 0 0 0 4.529-4.53c.259-2.426.413-4.856.462-7.286l-7.861-7.86Z" fill="url(#d)"/><path d="m5.66 22.378 1.178-4.303a8.286 8.286 0 0 1-1.108-4.15c.002-4.578 3.727-8.302 8.305-8.302a8.253 8.253 0 0 1 5.875 2.434 8.251 8.251 0 0 1 2.43 5.874c-.002 4.578-3.728 8.303-8.305 8.303h-.003c-1.39 0-2.756-.35-3.97-1.01L5.66 22.377Z" fill="url(#e)"/><path fill-rule="evenodd" clip-rule="evenodd" d="M20.122 7.844a8.55 8.55 0 0 0-6.086-2.522c-4.742 0-8.6 3.858-8.603 8.6a8.6 8.6 0 0 0 1.148 4.3l-1.22 4.456 4.56-1.196a8.598 8.598 0 0 0 4.112 1.047h.003c4.742 0 8.601-3.859 8.603-8.6a8.548 8.548 0 0 0-2.517-6.085Zm-6.086 13.233h-.002a7.143 7.143 0 0 1-3.64-.997l-.261-.155-2.706.71.722-2.638-.17-.27a7.127 7.127 0 0 1-1.093-3.805c.001-3.94 3.209-7.147 7.153-7.147a7.1 7.1 0 0 1 5.055 2.096 7.105 7.105 0 0 1 2.093 5.057c-.002 3.942-3.21 7.149-7.15 7.149Z" fill="#fff"/><path fill-rule="evenodd" clip-rule="evenodd" d="M17.958 15.723c-.215-.108-1.271-.628-1.469-.7-.197-.071-.34-.107-.483.108-.144.215-.556.7-.68.843-.126.143-.252.161-.467.054-.214-.108-.907-.335-1.728-1.067-.64-.57-1.07-1.274-1.196-1.489-.126-.215-.014-.331.094-.438.097-.097.215-.251.323-.377.107-.125.143-.215.215-.358.071-.144.035-.27-.018-.377-.054-.107-.472-1.17-.663-1.596-.161-.357-.33-.365-.484-.37-.125-.006-.269-.006-.412-.006a.79.79 0 0 0-.573.27c-.197.214-.752.734-.752 1.792 0 1.057.77 2.08.877 2.223.108.143 1.488 2.383 3.672 3.245 1.816.716 2.186.573 2.58.537.394-.035 1.272-.52 1.45-1.021.18-.502.18-.932.126-1.022-.053-.09-.197-.144-.412-.251Z" fill="#fff"/></g><defs><linearGradient id="b" x1="6.37" y1="-.7" x2="25.813" y2="31.5" gradientUnits="userSpaceOnUse"><stop stop-color="#64DA71"/><stop offset="1" stop-color="#40AA4C"/></linearGradient><linearGradient id="c" x1="14" y1="25.375" x2="14" y2="29.081" gradientUnits="userSpaceOnUse"><stop stop-color="#4ECC5C" stop-opacity="0"/><stop offset="1" stop-color="#31883B"/></linearGradient><linearGradient id="d" x1="16.625" y1="24.5" x2="7.977" y2="4.901" gradientUnits="userSpaceOnUse"><stop stop-color="#2EAE3C" stop-opacity="0"/><stop offset="1" stop-color="#4FBD5B"/></linearGradient><linearGradient id="e" x1="14" y1="22.378" x2="14" y2="5.623" gradientUnits="userSpaceOnUse"><stop stop-color="#20B038"/><stop offset="1" stop-color="#60D66A"/></linearGradient><clipPath id="a"><path fill="#fff" d="M0 0h28v28H0z"/></clipPath></defs></svg>