<svg width="29" height="29" fill="none" xmlns="http://www.w3.org/2000/svg"><path fill-rule="evenodd" clip-rule="evenodd" d="M23.035 20.725c-.363 1.018-2.105 1.947-2.944 2.072-.75.112-1.7.158-2.745-.172a25.421 25.421 0 0 1-2.483-.919c-4.373-1.887-7.23-6.289-7.448-6.58-.218-.29-1.78-2.361-1.78-4.506s1.127-3.2 1.527-3.636c.398-.436.871-.546 1.161-.546.29 0 .581.003.836.016.269.013.627-.101.981.748.363.873 1.234 3.018 1.344 3.235.108.218.18.473.036.764-.146.29-.218.473-.436.728-.218.253-.458.567-.653.763-.218.216-.447.453-.192.889.255.435 1.129 1.863 2.424 3.018 1.665 1.484 3.071 1.944 3.506 2.164.436.218.691.18.944-.11.255-.29 1.091-1.271 1.381-1.71.29-.435.581-.362.982-.217.398.145 2.542 1.199 2.978 1.419.435.218.726.325.836.508.108.183.108 1.053-.255 2.072ZM14.507 0C6.509 0 .002 6.502 0 14.493c0 2.739.765 5.407 2.217 7.714l.346.548-1.465 5.35 5.488-1.439.528.313A14.457 14.457 0 0 0 14.494 29h.006c7.991 0 14.496-6.502 14.5-14.496 0-3.873-1.505-7.514-4.243-10.254A14.405 14.405 0 0 0 14.507 0Z" fill="#fff"/></svg>