<svg width="28" height="28" viewBox="0 0 28 28" fill="none" xmlns="http://www.w3.org/2000/svg">
<path d="M25.5444 13.1851L19.2006 15.75H24.3598C23.9381 16.5621 23.469 17.3512 22.9451 18.1021L15.699 21H20.383C17.1378 23.8826 12.5025 25.3936 5.91813 23.8886L2.19227 27.6144C1.67931 28.1274 0.84915 28.1271 0.336181 27.6144C-0.176514 27.1017 -0.176514 26.2713 0.336181 25.7583L14.194 11.9005C14.459 11.5574 14.4479 11.0698 14.1331 10.7548C13.7913 10.413 13.2373 10.413 12.8961 10.7548L3.67578 19.9751C1.34298 3.17187 20.0647 0.443953 26.1897 0.00462666C27.2216 -0.0694202 28.0715 0.780642 27.9971 1.81205C27.8194 4.29461 27.2616 8.84843 25.5444 13.1851Z" fill="#7180B9"/>
</svg>
