<svg width="28" height="28" viewBox="0 0 28 28" fill="none" xmlns="http://www.w3.org/2000/svg">
<g clip-path="url(#clip0_937_1455)">
<path d="M22.9918 27.5206C17.0033 28.1598 10.9967 28.1598 5.00818 27.5206C2.6203 27.2658 0.734223 25.3797 0.47937 22.9916C-0.15979 17.0031 -0.15979 10.9967 0.47937 5.00817C0.734223 2.6203 2.6203 0.734222 5.00818 0.47937C10.9967 -0.15979 17.0031 -0.15979 22.9916 0.47937C25.3797 0.734222 27.2658 2.6203 27.5206 5.00817C28.1598 10.9967 28.1598 17.0031 27.5206 22.9916C27.2658 25.3797 25.3799 27.2658 22.9918 27.5206Z" fill="url(#paint0_linear_937_1455)"/>
<path d="M25.9975 6.02097C25.7715 3.90204 24.098 2.2283 21.9788 2.00207C16.6648 1.43512 11.3349 1.43512 6.02077 2.00207C3.90184 2.2283 2.2281 3.90204 2.00188 6.02097C1.43492 11.3351 1.43492 16.665 2.00188 21.9788C2.2281 24.098 3.90184 25.7717 6.02077 25.9977C11.3349 26.5649 16.6648 26.5649 21.9786 25.9977C24.0978 25.7717 25.7715 24.098 25.9975 21.9788C26.5647 16.665 26.5647 11.3351 25.9975 6.02097Z" fill="url(#paint1_linear_937_1455)"/>
<path d="M0.419922 22.4112C0.439148 22.6047 0.459015 22.7983 0.479736 22.9918C0.734589 25.3797 2.62067 27.2658 5.00876 27.5206C10.9972 28.1598 17.0037 28.1598 22.9922 27.5206C25.3803 27.2658 27.2661 25.3797 27.521 22.9918C27.5417 22.7983 27.5616 22.6047 27.581 22.4112H0.419922Z" fill="url(#paint2_linear_937_1455)"/>
<path d="M18.8241 4.66318C16.3845 4.66318 14.407 6.6409 14.407 9.08047V12.3799H12.0298V16.465L14.407 18.5942V27.9987C17.27 27.9848 20.1327 27.8257 22.9916 27.5206C25.3797 27.2658 27.2656 25.3797 27.5204 22.9916C27.996 18.5359 28.1175 14.0703 27.8853 9.60941L22.9391 4.66318H18.8241Z" fill="url(#paint3_linear_937_1455)"/>
<path d="M14.407 27.9987C16.0384 27.9908 17.6696 27.9355 19.3002 27.8329V16.465H22.5469L22.9391 12.3799H19.3002V9.78586C19.3002 9.21292 19.7646 8.7485 20.3376 8.7485H22.9391V4.66318H18.8241C16.3845 4.66318 14.407 6.6409 14.407 9.08047V12.3799H12.0298V16.465H14.407V27.9987Z" fill="white"/>
</g>
<defs>
<linearGradient id="paint0_linear_937_1455" x1="9.29655" y1="3.93674" x2="16.3785" y2="19.0889" gradientUnits="userSpaceOnUse">
<stop stop-color="#3457A0"/>
<stop offset="1" stop-color="#3B5998"/>
</linearGradient>
<linearGradient id="paint1_linear_937_1455" x1="19.3112" y1="17.6495" x2="-5.16533" y2="0.831709" gradientUnits="userSpaceOnUse">
<stop stop-color="#3457A0" stop-opacity="0"/>
<stop offset="1" stop-color="#1F3F77"/>
</linearGradient>
<linearGradient id="paint2_linear_937_1455" x1="14.0004" y1="23.3993" x2="14.0004" y2="27.1882" gradientUnits="userSpaceOnUse">
<stop stop-color="#3457A0" stop-opacity="0"/>
<stop offset="1" stop-color="#1F3F77"/>
</linearGradient>
<linearGradient id="paint3_linear_937_1455" x1="32.1439" y1="23.1235" x2="12.7096" y2="13.324" gradientUnits="userSpaceOnUse">
<stop stop-color="#3457A0" stop-opacity="0"/>
<stop offset="0.3251" stop-color="#2A4C8D" stop-opacity="0.32549"/>
<stop offset="0.7045" stop-color="#22427D" stop-opacity="0.705882"/>
<stop offset="1" stop-color="#1F3F77"/>
</linearGradient>
<clipPath id="clip0_937_1455">
<rect width="28" height="28" fill="white"/>
</clipPath>
</defs>
</svg>
