<svg width="28" height="28" viewBox="0 0 28 28" fill="none" xmlns="http://www.w3.org/2000/svg">
<g clip-path="url(#clip0_937_1442)">
<path d="M27.5206 5.00817C27.2658 2.6203 25.3799 0.734008 22.9918 0.47937C17.0031 -0.15979 10.9969 -0.15979 5.00839 0.47937C2.6203 0.734222 0.734223 2.6203 0.47937 5.00817C-0.15979 10.9967 -0.15979 17.0031 0.47937 22.9916C0.734223 25.3797 2.6203 27.2658 5.00818 27.5206C10.9967 28.1598 17.0031 28.1598 22.9918 27.5206C25.3799 27.2658 27.2658 25.3797 27.5206 22.9916C28.1598 17.0031 28.1598 10.9969 27.5206 5.00817Z" fill="url(#paint0_radial_937_1442)"/>
<path d="M25.9975 6.02097C25.7715 3.90204 24.098 2.2283 21.9788 2.00207C16.6648 1.43512 11.3349 1.43512 6.02077 2.00207C3.90184 2.2283 2.2281 3.90204 2.00188 6.02097C1.43492 11.3351 1.43492 16.665 2.00188 21.9788C2.2281 24.098 3.90184 25.7717 6.02077 25.9977C11.3349 26.5649 16.6648 26.5649 21.9786 25.9977C24.0978 25.7717 25.7715 24.098 25.9975 21.9788C26.5647 16.665 26.5647 11.3351 25.9975 6.02097Z" fill="url(#paint1_linear_937_1442)"/>
<path d="M0.419922 22.4112C0.439148 22.6047 0.459015 22.7983 0.479736 22.9918C0.734589 25.3797 2.62067 27.2658 5.00876 27.5206C10.9972 28.1598 17.0037 28.1598 22.9922 27.5206C25.3803 27.2658 27.2661 25.3797 27.521 22.9918C27.5417 22.7983 27.5616 22.6047 27.581 22.4112H0.419922Z" fill="url(#paint2_linear_937_1442)"/>
<path d="M27.5206 22.9916C27.8642 19.7738 28.0227 16.5509 27.997 13.3284L21.5969 6.92822C20.7973 6.01541 19.6294 5.44567 18.2571 5.39633C15.4349 5.29464 12.6038 5.29977 9.78119 5.39675C7.43689 5.4775 5.79755 7.05319 5.37714 9.36907C5.30301 9.77795 5.25858 10.1922 5.20026 10.604V17.3934C5.23251 17.6134 5.27994 17.8324 5.29468 18.0537C5.38867 19.4623 5.96759 20.6689 6.8945 21.4851L13.4074 27.9978C16.6037 28.0203 19.8001 27.8613 22.9918 27.5206C25.3799 27.2658 27.2658 25.3797 27.5206 22.9916Z" fill="url(#paint3_linear_937_1442)"/>
<path d="M27.5204 22.9918C27.2658 25.3795 25.3793 27.266 22.9916 27.5206C19.8003 27.8611 16.6032 28.0203 13.4074 27.9979L6.9043 21.4948C7.65817 22.1546 8.64084 22.5565 9.78116 22.5994C12.6031 22.7054 15.4349 22.7026 18.2569 22.6009C20.8092 22.5086 22.6562 20.6195 22.7359 18.0672C22.8209 15.3571 22.8209 12.6401 22.7359 9.93005C22.6996 8.75256 22.2862 7.71649 21.6009 6.9325L27.997 13.3286C28.0222 16.5507 27.8637 19.774 27.5204 22.9918Z" fill="url(#paint4_linear_937_1442)"/>
<path d="M17.3039 10.968C16.484 10.0753 15.3076 9.51519 14 9.51519C11.5233 9.51519 9.5152 11.5232 9.5152 14C9.5152 15.3076 10.0753 16.484 10.968 17.3039L21.3444 27.6802C21.8936 27.6323 22.4428 27.5791 22.9916 27.5206C25.3797 27.2658 27.2658 25.3797 27.5206 22.9916C27.5792 22.4428 27.6324 21.8936 27.6802 21.3443L17.3039 10.968Z" fill="url(#paint5_linear_937_1442)"/>
<path d="M27.9457 17.0161L19.5948 8.6654C19.3999 8.40969 19.093 8.24371 18.7467 8.24371C18.1575 8.24371 17.6796 8.72137 17.6796 9.31075C17.6796 9.65704 17.8456 9.96401 18.1013 10.1588L27.7964 19.8541C27.8622 18.9084 27.912 17.9623 27.9457 17.0161Z" fill="url(#paint6_linear_937_1442)"/>
<path d="M5.20026 10.604C5.25858 10.1922 5.30301 9.77795 5.37714 9.36907C5.79733 7.05319 7.43689 5.4775 9.78118 5.39675C12.6038 5.29977 15.4349 5.29464 18.2571 5.39633C20.8086 5.48819 22.6564 7.37747 22.7361 9.92983C22.8209 12.6401 22.8209 15.3569 22.7361 18.0672C22.6564 20.6195 20.8092 22.5086 18.2573 22.6007C15.4351 22.7026 12.6034 22.7051 9.7814 22.5992C7.22946 22.5033 5.46536 20.6097 5.29468 18.0535C5.27994 17.8324 5.23251 17.6132 5.20026 17.3932C5.20026 15.1301 5.20026 12.8669 5.20026 10.604ZM14.0024 21.088C15.2939 21.088 16.5868 21.1267 17.8766 21.079C19.899 21.004 21.1429 19.7971 21.1901 17.7766C21.2487 15.2591 21.2487 12.7381 21.1901 10.2204C21.1429 8.20034 19.8981 6.96517 17.8766 6.92224C15.3108 6.86798 12.7422 6.8684 10.1764 6.92224C8.17025 6.96432 6.9227 8.17449 6.86822 10.1723C6.79901 12.7217 6.79901 15.2755 6.86822 17.8249C6.9227 19.8225 8.17025 21.0047 10.1766 21.079C11.4502 21.1265 12.727 21.088 14.0024 21.088Z" fill="url(#paint7_linear_937_1442)"/>
<path d="M5.20026 10.604C5.25858 10.1922 5.30301 9.77795 5.37714 9.36908C5.79733 7.05319 7.43689 5.47751 9.78119 5.39676C12.6038 5.29977 15.4349 5.29465 18.2571 5.39633C20.8086 5.48819 22.6565 7.37747 22.7361 9.92984C22.8209 12.6401 22.8209 15.3569 22.7361 18.0672C22.6565 20.6195 20.8093 22.5086 18.2573 22.6007C15.4351 22.7026 12.6034 22.7051 9.7814 22.5992C7.22946 22.5033 5.46536 20.6097 5.29468 18.0535C5.27994 17.8324 5.23251 17.6132 5.20026 17.3932C5.20026 15.1301 5.20026 12.8669 5.20026 10.604ZM14.0024 21.088C15.2939 21.088 16.5868 21.1267 17.8766 21.079C19.899 21.0041 21.1429 19.7971 21.1901 17.7766C21.2487 15.2591 21.2487 12.7381 21.1901 10.2204C21.1429 8.20035 19.8982 6.96518 17.8766 6.92224C15.3108 6.86798 12.7422 6.86841 10.1764 6.92224C8.17026 6.96432 6.9227 8.1745 6.86822 10.1723C6.79901 12.7217 6.79901 15.2755 6.86822 17.8249C6.9227 19.8225 8.17026 21.0047 10.1766 21.079C11.4502 21.1265 12.727 21.088 14.0024 21.088Z" fill="white"/>
<path d="M14 9.5154C11.5233 9.5154 9.5152 11.5232 9.5152 14C9.5152 16.4769 11.5233 18.4848 14 18.4848C16.477 18.4848 18.4848 16.4769 18.4848 14C18.4848 11.5232 16.477 9.5154 14 9.5154ZM14 16.9407C12.3758 16.9407 11.0593 15.6242 11.0593 14C11.0593 12.3758 12.3758 11.0592 14 11.0592C15.6242 11.0592 16.9407 12.3758 16.9407 14C16.9407 15.6242 15.6242 16.9407 14 16.9407Z" fill="white"/>
<path d="M19.8136 9.31076C19.8136 9.89994 19.3359 10.3776 18.7467 10.3776C18.1576 10.3776 17.6797 9.89994 17.6797 9.31076C17.6797 8.72138 18.1576 8.24372 18.7467 8.24372C19.3359 8.24372 19.8136 8.72138 19.8136 9.31076Z" fill="white"/>
</g>
<defs>
<radialGradient id="paint0_radial_937_1442" cx="0" cy="0" r="1" gradientUnits="userSpaceOnUse" gradientTransform="translate(5.73984 24.4698) scale(30.8791)">
<stop stop-color="#FAE100"/>
<stop offset="0.0544" stop-color="#FADC04"/>
<stop offset="0.1167" stop-color="#FBCE0E"/>
<stop offset="0.1829" stop-color="#FCB720"/>
<stop offset="0.2514" stop-color="#FE9838"/>
<stop offset="0.3054" stop-color="#FF7950"/>
<stop offset="0.4922" stop-color="#FF1C74"/>
<stop offset="1" stop-color="#6C1CD1"/>
</radialGradient>
<linearGradient id="paint1_linear_937_1442" x1="10.7389" y1="12.1658" x2="-36.6964" y2="-14.5166" gradientUnits="userSpaceOnUse">
<stop stop-color="#A1B5D8" stop-opacity="0"/>
<stop offset="0.3094" stop-color="#90A2BD" stop-opacity="0.309804"/>
<stop offset="0.7554" stop-color="#7C8B9C" stop-opacity="0.756863"/>
<stop offset="1" stop-color="#748290"/>
</linearGradient>
<linearGradient id="paint2_linear_937_1442" x1="14.0004" y1="24.7169" x2="14.0004" y2="29.0814" gradientUnits="userSpaceOnUse">
<stop stop-color="#FAE100" stop-opacity="0"/>
<stop offset="0.3068" stop-color="#FCA800" stop-opacity="0.305882"/>
<stop offset="0.6275" stop-color="#FE7300" stop-opacity="0.627451"/>
<stop offset="0.8685" stop-color="#FF5200" stop-opacity="0.866667"/>
<stop offset="1" stop-color="#FF4500"/>
</linearGradient>
<linearGradient id="paint3_linear_937_1442" x1="12.4071" y1="12.3675" x2="5.47757" y2="5.43791" gradientUnits="userSpaceOnUse">
<stop stop-color="#833AB4" stop-opacity="0"/>
<stop offset="1" stop-color="#833AB4"/>
</linearGradient>
<linearGradient id="paint4_linear_937_1442" x1="19.1896" y1="25.6095" x2="15.7309" y2="9.3044" gradientUnits="userSpaceOnUse">
<stop stop-color="#833AB4" stop-opacity="0"/>
<stop offset="1" stop-color="#833AB4"/>
</linearGradient>
<linearGradient id="paint5_linear_937_1442" x1="20.5059" y1="20.5059" x2="6.61398" y2="6.61393" gradientUnits="userSpaceOnUse">
<stop stop-color="#833AB4" stop-opacity="0"/>
<stop offset="1" stop-color="#833AB4"/>
</linearGradient>
<linearGradient id="paint6_linear_937_1442" x1="21.5363" y1="12.1003" x2="16.9425" y2="7.50652" gradientUnits="userSpaceOnUse">
<stop stop-color="#833AB4" stop-opacity="0"/>
<stop offset="1" stop-color="#833AB4"/>
</linearGradient>
<linearGradient id="paint7_linear_937_1442" x1="19.5594" y1="8.47927" x2="8.23282" y2="19.8059" gradientUnits="userSpaceOnUse">
<stop stop-color="#833AB4"/>
<stop offset="0.0922" stop-color="#9C3495"/>
<stop offset="0.2927" stop-color="#DC2546"/>
<stop offset="0.392" stop-color="#FD1D1D"/>
<stop offset="0.5589" stop-color="#FC6831"/>
<stop offset="0.6887" stop-color="#FC9B40"/>
<stop offset="0.7521" stop-color="#FCAF45"/>
<stop offset="0.7806" stop-color="#FDB750"/>
<stop offset="0.8656" stop-color="#FECB6A"/>
<stop offset="0.9415" stop-color="#FFD87A"/>
<stop offset="1" stop-color="#FFDC80"/>
</linearGradient>
<clipPath id="clip0_937_1442">
<rect width="28" height="28" fill="white"/>
</clipPath>
</defs>
</svg>
