<svg width="28" height="28" viewBox="0 0 28 28" fill="none" xmlns="http://www.w3.org/2000/svg">
<g clip-path="url(#clip0_937_1431)">
<path d="M22.9918 27.5206C17.0033 28.1598 10.9967 28.1598 5.00818 27.5206C2.6203 27.2658 0.734223 25.3797 0.47937 22.9916C-0.15979 17.0031 -0.15979 10.9967 0.47937 5.00817C0.734223 2.6203 2.6203 0.734222 5.00818 0.47937C10.9967 -0.15979 17.0031 -0.15979 22.9916 0.47937C25.3797 0.734222 27.2658 2.6203 27.5206 5.00817C28.1598 10.9967 28.1598 17.0031 27.5206 22.9916C27.2658 25.3797 25.3799 27.2658 22.9918 27.5206Z" fill="url(#paint0_linear_937_1431)"/>
<path d="M25.9975 6.02097C25.7715 3.90204 24.098 2.2283 21.9788 2.00207C16.6648 1.43512 11.3349 1.43512 6.02077 2.00207C3.90184 2.2283 2.2281 3.90204 2.00188 6.02097C1.43492 11.3351 1.43492 16.665 2.00188 21.9788C2.2281 24.098 3.90184 25.7717 6.02077 25.9977C11.3349 26.5649 16.6648 26.5649 21.9786 25.9977C24.0978 25.7717 25.7715 24.098 25.9975 21.9788C26.5647 16.665 26.5647 11.3351 25.9975 6.02097Z" fill="url(#paint1_linear_937_1431)"/>
<path d="M0.419922 22.4112C0.439148 22.6047 0.459015 22.7983 0.479736 22.9918C0.734589 25.3797 2.62067 27.2658 5.00876 27.5206C10.9972 28.1598 17.0037 28.1598 22.9922 27.5206C25.3803 27.2658 27.2661 25.3797 27.521 22.9918C27.5417 22.7983 27.5616 22.6047 27.581 22.4112H0.419922Z" fill="url(#paint2_linear_937_1431)"/>
<path d="M27.2188 24.2577L9.14972 6.18844C8.74618 5.66186 8.1113 5.32199 7.39673 5.32199C6.1778 5.32199 5.18958 6.30999 5.18958 7.52892C5.18958 8.2437 5.52966 8.87859 6.05624 9.28191L24.0625 27.2884C25.5179 26.8041 26.6779 25.6858 27.2188 24.2577Z" fill="url(#paint3_linear_937_1431)"/>
<path d="M9.25033 11.1838H5.54248V22.678L10.8036 27.9391C14.8671 28.0929 18.9334 27.9538 22.9914 27.5206C23.7008 27.445 24.3654 27.2243 24.9567 26.8902L9.25033 11.1838Z" fill="url(#paint4_linear_937_1431)"/>
<path d="M21.8428 12.1466C21.1645 11.403 20.188 10.9364 19.1026 10.9364C17.3857 10.9364 16.2777 11.5395 15.6182 12.0994L14.8917 11.1838H11.4752V22.678L16.7521 27.9549C18.8333 27.8872 20.9135 27.7424 22.9919 27.5206C25.3799 27.2658 27.2658 25.3797 27.5207 22.9918C27.6911 21.3952 27.8157 19.7973 27.8951 18.199L21.8428 12.1466Z" fill="url(#paint5_linear_937_1431)"/>
<path d="M5.54297 11.1838H9.25061V22.678H5.54297V11.1838Z" fill="white"/>
<path d="M19.1025 10.9364C16.3854 10.9364 15.1919 12.4465 14.8916 12.9062V11.1838H11.4751V22.678H15.183V16.9044C15.183 15.236 15.9509 13.9383 17.4076 13.9383C18.8641 13.9383 19.1025 15.5537 19.1025 17.5402V22.678H22.8104V14.6443C22.8104 12.5965 21.1503 10.9364 19.1025 10.9364Z" fill="white"/>
<path d="M9.60354 7.52914C9.60354 8.74807 8.61554 9.73607 7.39661 9.73607C6.17767 9.73607 5.18945 8.74807 5.18945 7.52914C5.18945 6.31021 6.17767 5.32199 7.39661 5.32199C8.61554 5.32199 9.60354 6.31021 9.60354 7.52914Z" fill="white"/>
</g>
<defs>
<linearGradient id="paint0_linear_937_1431" x1="9.29655" y1="3.93674" x2="16.3785" y2="19.0889" gradientUnits="userSpaceOnUse">
<stop stop-color="#0077B5"/>
<stop offset="1" stop-color="#0066B2"/>
</linearGradient>
<linearGradient id="paint1_linear_937_1431" x1="19.9215" y1="17.1766" x2="-20.7588" y2="-4.64582" gradientUnits="userSpaceOnUse">
<stop stop-color="#0066B2" stop-opacity="0"/>
<stop offset="1" stop-color="#07485E"/>
</linearGradient>
<linearGradient id="paint2_linear_937_1431" x1="14.0004" y1="22.7405" x2="14.0004" y2="28.5925" gradientUnits="userSpaceOnUse">
<stop stop-color="#0066B2" stop-opacity="0"/>
<stop offset="1" stop-color="#07485E"/>
</linearGradient>
<linearGradient id="paint3_linear_937_1431" x1="14.8397" y1="14.9721" x2="4.37049" y2="4.50285" gradientUnits="userSpaceOnUse">
<stop stop-color="#0066B2" stop-opacity="0"/>
<stop offset="1" stop-color="#07485E"/>
</linearGradient>
<linearGradient id="paint4_linear_937_1431" x1="20.9861" y1="24.6985" x2="-0.0962447" y2="14.8162" gradientUnits="userSpaceOnUse">
<stop stop-color="#0066B2" stop-opacity="0"/>
<stop offset="1" stop-color="#07485E"/>
</linearGradient>
<linearGradient id="paint5_linear_937_1431" x1="26.115" y1="26.8655" x2="11.4281" y2="12.1785" gradientUnits="userSpaceOnUse">
<stop stop-color="#0066B2" stop-opacity="0"/>
<stop offset="1" stop-color="#07485E"/>
</linearGradient>
<clipPath id="clip0_937_1431">
<rect width="28" height="28" fill="white"/>
</clipPath>
</defs>
</svg>
