<svg width="20" height="20" viewBox="0 0 20 20" fill="none" xmlns="http://www.w3.org/2000/svg">
<path d="M10 0C6.7 0 4 2.7 4 5.99999C4 9.29999 10 17 10 17C10 17 16 9.29999 16 5.99999C16 2.7 13.3 0 10 0ZM10 7.99999C8.9 7.99999 8 7.09999 8 5.99999C8 4.9 8.9 4 10 4C11.1 4 12 4.9 12 5.99999C12 7.09999 11.1 7.99999 10 7.99999Z" fill="#7180B9"/>
<path d="M16.3 11.1C16 11.7 15.7 12.3 15.3 12.9C17 13.5 18 14.3 18 15C18 16.2 14.8 18.0001 9.99999 18.0001C5.19999 18.0001 2 16.2 2 15C2 14.3 3 13.5 4.69999 12.8C4.3 12.2 4 11.6 3.7 11C1.4 12 0 13.4 0 15C0 17.8001 4.2 20.0001 9.79999 20.0001C14.8 20.0001 20 18.3001 20 15C20 13.4 18.6 12 16.3 11.1Z" fill="#7180B9"/>
</svg>
