<svg width="24" height="24" viewBox="0 0 24 24" fill="none" xmlns="http://www.w3.org/2000/svg">
<path d="M23.9625 18.1409L22.8727 22.8659C22.7196 23.5338 22.1325 24.0012 21.4448 24.0012C9.61875 24.0002 0 14.3815 0 2.55496C0 1.86777 0.467297 1.27996 1.13531 1.12762L5.86031 0.0377759C6.54844 -0.121693 7.25156 0.235494 7.5375 0.88715L9.71813 5.97308C9.97303 6.57214 9.80109 7.27011 9.29719 7.68167L6.77344 9.70808C8.36625 12.9528 11.0044 15.5909 14.25 17.1846L16.3162 14.6628C16.7235 14.1574 17.4267 13.9826 18.0258 14.2421L23.1117 16.4222C23.7234 16.744 24.1219 17.4565 23.9625 18.1409Z" fill="#7180B9"/>
</svg>
