<svg width="115" height="47" viewBox="0 0 115 47" fill="none" xmlns="http://www.w3.org/2000/svg">
<path d="M109.672 5.61523C108.971 6.98598 108.201 8.32006 107.364 9.61226C106.531 10.9035 105.627 12.1472 104.656 13.3378C102.74 15.7303 100.55 17.8894 98.1296 19.7706C96.9296 20.7102 95.678 21.5818 94.3806 22.3813C90.5193 24.7597 86.162 26.5167 81.8491 27.9996C78.9407 28.9969 75.9828 29.8715 73.03 30.8192C72.6619 30.9367 72.2938 31.062 71.9257 31.1847C69.3253 32.0256 66.7823 33.0346 64.3128 34.2053C62.903 34.8893 61.501 35.6177 60.1643 36.4323C58.8141 37.2402 57.5166 38.1331 56.2796 39.1057L55.3658 39.8471C53.2399 41.5978 51.4113 43.6812 49.9512 46.0163C50.0243 46.1207 50.4733 46.3191 50.5647 46.2251C52.3139 44.2906 54.0004 42.3377 56.102 40.8L57.0471 40.163C58.313 39.3302 59.62 38.5617 60.9632 37.8603C62.3156 37.1633 63.6836 36.4767 65.0856 35.8866C66.4875 35.2966 67.879 34.7223 69.3149 34.1636L70.3853 33.7537L71.461 33.3516C72.1789 33.0905 72.8995 32.8295 73.6253 32.5684C76.5127 31.5241 79.4367 30.4929 82.3477 29.412C84.5303 28.6001 86.7102 27.7177 88.8171 26.723L89.3392 26.4619C90.9337 25.7059 92.4851 24.8622 93.9863 23.9347L94.9706 23.2951C96.2694 22.4306 97.5184 21.4936 98.7118 20.4886C102.28 17.4568 105.317 13.8505 107.698 9.81851C108.481 8.48124 109.195 7.10442 109.836 5.69356L109.672 5.61523Z" fill="#D9D9D9"/>
<path d="M68.9418 34.7238C67.414 34.5629 65.8697 34.6743 64.3808 35.0527C63.176 35.8476 61.8727 36.4821 60.5039 36.9403C61.3132 38.0655 64.4618 42.0025 68.2212 40.9295C73.3879 39.4518 77.1447 39.4127 77.1447 39.4127C77.1995 39.0028 73.5262 35.2459 68.9418 34.7238ZM66.8532 38.8487C64.7777 39.4231 63.099 36.8124 63.099 36.8124C63.099 36.8124 65.0179 35.648 67.19 35.8986C69.3621 36.1492 71.1061 37.9298 71.0747 38.1203C69.6427 38.1882 68.2242 38.4301 66.8506 38.8409L66.8532 38.8487Z" fill="#D9D9D9"/>
<path d="M79.815 30.1199C75.2306 29.5978 71.1787 32.0466 71.1787 32.0466C71.1787 32.0466 74.7215 37.5761 79.0944 36.3256C84.2637 34.8505 88.0179 34.8088 88.0179 34.8088C88.0753 34.4067 84.4021 30.6525 79.815 30.1199ZM77.8857 34.425C75.8127 35.015 74.1341 32.3965 74.1341 32.3965C74.1341 32.3965 76.0529 31.2321 78.2251 31.4853C80.3972 31.7386 82.1412 33.5165 82.1124 33.7044C80.6796 33.7731 79.2603 34.0151 77.8857 34.425Z" fill="#D9D9D9"/>
<path d="M89.992 26.5958C88.5171 26.4495 87.0278 26.6077 85.6164 27.0605C84.898 27.5887 84.121 28.0319 83.3007 28.3816C83.3007 28.3816 83.2563 28.2667 83.1885 28.0657C82.9404 28.1988 82.8047 28.285 82.8047 28.285C82.8047 28.285 85.7313 33.0365 89.3707 31.94C93.6705 30.6503 96.793 30.6033 96.793 30.6033C96.84 30.2587 93.8011 27.0397 89.992 26.5958ZM88.3368 30.5459C86.6137 31.068 85.2274 28.8123 85.2274 28.8123C85.2274 28.8123 86.8278 27.8046 88.6214 28.0135C90.415 28.2223 91.8639 29.7496 91.843 29.9115C90.6525 29.9763 89.4746 30.1894 88.3368 30.5459Z" fill="#D9D9D9"/>
<path d="M98.5367 22.0423C97.1109 21.9017 95.6715 22.0636 94.3126 22.5174C93.8142 23.1858 93.2453 23.7985 92.6156 24.345C92.4009 24.0779 92.2013 23.799 92.0177 23.5095L91.8271 23.6218C91.8271 23.6218 94.5606 28.06 97.9571 27.0366C101.972 25.8331 104.886 25.7887 104.886 25.7887C104.93 25.4624 102.093 22.4522 98.5367 22.0423ZM96.5969 25.7443C94.9887 26.2273 93.6938 24.1283 93.6938 24.1283C93.6938 24.1283 95.1872 23.1858 96.8737 23.3816C98.5602 23.5774 99.9021 25.0003 99.8786 25.1543C98.7644 25.2134 97.662 25.4116 96.5969 25.7443Z" fill="#D9D9D9"/>
<path d="M103.764 17.7529C102.346 17.7734 100.953 18.1314 99.7014 18.7972C99.4537 19.2001 99.1753 19.5833 98.8686 19.9433C98.8686 19.9433 98.7015 19.7945 98.4587 19.5387C98.3255 19.63 98.2524 19.6875 98.2524 19.6875C98.2524 19.6875 100.955 23.178 103.735 22.0136C105.566 21.2165 107.489 20.6526 109.46 20.3349C109.46 20.0556 106.797 17.779 103.764 17.7529ZM102.902 20.8858C101.597 21.4393 100.31 19.7867 100.31 19.7867C101.066 19.2226 101.977 18.903 102.92 18.8703C104.359 18.8703 105.62 19.9616 105.615 20.0921C104.681 20.2428 103.77 20.5095 102.902 20.8858Z" fill="#D9D9D9"/>
<path d="M107.489 12.8293C106.47 13.0177 105.503 13.4199 104.651 14.0093C104.408 14.5625 104.106 15.0877 103.75 15.5758C103.578 15.4421 103.414 15.2992 103.257 15.1476L103.171 15.2416C103.171 15.2416 105.936 17.7583 108.079 16.3799C109.492 15.4484 111.015 14.6968 112.614 14.1425C112.583 13.9206 110.027 12.409 107.489 12.8293ZM107.079 15.5444C106.064 16.1971 104.753 15.004 104.753 15.004C105.302 14.4218 106.016 14.0218 106.8 13.8579C108.001 13.6569 109.212 14.3801 109.228 14.4845C108.47 14.7455 107.748 15.1017 107.079 15.5444Z" fill="#D9D9D9"/>
<path d="M107.04 10.0228L106.998 10.0724C106.998 10.0724 109.329 12.3803 111.154 11.1924C112.349 10.3886 113.645 9.74602 115.008 9.28135C114.982 9.07249 112.823 7.66792 110.671 7.99426C109.633 8.18087 108.66 8.63026 107.844 9.29962C107.712 9.62465 107.553 9.93814 107.369 10.2369C107.369 10.2369 107.23 10.1586 107.04 10.0228ZM110.209 8.91324C111.227 8.7592 112.251 9.43538 112.264 9.52154C111.618 9.74192 111.003 10.0465 110.436 10.4275C109.572 10.9888 108.468 9.90531 108.468 9.90531C108.926 9.39975 109.533 9.05244 110.201 8.91324H110.209Z" fill="#D9D9D9"/>
<path d="M64.381 35.0443C65.5077 34.3093 66.512 33.4019 67.3572 32.3553C70.216 28.729 70.1455 23.4788 69.8217 23.2334C69.8217 23.2334 67.1431 25.8676 62.449 28.4862C58.4781 30.7053 59.8984 37.1173 59.8984 37.1173C59.8984 37.1173 60.1281 37.0598 60.5171 36.9319C60.3866 36.7491 60.3161 36.6395 60.3161 36.6395C61.5914 35.9237 62.9592 35.3869 64.381 35.0443ZM62.5978 31.3058C63.8579 30.621 65.0301 29.7855 66.0884 28.8177C66.2424 28.9352 66.2764 31.4285 64.9214 33.1385C63.5664 34.8485 61.3891 35.3942 61.3891 35.3942C61.3891 35.3942 60.7181 32.3579 62.5978 31.3058Z" fill="#D9D9D9"/>
<path d="M60.3076 36.6391C60.3076 36.6391 60.3781 36.7488 60.5086 36.9315C61.8774 36.4733 63.1807 35.8388 64.3856 35.0439C62.9593 35.3854 61.587 35.9221 60.3076 36.6391Z" fill="#D9D9D9"/>
<path d="M78.8699 27.7469C82.149 24.4966 82.7207 19.2751 82.4283 18.9932C82.4283 18.9932 79.4495 21.2802 74.4708 23.3061C70.2597 25.0213 70.8837 31.5612 70.8837 31.5612C70.8837 31.5612 75.5882 30.9947 78.8699 27.7469ZM74.322 26.0004C75.6563 25.4741 76.9221 24.7886 78.0919 23.9588C78.2303 24.0919 77.9588 26.5695 76.4054 28.1046C74.852 29.6397 72.6224 29.9112 72.6224 29.9112C72.6224 29.9112 72.317 26.8123 74.322 26.0004Z" fill="#D9D9D9"/>
<path d="M88.415 24.0342C90.1459 21.0084 89.428 17.0479 89.1486 16.8965C89.1486 16.8965 87.4308 19.1548 84.1673 21.5958C81.836 23.3476 82.8228 26.9687 83.1883 28.0574C83.9634 27.6448 84.7765 27.3082 85.6163 27.0522C86.7487 26.2515 87.7019 25.2237 88.415 24.0342ZM84.3109 23.4677C85.1836 22.8248 85.9728 22.0759 86.6606 21.2381C86.7937 21.3086 87.1331 23.1857 86.3134 24.6321C85.4936 26.0784 83.8906 26.6893 83.8906 26.6893C83.8906 26.6893 83.003 24.4493 84.3109 23.4677Z" fill="#D9D9D9"/>
<path d="M85.6165 27.0605C84.7766 27.3166 83.9635 27.6532 83.1885 28.0657C83.2564 28.2667 83.3007 28.3816 83.3007 28.3816C84.121 28.0319 84.898 27.5887 85.6165 27.0605Z" fill="#D9D9D9"/>
<path d="M96.2393 18.4813C96.9782 14.9777 95.0254 11.3332 94.7042 11.2705C94.7042 11.2705 93.7383 14.0222 91.3233 17.4475C89.8535 19.5361 91.1641 22.1807 92.0178 23.507C92.748 23.1019 93.5168 22.7704 94.3126 22.5175C95.2439 21.3302 95.9017 19.9521 96.2393 18.4813ZM92.4851 18.8233C93.1401 17.9189 93.6786 16.9356 94.0881 15.8967C94.2395 15.9254 95.1637 17.6537 94.8139 19.3116C94.4641 20.9694 93.0986 22.0894 93.0986 22.0894C93.0986 22.0894 91.5165 20.194 92.4851 18.8233Z" fill="#D9D9D9"/>
<path d="M94.3124 22.5176C93.5169 22.7671 92.7482 23.0951 92.0176 23.4966C92.2011 23.786 92.4007 24.0649 92.6154 24.332C93.2444 23.7897 93.8133 23.1814 94.3124 22.5176Z" fill="#D9D9D9"/>
<path d="M101.14 14.5602C101.299 11.5292 99.1893 8.7331 98.9126 8.72266C98.4756 10.6713 97.7949 12.5572 96.8866 14.3357C95.8423 16.4243 97.615 18.6434 98.4531 19.5363C98.851 19.2607 99.268 19.0138 99.701 18.7975C100.524 17.5258 101.018 16.0699 101.14 14.5602ZM97.9231 15.5889C98.3532 14.7466 98.676 13.8538 98.8838 12.9312C99.0144 12.9312 100.014 14.26 99.9281 15.6959C99.8365 16.6348 99.4614 17.5235 98.8525 18.244C98.8525 18.244 97.2913 16.8655 97.9231 15.5889Z" fill="#D9D9D9"/>
<path d="M98.8684 19.9404C99.175 19.5812 99.4534 19.1989 99.7012 18.7969C99.2699 19.0142 98.8546 19.262 98.4585 19.5383C98.7013 19.7916 98.8684 19.9404 98.8684 19.9404Z" fill="#D9D9D9"/>
<path d="M104.651 14.0095C105.101 13.0338 105.332 11.9718 105.33 10.8975C105.278 8.32592 103.319 6.09375 103.085 6.10158C102.835 7.77337 102.377 9.40734 101.722 10.9654C101.014 12.7067 102.453 14.388 103.257 15.1425C103.683 14.7193 104.15 14.3397 104.651 14.0095ZM102.359 11.5919C102.67 10.8535 102.887 10.0791 103.006 9.28667C103.116 9.28667 104.05 10.331 104.069 11.5554C104.052 12.3551 103.79 13.1305 103.319 13.7771C103.319 13.7771 101.907 12.7119 102.359 11.5919Z" fill="#D9D9D9"/>
<path d="M104.651 14.0098C104.149 14.3449 103.682 14.7298 103.257 15.1585C103.413 15.3101 103.578 15.453 103.75 15.5866C104.107 15.0953 104.409 14.5666 104.651 14.0098Z" fill="#D9D9D9"/>
<path d="M107.04 10.0217C107.289 9.75877 107.558 9.51526 107.844 9.29327C108.257 8.35432 108.421 7.3247 108.319 6.30398C108.058 4.23628 106.197 2.61502 105.996 2.64896C105.925 4.02665 105.673 5.38901 105.247 6.70081C104.756 8.2542 106.327 9.53606 107.04 10.0217ZM106.283 7.26995C106.484 6.64846 106.604 6.0034 106.638 5.35107C106.732 5.33801 107.612 6.10557 107.737 7.08459C107.787 7.73605 107.63 8.38665 107.288 8.94343C107.288 8.94343 105.996 8.21242 106.275 7.26995H106.283Z" fill="#D9D9D9"/>
<path d="M107.04 10.0223C107.238 10.1581 107.369 10.2312 107.369 10.2312C107.553 9.93246 107.712 9.61897 107.844 9.29395C107.558 9.51594 107.289 9.75945 107.04 10.0223Z" fill="#D9D9D9"/>
<path d="M112.572 4.4774C113.911 2.59506 113.922 0.0992077 113.776 0C113.776 0 113.253 0.877205 111.081 2.37837C109.246 3.65502 109.128 7.14818 109.128 7.14818C110.493 6.57999 111.682 5.65805 112.572 4.4774ZM110.358 5.26062C110.358 5.26062 110.421 3.60281 111.29 2.99973C112.319 2.28961 112.564 1.8745 112.564 1.8745C112.635 1.9215 112.629 3.10416 111.995 3.99442C111.573 4.55743 111.008 4.99729 110.358 5.26845V5.26062Z" fill="#D9D9D9"/>
<path d="M5.3313 5.71777C6.03018 7.08988 6.79964 8.42488 7.63657 9.71741C8.46972 11.0088 9.37444 12.2526 10.3465 13.4429C12.2633 15.8349 14.4538 17.9939 16.8733 19.8758C18.0738 20.8175 19.3263 21.6908 20.6249 22.4917C24.4862 24.8727 28.8435 26.6297 33.1564 28.1126C36.0648 29.1099 39.0228 29.9845 41.9755 30.9322C42.3462 31.0497 42.7143 31.1724 43.0824 31.2951C45.6823 32.1385 48.2252 33.1483 50.6953 34.3183C52.1025 35.0023 53.5045 35.7307 54.8412 36.5453C56.1918 37.3526 57.4894 38.2455 58.7259 39.2187L59.6423 39.9601C61.7673 41.71 63.595 43.7925 65.0543 46.1266C64.9812 46.2337 64.5322 46.4321 64.4434 46.3381C62.6916 44.4036 61.0051 42.4507 58.9035 40.913L57.9584 40.276C56.6931 39.4422 55.386 38.6737 54.0423 37.9733C52.6899 37.2737 51.3219 36.587 49.9199 35.9996C48.518 35.4122 47.1108 34.8196 45.6853 34.2687L44.6149 33.8562L43.5393 33.4568C42.8214 33.1957 42.1008 32.9216 41.3776 32.6736C38.4876 31.6293 35.5635 30.585 32.6526 29.5146C30.47 28.7026 28.2901 27.8228 26.1858 26.8281L25.6637 26.5671C24.0762 25.8095 22.5318 24.965 21.0374 24.0373L20.0506 23.4002C18.7456 22.5351 17.4896 21.5981 16.2885 20.5937C12.7232 17.56 9.68886 13.953 7.31023 9.92105C6.52512 8.58437 5.81054 7.2075 5.16943 5.7961L5.3313 5.71777Z" fill="#D9D9D9"/>
<path d="M37.8556 39.5083C37.8556 39.5083 41.6124 39.5474 46.7791 41.0251C50.5411 42.0981 53.687 38.1533 54.4964 37.0359C53.1278 36.5772 51.8246 35.9428 50.6194 35.1484C49.1307 34.769 47.5865 34.6567 46.0585 34.8168C41.4741 35.3494 37.8008 39.1062 37.8556 39.5083ZM43.9255 38.2264C43.8994 38.0358 45.6382 36.2579 47.8103 36.0047C49.9824 35.7514 51.9013 36.9158 51.9013 36.9158C51.9013 36.9158 50.2226 39.5266 48.1523 38.9444C46.7777 38.5346 45.3584 38.2935 43.9255 38.2264Z" fill="#D9D9D9"/>
<path d="M26.9819 34.9129C26.9819 34.9129 30.7387 34.952 35.9053 36.4297C40.2783 37.6803 43.8237 32.1481 43.8237 32.1481C43.8237 32.1481 39.7692 29.6914 35.1848 30.224C30.6003 30.7566 26.9244 34.5108 26.9819 34.9129ZM32.8952 33.8085C32.8664 33.618 34.6078 31.8401 36.7799 31.5868C38.9521 31.3336 40.8709 32.5006 40.8709 32.5006C40.8709 32.5006 39.1922 35.1113 37.1219 34.5265C35.7473 34.1167 34.328 33.8756 32.8952 33.8085Z" fill="#D9D9D9"/>
<path d="M18.2098 30.7104C18.2098 30.7104 21.3427 30.7574 25.6295 32.0471C29.2689 33.1384 32.1955 28.392 32.1955 28.392C32.1955 28.392 32.0597 28.3059 31.8143 28.1727C31.7465 28.3738 31.6995 28.4886 31.6995 28.4886C30.8792 28.139 30.1022 27.6957 29.3837 27.1676C27.9736 26.7137 26.4849 26.5555 25.0108 26.7029C21.1991 27.152 18.1602 30.3631 18.2098 30.7104ZM23.1493 30.0238C23.1258 29.8593 24.5643 28.3346 26.3684 28.1258C28.1724 27.9169 29.7623 28.9246 29.7623 28.9246C29.7623 28.9246 28.376 31.1751 26.6529 30.6582C25.516 30.3018 24.339 30.0887 23.1493 30.0238Z" fill="#D9D9D9"/>
<path d="M10.1138 25.8873C10.1138 25.8873 13.03 25.9317 17.0427 27.1379C20.4366 28.1561 23.1727 23.7204 23.1727 23.7204C23.1727 23.7204 23.1048 23.6787 22.9821 23.6108C22.7986 23.9002 22.599 24.1791 22.3842 24.4462C21.7553 23.899 21.1865 23.2864 20.6872 22.6187C19.3286 22.1637 17.8889 22.0017 16.4631 22.1436C12.9073 22.5587 10.0694 25.5636 10.1138 25.8873ZM15.116 25.2582C15.0951 25.1041 16.437 23.6917 18.1235 23.4829C19.81 23.274 21.3008 24.2295 21.3008 24.2295C21.3008 24.2295 19.9954 26.3181 18.3976 25.8482C17.3327 25.5153 16.2302 25.3171 15.116 25.2582Z" fill="#D9D9D9"/>
<path d="M5.55031 20.4362C7.52152 20.7538 9.44502 21.3178 11.2756 22.1149C14.0456 23.2793 16.7582 19.7887 16.7582 19.7887C16.7582 19.7887 16.6851 19.7313 16.5519 19.6373C16.3091 19.8984 16.142 20.042 16.142 20.042C15.8354 19.6819 15.5569 19.2987 15.3092 18.8959C14.0563 18.2325 12.6644 17.8746 11.2469 17.8516C8.20281 17.8829 5.54248 20.1594 5.55031 20.4362ZM9.38808 20.2012C9.38808 20.0707 10.6438 18.9898 12.0824 18.9794C13.0251 19.0124 13.9355 19.3311 14.6931 19.8932C14.6931 19.8932 13.4112 21.5484 12.1006 20.9949C11.2367 20.6182 10.3289 20.3516 9.39852 20.2012H9.38808Z" fill="#D9D9D9"/>
<path d="M2.38623 14.2574C3.98501 14.8117 5.50839 15.5633 6.92107 16.4948C9.06448 17.8733 11.8292 15.3539 11.8292 15.3539L11.7483 15.2625C11.5916 15.414 11.4269 15.5569 11.2549 15.6907C10.8985 15.1982 10.5965 14.6686 10.3542 14.1112C9.50144 13.5237 8.53448 13.1225 7.51631 12.9338C4.97607 12.5134 2.42017 14.025 2.38623 14.2574ZM5.78018 14.5864C5.79584 14.4767 7.00461 13.7614 8.20816 13.9598C8.98987 14.1261 9.70269 14.5257 10.2524 15.1059C10.2524 15.1059 8.94699 16.299 7.9262 15.6463C7.25603 15.2048 6.53336 14.8488 5.77496 14.5864H5.78018Z" fill="#D9D9D9"/>
<path d="M7.6416 10.336C7.45582 10.0378 7.29598 9.72426 7.16384 9.39875C6.34832 8.73087 5.37618 8.28164 4.33903 8.09339C2.18518 7.77227 0.0261073 9.17684 0 9.39875C1.36362 9.8627 2.66014 10.5044 3.85605 11.3072C5.68356 12.4977 8.00972 10.1872 8.00972 10.1872L7.96795 10.1402C7.76953 10.2629 7.6416 10.336 7.6416 10.336ZM6.53988 9.99922C6.53988 9.99922 5.43554 11.0931 4.57139 10.5214C4.00402 10.1422 3.38968 9.83853 2.74388 9.61805C2.75693 9.51884 3.78817 8.85311 4.79852 9.00714C5.4693 9.14531 6.07897 9.49266 6.53988 9.99922Z" fill="#D9D9D9"/>
<path d="M54.6975 36.744C54.6975 36.744 54.6296 36.8536 54.4965 37.0364C54.8855 37.1643 55.1178 37.2218 55.1178 37.2218C55.1178 37.2218 56.5355 30.8072 52.5645 28.5907C47.8652 25.9799 45.1945 23.3379 45.1945 23.3379C44.8681 23.5807 44.8002 28.8204 47.6564 32.4598C48.4976 33.5054 49.4975 34.4127 50.6195 35.1488C52.0465 35.4882 53.419 36.0251 54.6975 36.744ZM53.6114 35.5065C53.6114 35.5065 51.4315 34.9687 50.0791 33.2508C48.7268 31.533 48.7581 29.0449 48.9121 28.9301C49.9705 29.8979 51.1426 30.7334 52.4027 31.4181C54.285 32.4598 53.6114 35.5065 53.6114 35.5065Z" fill="#D9D9D9"/>
<path d="M54.6971 36.7436C54.6971 36.7436 54.6292 36.8532 54.4961 37.036C53.1275 36.5773 51.8243 35.9428 50.6191 35.1484C52.0461 35.4878 53.4186 36.0247 54.6971 36.7436Z" fill="#D9D9D9"/>
<path d="M44.1212 31.6657C44.1212 31.6657 44.7425 25.1258 40.5314 23.4106C35.5554 21.3847 32.5739 19.0977 32.5739 19.0977C32.2815 19.3796 32.8533 24.6011 36.1349 27.8488C39.4166 31.0966 44.1212 31.6657 44.1212 31.6657ZM42.3772 30.0236C42.3772 30.0236 40.1476 29.7625 38.5942 28.2143C37.0409 26.6662 36.7667 24.2016 36.9103 24.0685C38.0787 24.8984 39.3438 25.5831 40.6776 26.1075C42.6722 26.9168 42.3772 30.0236 42.3772 30.0236Z" fill="#D9D9D9"/>
<path d="M29.3839 27.1645C30.2243 27.4212 31.0383 27.7577 31.8145 28.1697C32.1774 27.081 33.1642 23.4573 30.8328 21.7081C27.5694 19.2592 25.8516 17.0088 25.8516 17.0088C25.5722 17.1602 24.8543 21.1207 26.5878 24.1465C27.2993 25.3364 28.2517 26.3644 29.3839 27.1645ZM31.0991 26.7807C31.0991 26.7807 29.4988 26.1568 28.679 24.7235C27.8592 23.2902 28.196 21.4079 28.3292 21.34C29.0164 22.179 29.8057 22.9288 30.6788 23.5722C31.9972 24.5538 31.0991 26.7807 31.0991 26.7807Z" fill="#D9D9D9"/>
<path d="M29.3838 27.1641C30.2242 27.4207 31.0382 27.7573 31.8144 28.1692C31.7465 28.3702 31.6995 28.4851 31.6995 28.4851C30.8793 28.1355 30.1022 27.6922 29.3838 27.1641Z" fill="#D9D9D9"/>
<path d="M20.6874 22.622C21.4814 22.8732 22.2478 23.2047 22.9744 23.6115C23.8281 22.2826 25.1387 19.6327 23.6715 17.5494C21.254 14.1267 20.2776 11.375 20.2776 11.375C19.9564 11.435 18.0062 15.0822 18.7424 18.5858C19.0871 20.0575 19.7511 21.4354 20.6874 22.622ZM21.9014 22.1913C21.9014 22.1913 20.5334 21.0739 20.1862 19.4134C19.839 17.753 20.7605 16.0195 20.912 15.9986C21.3224 17.0362 21.8609 18.0185 22.5149 18.9226C23.4966 20.2985 21.9014 22.1913 21.9014 22.1913Z" fill="#D9D9D9"/>
<path d="M20.6875 22.6211C21.4815 22.8722 22.2478 23.2038 22.9745 23.6106C22.791 23.9 22.5914 24.1789 22.3766 24.446C21.7506 23.8992 21.1844 23.2874 20.6875 22.6211Z" fill="#D9D9D9"/>
<path d="M15.2991 18.8958C15.7302 19.1135 16.1454 19.3613 16.5418 19.6372C17.3851 18.7469 19.1525 16.5278 18.1082 14.4366C17.2017 12.6582 16.5211 10.7735 16.0823 8.82617C15.8056 8.82617 13.6961 11.6327 13.858 14.6612C13.9787 16.1706 14.474 17.626 15.2991 18.8958ZM16.1371 18.3475C15.5283 17.627 15.1531 16.7383 15.0615 15.7994C14.9858 14.3635 15.9857 13.0373 16.1058 13.0347C16.3141 13.9571 16.6368 14.85 17.0666 15.6924C17.7088 16.969 16.1371 18.3475 16.1371 18.3475Z" fill="#D9D9D9"/>
<path d="M16.1317 20.0426C15.825 19.6826 15.5465 19.2994 15.2988 18.8965C15.7299 19.1143 16.1452 19.362 16.5415 19.6379C16.2987 19.8964 16.1317 20.0426 16.1317 20.0426Z" fill="#D9D9D9"/>
<path d="M11.7482 15.2617C12.5523 14.4993 13.9909 12.818 13.2833 11.0845C12.6276 9.52407 12.1706 7.88736 11.9232 6.21289C11.6882 6.21289 9.73015 8.43723 9.67532 11.0062C9.6723 12.0806 9.90396 13.1426 10.3541 14.1182C10.856 14.4516 11.3231 14.8347 11.7482 15.2617ZM11.6856 13.8806C11.2148 13.2339 10.9533 12.4586 10.9363 11.6589C10.965 10.4423 11.884 9.39798 12.0093 9.39798C12.1261 10.1914 12.3427 10.9668 12.6542 11.7059C13.0954 12.8128 11.6804 13.8806 11.6804 13.8806H11.6856Z" fill="#D9D9D9"/>
<path d="M10.3491 14.1104C10.8532 14.446 11.322 14.8317 11.7485 15.2617C11.5918 15.4131 11.427 15.556 11.255 15.6898C10.8969 15.1976 10.5931 14.668 10.3491 14.1104Z" fill="#D9D9D9"/>
<path d="M9.7614 6.80027C9.33431 5.48854 9.08237 4.12614 9.01212 2.74842C8.8137 2.7197 6.95225 4.34097 6.68857 6.40344C6.58677 7.42587 6.75043 8.45726 7.16372 9.39795C7.44952 9.62133 7.7183 9.86567 7.96783 10.129C8.67533 9.64075 10.2444 8.35366 9.7614 6.80027ZM7.72242 9.04811C7.37911 8.49184 7.22098 7.84106 7.27076 7.18927C7.39608 6.20764 8.27589 5.44008 8.36988 5.45575C8.40437 6.10809 8.52373 6.75315 8.72494 7.37464C9.01734 8.31711 7.72242 9.04811 7.72242 9.04811Z" fill="#D9D9D9"/>
<path d="M7.96817 10.1268C7.76975 10.2626 7.64183 10.3357 7.64183 10.3357C7.45604 10.0375 7.2962 9.72395 7.16406 9.39844C7.44977 9.62098 7.71855 9.86445 7.96817 10.1268Z" fill="#D9D9D9"/>
<path d="M5.88475 7.25169C5.88475 7.25169 5.75682 3.7507 3.91626 2.48189C1.74935 0.97811 1.22721 0.103516 1.22721 0.103516C1.07839 0.202723 1.09145 2.69858 2.42814 4.58092C3.32164 5.76341 4.51505 6.6855 5.88475 7.25169ZM3.01294 4.11882C2.37071 3.21289 2.36548 2.03023 2.43597 1.98324C2.43597 1.98324 2.68399 2.39835 3.71001 3.11108C4.58199 3.71154 4.64204 5.36936 4.64204 5.36936C3.99304 5.10243 3.42768 4.66602 3.00511 4.10576L3.01294 4.11882Z" fill="#D9D9D9"/>
</svg>
