<svg width="152" height="61" viewBox="0 0 152 61" fill="none" xmlns="http://www.w3.org/2000/svg">
<g clip-path="url(#clip0_937_815)">
<path d="M5.2998 59.5155C11.4097 59.3658 17.5197 59.3035 23.6358 59.1975L41.9718 59.0167C54.1979 58.9045 66.424 58.917 78.6501 58.8608C90.8699 58.9107 103.096 58.9107 115.322 59.0105L133.658 59.1913C139.774 59.3035 145.884 59.3658 152 59.5155C145.884 59.6651 139.774 59.7275 133.658 59.8334L115.341 60.0142C103.115 60.1202 90.8886 60.114 78.6688 60.1639C66.4427 60.114 54.2166 60.1202 41.9905 60.0142L23.6358 59.8521C17.5197 59.7274 11.4097 59.6589 5.2998 59.5155Z" fill="#434847"/>
<path d="M9.80745 52.4894C9.70392 52.2156 9.5495 51.9639 9.35233 51.7475C9.15315 51.5426 8.90966 51.386 8.64055 51.2898C8.37144 51.1936 8.08386 51.1604 7.79991 51.1926C7.50926 51.2198 7.23014 51.3198 6.98826 51.4832C6.74638 51.6466 6.54952 51.8683 6.41582 52.1278C6.27839 52.402 6.21049 52.7057 6.21811 53.0123C6.22572 53.3189 6.3086 53.619 6.45946 53.886C6.61353 54.1612 6.83281 54.3944 7.09805 54.565C7.3633 54.7357 7.66639 54.8386 7.98071 54.8648C8.28369 54.8855 8.58682 54.8268 8.86017 54.6945C9.13351 54.5622 9.36762 54.3609 9.53936 54.1104C9.6638 53.9202 9.75254 53.709 9.80122 53.487C9.82273 53.4716 9.84097 53.4521 9.85488 53.4296C9.8688 53.4071 9.87811 53.3821 9.88227 53.356C9.93368 53.0656 9.90788 52.7667 9.80745 52.4894ZM9.35233 53.5493C9.27581 53.7614 9.14322 53.9488 8.96865 54.0915C8.79409 54.2342 8.5841 54.327 8.36102 54.3598C8.13181 54.3917 7.89828 54.3668 7.68089 54.2875C7.4635 54.2081 7.26889 54.0767 7.1141 53.9047C6.9672 53.752 6.86015 53.5655 6.8024 53.3617C6.74464 53.1578 6.73796 52.9429 6.78294 52.7359C6.82792 52.5288 6.92318 52.3361 7.06031 52.1746C7.19744 52.0131 7.37222 51.8878 7.56922 51.8098C7.77996 51.7424 8.00411 51.7282 8.22169 51.7684C8.43926 51.8087 8.64349 51.9021 8.81615 52.0405C9.14518 52.3428 9.35155 52.7556 9.39597 53.2002C9.39148 53.3176 9.37688 53.4344 9.35233 53.5493Z" fill="#434847"/>
<path d="M29.571 38.8727C29.4666 38.6082 29.3144 38.3652 29.1221 38.1557C28.9229 37.9508 28.6794 37.7942 28.4103 37.698C28.1412 37.6018 27.8536 37.5686 27.5697 37.6008C27.279 37.628 26.9999 37.728 26.758 37.8914C26.5162 38.0548 26.3193 38.2765 26.1856 38.536C26.0482 38.8102 25.9803 39.1139 25.9879 39.4205C25.9955 39.7271 26.0784 40.0272 26.2292 40.2942C26.3843 40.5667 26.6032 40.7976 26.867 40.967C27.1309 41.1364 27.4319 41.2392 27.7442 41.2668C28.0461 41.2888 28.3484 41.232 28.6217 41.102C28.895 40.9719 29.1297 40.773 29.3029 40.5249C29.4284 40.3352 29.5172 40.1237 29.5648 39.9014C29.5863 39.886 29.6045 39.8665 29.6184 39.8441C29.6323 39.8216 29.6416 39.7966 29.6458 39.7705C29.7029 39.47 29.677 39.1596 29.571 38.8727ZM29.1096 39.9326C29.0331 40.1447 28.9005 40.3321 28.726 40.4748C28.5514 40.6175 28.3414 40.7102 28.1183 40.7431C27.8891 40.7749 27.6556 40.7501 27.4382 40.6708C27.2208 40.5914 27.0262 40.46 26.8714 40.2879C26.7245 40.1353 26.6175 39.9488 26.5597 39.7449C26.502 39.5411 26.4953 39.3262 26.5402 39.1191C26.5852 38.9121 26.6805 38.7193 26.8176 38.5578C26.9547 38.3963 27.1295 38.2711 27.3265 38.1931C27.5373 38.1257 27.7614 38.1114 27.979 38.1517C28.1966 38.1919 28.4008 38.2854 28.5735 38.4238C28.9025 38.7261 29.1089 39.1388 29.1533 39.5834C29.1488 39.7008 29.1342 39.8177 29.1096 39.9326Z" fill="#434847"/>
<path d="M45.9493 48.1253C45.8579 47.8499 45.7092 47.597 45.5129 47.3834C45.3149 47.1782 45.0727 47.021 44.8048 46.9237C44.5368 46.8265 44.2501 46.7918 43.9667 46.8223C43.676 46.8495 43.3969 46.9494 43.155 47.1128C42.9131 47.2763 42.7163 47.4979 42.5826 47.7574C42.4442 48.0311 42.3752 48.3346 42.3818 48.6412C42.3883 48.9478 42.4701 49.2481 42.62 49.5156C42.7726 49.79 42.9897 50.0231 43.2526 50.1947C43.5154 50.3664 43.8162 50.4714 44.1288 50.5007C44.4303 50.5222 44.7322 50.4645 45.0046 50.3332C45.2769 50.202 45.5101 50.0018 45.6812 49.7525C45.8056 49.5623 45.8944 49.3511 45.943 49.1291C45.9667 49.1161 45.9867 49.0973 46.0009 49.0743C46.0151 49.0514 46.0231 49.0251 46.0241 48.9981C46.0778 48.7057 46.052 48.4043 45.9493 48.1253ZM45.5129 49.1789C45.4363 49.391 45.3037 49.5784 45.1292 49.7211C44.9546 49.8639 44.7446 49.9566 44.5216 49.9894C44.2923 50.0224 44.0584 49.9981 43.8408 49.9187C43.6233 49.8393 43.4287 49.7072 43.2746 49.5343C43.1276 49.3821 43.0202 49.196 42.962 48.9925C42.9039 48.789 42.8966 48.5743 42.941 48.3673C42.9853 48.1603 43.0799 47.9675 43.2164 47.8057C43.3528 47.6439 43.527 47.5181 43.7235 47.4395C43.9344 47.3731 44.1583 47.3595 44.3757 47.3997C44.5931 47.4399 44.7973 47.5328 44.9704 47.6702C45.2971 47.9768 45.5029 48.3905 45.5503 48.836C45.5478 48.9512 45.5353 49.0659 45.5129 49.1789Z" fill="#434847"/>
<path d="M62.97 15.3499C62.8719 15.0823 62.719 14.8381 62.5212 14.6329C62.3232 14.4277 62.081 14.2705 61.8131 14.1732C61.5451 14.076 61.2584 14.0413 60.975 14.0718C60.6843 14.099 60.4052 14.1989 60.1633 14.3623C59.9214 14.5258 59.7246 14.7475 59.5909 15.007C59.4525 15.2806 59.3835 15.5841 59.3901 15.8907C59.3966 16.1973 59.4784 16.4976 59.6283 16.7651C59.7844 17.0386 60.0042 17.2704 60.2691 17.4408C60.5339 17.6112 60.8359 17.7152 61.1495 17.744C61.4516 17.7642 61.7536 17.7052 62.0259 17.5729C62.2982 17.4406 62.5312 17.2395 62.702 16.9896C62.8264 16.7994 62.9151 16.5881 62.9638 16.3661C62.988 16.3522 63.0081 16.3322 63.0223 16.3082C63.0365 16.2841 63.0443 16.2568 63.0449 16.2289C63.0994 15.9345 63.0736 15.6308 62.97 15.3499ZM62.5087 16.4035C62.4336 16.6159 62.3024 16.8041 62.1289 16.9479C61.9555 17.0917 61.7463 17.1858 61.5236 17.2202C61.2939 17.2519 61.0598 17.2264 60.8423 17.1459C60.6248 17.0654 60.4305 16.9325 60.2767 16.7589C60.1295 16.6073 60.0221 16.4217 59.9638 16.2186C59.9056 16.0155 59.8983 15.8011 59.9427 15.5946C59.9871 15.388 60.0818 15.1956 60.2183 15.0343C60.3549 14.8731 60.5291 14.7481 60.7256 14.6703C60.9365 14.6039 61.1604 14.5903 61.3777 14.6305C61.5951 14.6707 61.7993 14.7636 61.9725 14.901C62.2979 15.206 62.5035 15.6173 62.5523 16.0606C62.5527 16.1759 62.5401 16.291 62.5149 16.4035H62.5087Z" fill="#434847"/>
<path d="M77.9329 31.7339C77.8333 31.467 77.6806 31.2231 77.484 31.0169C77.2855 30.8128 77.0431 30.6568 76.7751 30.5606C76.5072 30.4645 76.2208 30.4307 75.9379 30.462C75.6469 30.4881 75.3673 30.5876 75.1252 30.7511C74.8832 30.9147 74.6865 31.137 74.5538 31.3972C74.4154 31.6709 74.3464 31.9744 74.353 32.281C74.3595 32.5875 74.4413 32.8878 74.5912 33.1554C74.7425 33.4219 74.9546 33.649 75.2103 33.818C75.466 33.987 75.758 34.0932 76.0625 34.128C76.3646 34.1482 76.6667 34.0892 76.9389 33.9569C77.2112 33.8246 77.4442 33.6235 77.615 33.3736C77.7404 33.1839 77.8292 32.9725 77.8768 32.7501C77.9001 32.7367 77.9197 32.7177 77.9339 32.6949C77.948 32.672 77.9563 32.646 77.9579 32.6192C78.0284 32.3271 78.0198 32.0215 77.9329 31.7339ZM77.4716 32.7938C77.3956 33.005 77.2639 33.1919 77.0905 33.3345C76.9171 33.4772 76.7085 33.5704 76.4865 33.6043C76.2572 33.6372 76.0234 33.6129 75.8058 33.5335C75.5882 33.4541 75.3937 33.322 75.2396 33.1491C75.0925 32.9969 74.9852 32.8108 74.927 32.6073C74.8688 32.4038 74.8616 32.1891 74.9059 31.9821C74.9503 31.7752 75.0449 31.5823 75.1813 31.4205C75.3178 31.2587 75.492 31.1329 75.6885 31.0543C75.8993 30.9879 76.1233 30.9743 76.3406 31.0145C76.558 31.0547 76.7622 31.1476 76.9354 31.285C77.2607 31.59 77.4664 32.0013 77.5152 32.4446C77.5054 32.5632 77.4824 32.6803 77.4466 32.7938H77.4716Z" fill="#434847"/>
<path d="M105.266 14.832C105.161 14.566 105.007 14.3226 104.81 14.115C104.612 13.911 104.369 13.7549 104.102 13.6588C103.834 13.5626 103.547 13.5289 103.264 13.5602C102.974 13.5874 102.694 13.6873 102.453 13.8507C102.211 14.0142 102.014 14.2358 101.88 14.4953C101.743 14.7695 101.675 15.0733 101.682 15.3799C101.69 15.6865 101.773 15.9865 101.924 16.2535C102.078 16.5267 102.297 16.7582 102.561 16.9277C102.825 17.0972 103.126 17.1996 103.439 17.2261C103.742 17.2456 104.044 17.1863 104.317 17.0541C104.591 16.9219 104.825 16.7213 104.997 16.4717C105.122 16.2815 105.211 16.0703 105.259 15.8483C105.281 15.8329 105.299 15.8134 105.313 15.7909C105.327 15.7685 105.336 15.7434 105.34 15.7173C105.395 15.4208 105.369 15.1151 105.266 14.832ZM104.804 15.8919C104.728 16.104 104.595 16.2914 104.421 16.4341C104.246 16.5768 104.036 16.6696 103.813 16.7024C103.584 16.7343 103.35 16.7094 103.133 16.6301C102.915 16.5507 102.721 16.4193 102.566 16.2473C102.419 16.0946 102.312 15.9081 102.254 15.7043C102.197 15.5004 102.19 15.2855 102.235 15.0785C102.28 14.8714 102.375 14.6787 102.512 14.5172C102.649 14.3557 102.824 14.2304 103.021 14.1524C103.232 14.085 103.456 14.0708 103.674 14.111C103.891 14.1513 104.095 14.2447 104.268 14.3831C104.597 14.6854 104.803 15.0982 104.848 15.5428C104.843 15.6602 104.829 15.777 104.804 15.8919Z" fill="#434847"/>
<path d="M142.237 4.87574C142.139 4.60815 141.986 4.36397 141.788 4.15876C141.59 3.95358 141.348 3.79636 141.08 3.69911C140.812 3.60186 140.525 3.56715 140.242 3.59764C139.951 3.62497 139.671 3.72488 139.428 3.88825C139.185 4.05161 138.987 4.27322 138.852 4.53283C138.714 4.80701 138.646 5.11077 138.654 5.41737C138.662 5.72396 138.744 6.02398 138.895 6.291C139.051 6.56448 139.271 6.79626 139.536 6.96666C139.801 7.13706 140.103 7.24106 140.416 7.26983C140.719 7.29004 141.021 7.23107 141.293 7.09877C141.565 6.96646 141.798 6.7654 141.969 6.51544C142.093 6.32526 142.182 6.11399 142.231 5.89198C142.255 5.87803 142.275 5.85807 142.289 5.83404C142.304 5.81001 142.311 5.78273 142.312 5.75482C142.366 5.4604 142.341 5.1567 142.237 4.87574ZM141.776 5.92939C141.701 6.14182 141.569 6.32994 141.396 6.47375C141.222 6.61756 141.013 6.71169 140.791 6.74612C140.561 6.77614 140.327 6.74982 140.11 6.66945C139.893 6.58907 139.698 6.45704 139.544 6.28476C139.398 6.13205 139.292 5.94599 139.235 5.74288C139.178 5.53977 139.172 5.3258 139.217 5.11969C139.262 4.91359 139.357 4.72163 139.493 4.56063C139.629 4.39963 139.803 4.27449 139.999 4.19616C140.21 4.12982 140.434 4.11615 140.651 4.15637C140.868 4.19658 141.073 4.28945 141.246 4.42685C141.593 4.73127 141.815 5.15317 141.869 5.61142C141.849 5.72046 141.818 5.82706 141.776 5.92939Z" fill="#434847"/>
<path d="M24.758 40.6372C24.1336 40.9086 23.5417 41.2495 22.9936 41.6535C22.3702 42.0525 21.7467 42.4577 21.1233 42.9004C19.8763 43.7421 18.5982 44.6087 17.3513 45.494C14.906 47.1373 12.5998 48.9785 10.4558 50.9992C10.2875 51.1675 10.5182 51.4792 10.7239 51.3358C13.1118 49.5901 15.3562 47.6449 17.7566 45.9117C18.9245 45.0804 20.1132 44.2699 21.3228 43.4802C21.9462 43.0749 22.5697 42.6822 23.1931 42.2956C23.8378 41.9661 24.4495 41.5757 25.0199 41.1298C25.0771 41.0909 25.1179 41.0322 25.1345 40.9651C25.1511 40.898 25.1423 40.8271 25.1099 40.766C25.0774 40.705 25.0235 40.6581 24.9586 40.6343C24.8937 40.6105 24.8222 40.6116 24.758 40.6372Z" fill="#434847"/>
<path d="M42.2023 50.6251C40.2204 49.1359 38.3144 47.5482 36.4914 45.8681C35.6061 45.0514 34.7395 44.2097 33.8916 43.3743C33.0437 42.5388 32.1521 41.5039 31.192 40.6871C31.0299 40.5562 30.7867 40.7308 30.899 40.9178C31.5589 41.9203 32.3102 42.8595 33.1434 43.7234C34.0038 44.6648 34.8891 45.5938 35.8118 46.4542C37.63 48.1861 39.5517 49.8059 41.5664 51.3047C42.034 51.6414 42.6762 50.9805 42.2023 50.6251Z" fill="#434847"/>
<path d="M59.0546 17.8374C58.4111 19.0072 57.8627 20.2269 57.4149 21.4846C56.9078 22.7316 56.3966 23.9785 55.8812 25.2254C54.892 27.607 53.8633 29.9762 52.7951 32.3329C50.6254 37.1335 48.4308 41.9217 46.1116 46.6725C46.1023 46.7013 46.1034 46.7325 46.1145 46.7606C46.1257 46.7887 46.1462 46.8121 46.1727 46.8268C46.1991 46.8415 46.2299 46.8466 46.2596 46.8412C46.2894 46.8358 46.3164 46.8202 46.336 46.7972C48.9546 42.1649 51.3736 37.4453 53.5557 32.601C54.6405 30.2027 55.6796 27.7858 56.673 25.3501C57.1468 24.2216 57.6082 23.0807 58.0509 21.9398C58.6138 20.6727 59.0563 19.3556 59.3726 18.0057C59.3811 17.9659 59.3763 17.9245 59.3591 17.8876C59.3419 17.8508 59.3131 17.8206 59.2772 17.8015C59.2412 17.7825 59.2 17.7757 59.1599 17.7822C59.1197 17.7886 59.0828 17.808 59.0546 17.8374Z" fill="#434847"/>
<path d="M73.3756 30.4686C71.8481 28.1368 70.1461 25.9173 68.4378 23.7227C66.7615 21.4716 64.9348 19.3365 62.97 17.3322C62.8703 17.2325 62.6832 17.3634 62.7705 17.4819C64.3915 19.7076 66.1933 21.7962 67.8829 23.9721C69.5725 26.148 71.2184 28.4922 72.8706 30.7554C73.095 31.0422 73.5689 30.7803 73.3756 30.4686Z" fill="#434847"/>
<path d="M100.795 16.7337C100.042 17.0637 99.3301 17.4823 98.6755 17.9806L96.5246 19.3273L92.2725 22.058L90.558 23.1553L90.3585 22.8561C90.1652 22.5817 89.9533 22.3199 89.7351 22.0643C89.5168 21.8087 89.3298 21.5655 89.1116 21.3224C88.9139 21.0713 88.6706 20.8598 88.3946 20.6989C88.3073 20.6552 88.1764 20.7301 88.2138 20.8423C88.3367 21.1274 88.5051 21.3906 88.7126 21.6216C88.9183 21.8835 89.1241 22.1391 89.336 22.4009C89.548 22.6628 89.7288 22.9184 89.9595 23.174L90.1777 23.4421C88.033 24.8137 85.8904 26.1874 83.7498 27.5632C82.1413 28.5981 80.5639 29.6767 78.9803 30.7491C78.8058 30.8613 78.9803 31.1356 79.1424 31.0234C82.9954 28.6979 86.7986 26.2913 90.5954 23.8723C90.6207 23.8998 90.6553 23.9169 90.6925 23.9202C90.7297 23.9234 90.7668 23.9127 90.7964 23.8901C90.8261 23.8674 90.8462 23.8345 90.8529 23.7977C90.8595 23.761 90.8522 23.7231 90.8324 23.6915L96.2939 20.2001L98.6443 18.7038L99.8913 17.9058C100.293 17.6814 100.665 17.4093 101.001 17.0953C101.038 17.0632 101.063 17.0192 101.072 16.9708C101.08 16.9224 101.071 16.8725 101.047 16.8298C101.023 16.7871 100.984 16.7541 100.938 16.7366C100.892 16.7191 100.842 16.718 100.795 16.7337Z" fill="#434847"/>
<path d="M137.786 5.44294C129.506 7.4879 121.235 9.57857 112.972 11.715C110.621 12.3384 108.252 12.8933 105.958 13.6913C105.924 13.7004 105.895 13.7226 105.878 13.753C105.86 13.7834 105.855 13.8195 105.864 13.8534C105.873 13.8873 105.896 13.9162 105.926 13.9338C105.956 13.9513 105.993 13.9561 106.026 13.947C108.146 13.5791 110.222 13.0305 112.305 12.5068L118.539 10.9543C122.654 9.92356 126.773 8.90731 130.896 7.90562L137.979 6.17863C138.478 6.06641 138.272 5.32449 137.786 5.44294Z" fill="#434847"/>
<path d="M2.64994 0C3.31081 4.75701 3.65372 9.52026 3.89687 14.2773C4.04026 16.6589 4.07144 19.0405 4.15872 21.4159L4.23354 28.5546C4.23354 30.9362 4.23354 33.3178 4.14625 35.6932C4.05897 38.0686 4.02779 40.4564 3.8844 42.8381C3.64748 47.5951 3.30458 52.3521 2.63747 57.1153H2.49408L2.36938 28.5546L2.49408 0H2.64994Z" fill="#434847"/>
<path d="M0.467893 50.0452C1.06043 50.0847 1.65537 50.068 2.24476 49.9953L4.01539 49.8769C4.59521 49.8332 5.15009 49.7086 5.72991 49.6088L6.52794 49.4779C6.84375 49.4543 7.15677 49.4022 7.46314 49.322C7.59406 49.2721 7.62524 49.0415 7.46314 49.0103C7.17494 48.9823 6.88471 48.9823 6.59652 49.0103C6.32843 49.0103 6.05411 49.0103 5.77979 49.0103C5.15633 49.0103 4.53286 49.0103 3.94058 49.0602L2.16371 49.2534C1.56408 49.2885 0.969122 49.3803 0.386843 49.5278C0.328366 49.5502 0.279318 49.5919 0.247848 49.6461C0.216377 49.7002 0.204379 49.7635 0.213847 49.8254C0.223315 49.8873 0.253678 49.9441 0.299893 49.9863C0.346107 50.0286 0.405391 50.0538 0.467893 50.0577V50.0452Z" fill="#434847"/>
<path d="M0.523956 41.2979C1.54832 41.3946 2.5795 41.3946 3.60386 41.2979C4.10886 41.2979 4.60763 41.2169 5.1064 41.1733C5.627 41.1707 6.14118 41.0581 6.61518 40.8428C6.76481 40.7555 6.78351 40.4687 6.61518 40.4002C6.12494 40.2407 5.60677 40.1854 5.09393 40.2381C4.59516 40.2381 4.09639 40.2381 3.59762 40.3066C2.56106 40.3329 1.52954 40.4603 0.517721 40.687C0.237163 40.7618 0.212225 41.2481 0.517721 41.3104L0.523956 41.2979Z" fill="#434847"/>
<path d="M0.199806 33.0056C2.55026 32.7937 4.93188 33.0555 7.28233 32.7937C7.51301 32.7937 7.58783 32.4196 7.33221 32.3635C4.98799 31.8522 2.53779 32.2637 0.193571 32.5942C-0.0620481 32.6316 -0.0682827 33.0306 0.193571 33.0056H0.199806Z" fill="#434847"/>
<path d="M1.29074 25.4621C1.74587 25.4122 2.19476 25.3935 2.64365 25.3624C3.09255 25.3312 3.49156 25.2564 3.89058 25.2252C4.28959 25.194 4.74472 25.1566 5.17491 25.1379C5.41183 25.1379 5.63004 25.0693 5.86695 25.0444C6.10156 25.0429 6.33469 25.0072 6.559 24.9384C6.76474 24.8636 6.87696 24.5082 6.62134 24.4085C6.42216 24.3316 6.21129 24.2894 5.99788 24.2838C5.76615 24.255 5.53307 24.2383 5.2996 24.2339C4.83135 24.2453 4.36457 24.2911 3.90305 24.371C3.44667 24.4276 2.99466 24.5151 2.55014 24.6329C2.11371 24.7701 1.68352 24.9571 1.25957 25.1254C1.09123 25.194 1.09747 25.4933 1.30945 25.4683L1.29074 25.4621Z" fill="#434847"/>
<path d="M1.24717 15.3437C2.06391 15.3936 2.88064 15.4621 3.69738 15.4372C4.10886 15.4372 4.51411 15.3936 4.9443 15.3686C5.1331 15.3522 5.32056 15.3231 5.50542 15.2813C5.71569 15.2624 5.92415 15.2269 6.12888 15.1754C6.16425 15.1655 6.19542 15.1442 6.21761 15.115C6.23981 15.0857 6.25183 15.05 6.25183 15.0133C6.25183 14.9765 6.23981 14.9408 6.21761 14.9115C6.19542 14.8823 6.16425 14.8611 6.12888 14.8512C5.92259 14.8172 5.71435 14.7964 5.50542 14.7888C5.31215 14.7888 5.13134 14.7389 4.93807 14.7452H3.69114C2.87441 14.7826 2.05767 14.9073 1.24717 15.0133C1.20584 15.0133 1.16619 15.0297 1.13696 15.0589C1.10773 15.0881 1.09131 15.1278 1.09131 15.1691C1.09131 15.2105 1.10773 15.2501 1.13696 15.2793C1.16619 15.3086 1.20584 15.325 1.24717 15.325V15.3437Z" fill="#434847"/>
<path d="M0.555185 7.43779C1.12399 7.54422 1.69857 7.61708 2.27594 7.656C2.85576 7.656 3.43558 7.656 4.00916 7.656C4.58275 7.656 5.1688 7.60612 5.74239 7.55625C6.32763 7.58153 6.90835 7.44337 7.4195 7.15723C7.46295 7.11423 7.49576 7.06168 7.51532 7.00376C7.53488 6.94584 7.54065 6.88416 7.53218 6.82362C7.5237 6.76308 7.50121 6.70535 7.4665 6.65503C7.43178 6.60471 7.3858 6.56319 7.33222 6.53377C6.77551 6.35815 6.18308 6.3281 5.61146 6.44649C5.05658 6.48389 4.5017 6.54624 3.94682 6.59612C3.39194 6.64599 2.83706 6.68964 2.28217 6.75198C1.72729 6.81433 1.14124 6.97643 0.573889 7.10112C0.537013 7.11125 0.504483 7.13321 0.481299 7.16362C0.458114 7.19403 0.445557 7.23121 0.445557 7.26946C0.445557 7.3077 0.458114 7.34488 0.481299 7.37529C0.504483 7.4057 0.537013 7.42766 0.573889 7.43779H0.555185Z" fill="#434847"/>
<path d="M11.5529 42.9065C11.3298 42.6903 11.0781 42.5057 10.8048 42.3579L9.97558 41.8466C9.70749 41.6783 9.4394 41.4913 9.16508 41.3229C8.91184 41.1516 8.64493 41.0015 8.36705 40.874C8.31717 40.874 8.286 40.9239 8.31717 40.9613C8.53247 41.1925 8.7706 41.4014 9.02791 41.5848C9.28353 41.778 9.55786 41.9526 9.82595 42.1334C10.094 42.3142 10.3559 42.495 10.6302 42.6634C10.8822 42.8465 11.1622 42.9876 11.4594 43.0811C11.4826 43.0935 11.5097 43.0962 11.5348 43.0886C11.56 43.081 11.5811 43.0637 11.5935 43.0406C11.6059 43.0174 11.6086 42.9903 11.601 42.9651C11.5934 42.94 11.5761 42.9189 11.5529 42.9065Z" fill="#434847"/>
<path d="M14.7512 45.1139C14.6497 44.905 14.5102 44.7168 14.3397 44.559C14.1759 44.4024 13.9986 44.2605 13.8098 44.1351C13.4358 43.8852 13.009 43.7251 12.5629 43.6675C12.4444 43.6675 12.4382 43.8296 12.5629 43.8608C12.9575 44.0035 13.3341 44.1918 13.6851 44.4219C13.8504 44.5389 14.0067 44.6681 14.1527 44.8084C14.2275 44.8832 14.2961 44.9643 14.3709 45.0329L14.6078 45.2573C14.6577 45.3633 14.8136 45.2324 14.7512 45.1139Z" fill="#434847"/>
<path d="M20.2129 49.3157C19.6892 48.9541 19.1157 48.6923 18.5857 48.3306C18.0507 47.9798 17.5346 47.6011 17.0395 47.1959C17.0215 47.1824 16.9992 47.1759 16.9768 47.1775C16.9543 47.1791 16.9332 47.1887 16.9173 47.2046C16.9014 47.2206 16.8917 47.2417 16.8901 47.2641C16.8885 47.2866 16.8951 47.3089 16.9086 47.3269C17.3509 47.8151 17.8465 48.2522 18.3862 48.6299C18.9099 49.0273 19.4984 49.331 20.1257 49.5277C20.1538 49.5393 20.1853 49.5392 20.2134 49.5275C20.2414 49.5158 20.2637 49.4935 20.2753 49.4653C20.2869 49.4372 20.2868 49.4057 20.2751 49.3776C20.2634 49.3496 20.2411 49.3273 20.2129 49.3157Z" fill="#434847"/>
<path d="M24.228 51.6913C24.0276 51.5786 23.8192 51.4807 23.6046 51.3983L22.9811 51.1115C22.7754 51.0117 22.5758 50.912 22.3576 50.806C22.186 50.6922 22.0068 50.5902 21.8215 50.5005C21.7342 50.5005 21.6843 50.594 21.7342 50.6564C21.8931 50.8176 22.0735 50.956 22.2703 51.0678C22.4761 51.1925 22.6818 51.311 22.8938 51.417C23.0959 51.5209 23.3041 51.6125 23.5173 51.6913C23.7318 51.7849 23.9585 51.8479 24.1906 51.8783C24.2779 51.8846 24.3153 51.7474 24.228 51.6913Z" fill="#434847"/>
<path d="M28.3616 53.6177C28.2543 53.52 28.1265 53.4476 27.9875 53.4057L27.5636 53.2374L26.7281 52.9069C26.6159 52.8633 26.5349 53.0503 26.6471 53.094L27.47 53.4556L27.8753 53.6302C28.0084 53.7005 28.1552 53.7409 28.3055 53.7486C28.32 53.7473 28.3339 53.742 28.3457 53.7334C28.3575 53.7249 28.3667 53.7132 28.3725 53.6998C28.3782 53.6864 28.3802 53.6717 28.3783 53.6573C28.3764 53.6428 28.3706 53.6291 28.3616 53.6177Z" fill="#434847"/>
<path d="M31.8716 50.1386C31.7531 49.9828 31.5225 50.1386 31.4102 50.2446C31.2699 50.3621 31.1443 50.496 31.0362 50.6436C30.9302 50.7808 30.8242 50.918 30.7307 51.0676C30.5259 51.3901 30.3546 51.7327 30.2194 52.0901C30.1758 52.2085 30.3628 52.2771 30.4189 52.1711C30.5958 51.886 30.7915 51.6132 31.005 51.3544C31.1047 51.2297 31.217 51.0988 31.3292 50.9803C31.4414 50.8619 31.5723 50.7372 31.6908 50.6062C31.8093 50.4753 31.7843 50.4753 31.8342 50.4067C31.8841 50.3381 31.9464 50.2322 31.8716 50.1386Z" fill="#434847"/>
<path d="M33.9726 47.1769C33.8987 47.2185 33.8332 47.2734 33.7794 47.339L33.5861 47.5198C33.4676 47.6507 33.3616 47.8066 33.2557 47.95C33.0499 48.2243 32.8816 48.5173 32.6883 48.8041C32.6072 48.9226 32.7881 49.0597 32.8878 48.9537C33.1185 48.7043 33.3679 48.4674 33.5923 48.2118C33.7045 48.0809 33.823 47.9437 33.9228 47.8003C34.0225 47.6569 34.0163 47.6507 34.0599 47.5759C34.1171 47.5061 34.1595 47.4256 34.1846 47.339C34.1925 47.3113 34.1919 47.2819 34.1828 47.2545C34.1738 47.2272 34.1567 47.2032 34.1338 47.1857C34.1109 47.1682 34.0833 47.158 34.0546 47.1565C34.0258 47.1549 33.9973 47.162 33.9726 47.1769Z" fill="#434847"/>
<path d="M38.2559 41.585C38.1562 41.6474 38.0876 41.7471 37.9941 41.8157C37.9059 41.8872 37.8264 41.9688 37.7571 42.0588C37.595 42.2459 37.4516 42.4391 37.302 42.6324C37.1524 42.8257 37.0028 43.0127 36.8594 43.206C36.7908 43.2933 36.7347 43.393 36.6661 43.4866C36.6289 43.5391 36.5976 43.5956 36.5726 43.6549C36.5699 43.6798 36.5699 43.7048 36.5726 43.7297C36.5726 43.7297 36.5726 43.8045 36.5726 43.8295C36.5726 43.8544 36.6287 43.9417 36.6723 43.9105C36.716 43.8793 36.7347 43.9105 36.7596 43.9105C36.7837 43.9005 36.8067 43.8879 36.8282 43.8731C36.8797 43.836 36.9259 43.792 36.9653 43.7422C37.0464 43.6611 37.1212 43.5801 37.196 43.4928C37.3519 43.3058 37.5015 43.1063 37.6512 42.9192C37.8008 42.7322 37.9567 42.5451 38.0938 42.3456C38.1654 42.2564 38.2281 42.1603 38.2809 42.0588C38.3245 41.9466 38.4055 41.8469 38.443 41.7284C38.4804 41.6099 38.337 41.5414 38.2559 41.585Z" fill="#434847"/>
<path d="M41.6912 37.0462C41.4331 37.3072 41.207 37.5982 41.0179 37.9128L40.3134 38.848C39.8458 39.4715 39.3969 40.0949 38.9168 40.7184C38.8607 40.787 38.9542 40.8867 39.0228 40.8182C39.5528 40.2446 40.0889 39.6772 40.5752 39.06C40.808 38.769 41.0387 38.4698 41.2673 38.1622C41.5152 37.8723 41.7247 37.5517 41.8908 37.2083C41.9656 37.04 41.7723 36.9714 41.6912 37.0462Z" fill="#434847"/>
<path d="M43.6426 34.2904C43.4552 34.407 43.299 34.5675 43.1875 34.758L42.8009 35.3004C42.6762 35.4874 42.5453 35.6682 42.4206 35.849C42.3005 36.0375 42.1922 36.2332 42.0964 36.4351C42.0901 36.4515 42.0894 36.4696 42.0942 36.4865C42.0991 36.5034 42.1094 36.5183 42.1235 36.5289C42.1376 36.5394 42.1547 36.5451 42.1723 36.5451C42.19 36.545 42.2071 36.5392 42.2211 36.5286C42.3803 36.3756 42.5302 36.2132 42.67 36.0423L43.0815 35.5124L43.4805 34.9762C43.6292 34.8154 43.7362 34.6206 43.7922 34.4088C43.7966 34.3894 43.7953 34.3691 43.7887 34.3503C43.782 34.3316 43.7702 34.315 43.7546 34.3027C43.7389 34.2903 43.7202 34.2826 43.7004 34.2804C43.6805 34.2782 43.6605 34.2817 43.6426 34.2904Z" fill="#434847"/>
<path d="M46.0678 31.3541C46.0721 31.3347 46.0709 31.3144 46.0642 31.2956C46.0576 31.2769 46.0458 31.2604 46.0301 31.248C46.0145 31.2356 45.9957 31.2279 45.9759 31.2257C45.9561 31.2236 45.9361 31.227 45.9182 31.2357C45.7623 31.2669 45.6563 31.4601 45.569 31.5786L45.1949 32.0774C45.0786 32.2353 44.9601 32.3974 44.8396 32.5637C44.7211 32.732 44.6214 32.9066 44.5154 33.0874C44.4094 33.2682 44.6027 33.3056 44.6837 33.2183C44.7648 33.131 44.9643 32.9315 45.0952 32.7819C45.2261 32.6322 45.357 32.4514 45.4817 32.2831L45.8246 31.7968C45.9119 31.6783 46.0803 31.5162 46.0678 31.3541Z" fill="#434847"/>
<path d="M48.9669 33.0994C48.9394 33.0533 48.9081 33.0095 48.8734 32.9684C48.8219 32.928 48.7653 32.8944 48.7051 32.8687L48.4495 32.7253L47.9071 32.4198L46.8534 31.7963C46.8326 31.7861 46.809 31.7835 46.7865 31.7888C46.764 31.7941 46.744 31.8071 46.7301 31.8255C46.7161 31.8439 46.7089 31.8666 46.7098 31.8897C46.7107 31.9128 46.7196 31.9349 46.7349 31.9522C46.8721 32.1081 47.0217 32.2577 47.1714 32.4011C47.3305 32.5448 47.4969 32.68 47.6701 32.8063C47.8322 32.931 48.0006 33.0433 48.1751 33.1555L48.4432 33.3238C48.4916 33.3589 48.5439 33.3882 48.5991 33.4111C48.6629 33.4237 48.7286 33.4237 48.7924 33.4111C48.8286 33.4108 48.8642 33.4009 48.8954 33.3824C48.9266 33.3639 48.9524 33.3375 48.9701 33.3059C48.9878 33.2742 48.9969 33.2385 48.9963 33.2022C48.9958 33.1659 48.9856 33.1305 48.9669 33.0994Z" fill="#434847"/>
<path d="M55.3324 37.5512L54.6091 37.1086C54.1322 36.816 53.6703 36.4997 53.2251 36.1609C53.1191 36.0736 52.9694 36.217 53.0692 36.3105C53.4902 36.6978 53.9337 37.06 54.3972 37.3953C54.6278 37.5637 54.871 37.7133 55.1142 37.8629C55.3573 38.0126 55.6129 38.2121 55.8623 38.1622C55.8748 38.1593 55.8866 38.1539 55.897 38.1463C55.9073 38.1387 55.9159 38.129 55.9224 38.1179C55.9288 38.1068 55.9329 38.0945 55.9343 38.0817C55.9358 38.069 55.9346 38.056 55.9309 38.0437C55.8374 37.7881 55.5319 37.6697 55.3324 37.5512Z" fill="#434847"/>
<path d="M59.9711 40.843C59.7466 40.6559 59.5159 40.4814 59.2728 40.313C58.7926 39.994 58.2755 39.7344 57.7328 39.5399C57.6206 39.4963 57.552 39.6771 57.6518 39.7332C58.1256 40.0262 58.587 40.3567 59.0421 40.6622C59.2603 40.818 59.4785 40.9864 59.6656 41.1609C59.8526 41.3355 60.0771 41.5911 60.3451 41.6348C60.3685 41.6411 60.393 41.6412 60.4164 41.635C60.4397 41.6287 60.461 41.6165 60.4781 41.5994C60.4952 41.5823 60.5075 41.561 60.5137 41.5377C60.5199 41.5143 60.5198 41.4897 60.5135 41.4664C60.4761 41.1921 60.183 41.0113 59.9711 40.843Z" fill="#434847"/>
<path d="M63.6309 36.9962C63.498 37.0304 63.3838 37.1155 63.313 37.2331C63.2132 37.3516 63.1197 37.4825 63.0324 37.6072L62.49 38.3553C62.3196 38.5922 62.1512 38.8354 61.985 39.0848C61.8977 39.2157 61.8104 39.3404 61.7294 39.4776C61.6891 39.537 61.6536 39.5995 61.6234 39.6646C61.6234 39.7332 61.586 39.808 61.561 39.8766C61.5361 39.9452 61.6296 39.9888 61.6795 39.9514C61.7294 39.914 61.7793 39.8953 61.8229 39.8579C61.8793 39.8106 61.9315 39.7585 61.9788 39.702L62.2718 39.3404C62.4651 39.0972 62.6459 38.8603 62.8267 38.6109L63.3566 37.9002C63.4501 37.7693 63.5499 37.6446 63.6309 37.5137C63.7296 37.4045 63.7831 37.2618 63.7806 37.1146C63.78 37.0965 63.7755 37.0786 63.7674 37.0624C63.7592 37.0461 63.7476 37.0319 63.7333 37.0206C63.7191 37.0093 63.7025 37.0013 63.6848 36.997C63.6671 36.9928 63.6487 36.9925 63.6309 36.9962Z" fill="#434847"/>
<path d="M66.7109 32.5322C66.6369 32.6195 66.5682 32.7111 66.5052 32.8065C66.4432 32.8964 66.387 32.9901 66.3369 33.0871C66.2282 33.2875 66.1075 33.4812 65.9752 33.6669C65.7116 34.0263 65.4197 34.364 65.1024 34.6769C65.0846 34.6949 65.0738 34.7187 65.072 34.7439C65.0702 34.7692 65.0775 34.7942 65.0926 34.8145C65.1077 34.8349 65.1295 34.8492 65.1542 34.8548C65.1788 34.8604 65.2047 34.857 65.2271 34.8453C65.4359 34.7283 65.6323 34.5905 65.8131 34.4338C65.9913 34.268 66.1541 34.0865 66.2994 33.8914C66.4446 33.7095 66.5739 33.5155 66.686 33.3116C66.7428 33.1991 66.7908 33.0823 66.8294 32.9624C66.8643 32.8472 66.8811 32.7274 66.8793 32.607C66.8797 32.5873 66.8744 32.5679 66.8638 32.5513C66.8533 32.5346 66.8381 32.5215 66.8201 32.5135C66.8021 32.5055 66.7821 32.503 66.7627 32.5063C66.7432 32.5097 66.7252 32.5187 66.7109 32.5322Z" fill="#434847"/>
<path d="M69.0739 29.0592C69.0555 29.0311 69.0288 29.0094 68.9975 28.9971C68.9662 28.9848 68.9319 28.9825 68.8993 28.9906C68.7933 28.9906 68.7559 29.1028 68.706 29.1901L68.5876 29.4083L68.3506 29.8634L68.2259 30.0941L68.1013 30.2812C68.0034 30.4163 67.895 30.5434 67.7771 30.6615C67.7085 30.73 67.777 30.861 67.883 30.7986C68.1653 30.5922 68.4245 30.356 68.6561 30.0941C68.7764 29.9569 68.8771 29.8037 68.9554 29.639C69.0018 29.5537 69.0394 29.4638 69.0676 29.3709C69.0932 29.3231 69.1071 29.27 69.1082 29.2158C69.1093 29.1616 69.0975 29.1079 69.0739 29.0592Z" fill="#434847"/>
<path d="M72.0226 23.6915C71.9118 23.8332 71.8273 23.9937 71.7732 24.1653C71.7046 24.3212 71.6423 24.4833 71.5675 24.6392C71.4249 24.9596 71.2646 25.2718 71.0874 25.5744C71.025 25.6741 71.1809 25.7988 71.2557 25.7053C71.4872 25.4276 71.6957 25.1315 71.8792 24.82C71.9689 24.6645 72.0501 24.5042 72.1223 24.3399C72.2129 24.1729 72.2641 23.9873 72.272 23.7975C72.2709 23.7691 72.2618 23.7416 72.2457 23.7181C72.2296 23.6947 72.2071 23.6764 72.181 23.6652C72.1548 23.6541 72.126 23.6507 72.098 23.6553C72.0699 23.66 72.0438 23.6725 72.0226 23.6915Z" fill="#434847"/>
<path d="M74.6476 19.0842C74.6049 19.0674 74.5576 19.0664 74.5142 19.0812C74.4708 19.0961 74.4341 19.1259 74.4106 19.1653C74.3318 19.3527 74.2632 19.5441 74.2049 19.7389C74.1301 19.9321 74.0615 20.1316 73.9867 20.3249C73.8354 20.7064 73.6583 21.0772 73.4567 21.4347C73.441 21.462 73.4368 21.4944 73.445 21.5248C73.4532 21.5552 73.4731 21.5811 73.5004 21.5968C73.5277 21.6125 73.5601 21.6167 73.5905 21.6085C73.6209 21.6004 73.6468 21.5804 73.6625 21.5531C73.8931 21.2073 74.1014 20.847 74.286 20.4746C74.3795 20.2938 74.4668 20.1067 74.5478 19.9197C74.636 19.7194 74.7029 19.5105 74.7473 19.2962C74.7552 19.2549 74.7497 19.2121 74.7318 19.174C74.7139 19.136 74.6844 19.1045 74.6476 19.0842Z" fill="#434847"/>
<path d="M77.6773 13.6537C77.5473 13.7157 77.4371 13.8129 77.3594 13.9343C77.2783 14.0527 77.216 14.1774 77.1412 14.2959C76.9915 14.5452 76.8481 14.8009 76.686 15.0502C76.5239 15.2996 76.3743 15.5303 76.2247 15.7735C76.075 16.0166 75.9317 16.2785 75.782 16.5341C75.7722 16.5472 75.765 16.5621 75.761 16.578C75.7569 16.5938 75.756 16.6103 75.7583 16.6265C75.7606 16.6427 75.7661 16.6583 75.7745 16.6724C75.7828 16.6865 75.7939 16.6988 75.807 16.7087C75.8201 16.7185 75.835 16.7256 75.8508 16.7297C75.8667 16.7338 75.8832 16.7347 75.8994 16.7323C75.9156 16.73 75.9312 16.7245 75.9453 16.7162C75.9594 16.7079 75.9717 16.6968 75.9815 16.6837C76.2034 16.4905 76.4118 16.2822 76.605 16.0603C76.792 15.8233 76.9604 15.5802 77.1287 15.3308C77.297 15.0814 77.4467 14.857 77.5963 14.6138C77.7845 14.375 77.8915 14.0823 77.9018 13.7784C77.9059 13.7508 77.9015 13.7226 77.8891 13.6976C77.8768 13.6726 77.8571 13.6519 77.8327 13.6384C77.8083 13.6248 77.7804 13.619 77.7526 13.6218C77.7249 13.6245 77.6986 13.6356 77.6773 13.6537Z" fill="#434847"/>
<path d="M79.8346 10.4307C79.7535 10.3933 79.8034 10.4307 79.6725 10.4619C79.5415 10.493 79.5602 10.4619 79.5291 10.5803L79.4917 10.6676L79.4231 10.8546V10.8921L79.3857 10.9856L79.2921 11.1601C79.1734 11.3825 79.0313 11.5915 78.8682 11.7836C78.8489 11.8062 78.8383 11.8349 78.8383 11.8647C78.8383 11.8944 78.8489 11.9231 78.8682 11.9457C78.8908 11.965 78.9195 11.9756 78.9492 11.9756C78.979 11.9756 79.0077 11.965 79.0303 11.9457C79.1432 11.8672 79.2496 11.7796 79.3483 11.6839C79.4512 11.5815 79.5431 11.4687 79.6226 11.3472C79.6987 11.2387 79.7654 11.124 79.8221 11.0043C79.9013 10.8661 79.9522 10.7135 79.9717 10.5554C79.9622 10.5242 79.9445 10.4961 79.9203 10.4741C79.8962 10.4522 79.8665 10.4372 79.8346 10.4307Z" fill="#434847"/>
<path d="M83.7624 14.4522C83.3696 14.0532 82.9831 13.6542 82.5841 13.2614L81.1937 11.9022C81.0878 11.79 80.9194 11.9584 81.0254 12.0706C81.7736 12.9185 82.503 13.7851 83.2574 14.6205C83.4133 14.7951 83.6502 15.1817 83.9245 15.0632C83.9687 15.0375 84.0031 14.9978 84.0223 14.9504C84.0415 14.903 84.0443 14.8506 84.0305 14.8013C83.9727 14.6638 83.8803 14.5436 83.7624 14.4522Z" fill="#434847"/>
<path d="M87.129 18.7724C86.9046 18.4669 86.6739 18.1489 86.4432 17.8621C86.2125 17.5753 85.9756 17.2948 85.7325 17.0142C85.5045 16.7281 85.2429 16.4706 84.9531 16.2473C84.8596 16.1788 84.7661 16.3035 84.8098 16.3907C84.9787 16.704 85.177 17.0004 85.402 17.2761L86.038 18.1614C86.2562 18.4482 86.4682 18.735 86.6614 19.028C86.7612 19.1651 86.8609 19.3023 86.9732 19.4332C87.0847 19.5932 87.2121 19.7415 87.3535 19.8759C87.4782 19.9819 87.7151 19.8759 87.6527 19.7013C87.5198 19.37 87.3438 19.0576 87.129 18.7724Z" fill="#434847"/>
<path d="M94.5109 28.9162C94.3338 28.6393 94.138 28.3747 93.9248 28.1245C93.5004 27.6253 93.0331 27.1642 92.5283 26.7466C92.3849 26.6281 92.1853 26.8277 92.3225 26.9586C92.7913 27.3888 93.2249 27.8558 93.6193 28.3551C94.0059 28.8539 94.3737 29.3651 94.7602 29.8639C94.8226 29.945 94.9597 29.8639 94.9286 29.7642C94.8172 29.4686 94.6773 29.1847 94.5109 28.9162Z" fill="#434847"/>
<path d="M98.2394 34.3463C97.9963 34.0221 97.722 33.7229 97.4476 33.4174L96.6371 32.5258C96.5498 32.4261 96.369 32.5632 96.4501 32.6692C96.6932 32.9872 96.9239 33.2927 97.1608 33.6356C97.3977 33.9785 97.6409 34.2902 97.884 34.6019C97.9238 34.6366 97.9747 34.6557 98.0274 34.6557C98.0802 34.6557 98.1311 34.6366 98.1708 34.6019C98.2105 34.5742 98.2391 34.5334 98.2517 34.4866C98.2642 34.4399 98.2599 34.3902 98.2394 34.3463Z" fill="#434847"/>
<path d="M100.826 30.8302C100.601 31.0059 100.427 31.2383 100.321 31.5036C100.178 31.7592 100.041 32.021 99.9038 32.2829C99.6357 32.8066 99.3551 33.3241 99.0808 33.8478C99.0693 33.8679 99.0619 33.89 99.059 33.9129C99.0561 33.9358 99.0577 33.9591 99.0638 33.9814C99.0761 34.0264 99.1057 34.0647 99.1463 34.0878C99.1868 34.111 99.2348 34.1171 99.2798 34.1048C99.3248 34.0925 99.3631 34.0629 99.3863 34.0224C99.6856 33.5174 100.01 33.0061 100.284 32.5011C100.44 32.2517 100.59 32.0023 100.733 31.7405C100.905 31.5108 101.012 31.2397 101.045 30.9549C101.043 30.93 101.036 30.9058 101.023 30.8845C101.009 30.8632 100.991 30.8456 100.97 30.8332C100.948 30.8208 100.923 30.814 100.898 30.8135C100.873 30.813 100.849 30.8187 100.826 30.8302Z" fill="#434847"/>
<path d="M103.931 25.1441C103.869 25.189 103.811 25.2391 103.757 25.2937C103.71 25.3514 103.666 25.4118 103.626 25.4745C103.546 25.5841 103.473 25.6986 103.408 25.8174C103.258 26.0668 103.108 26.3162 102.965 26.5656C102.678 27.0644 102.416 27.5818 102.142 28.0931C102.124 28.1253 102.119 28.1635 102.129 28.1991C102.139 28.2348 102.163 28.2651 102.195 28.2832C102.227 28.3014 102.265 28.3061 102.301 28.2961C102.337 28.2862 102.367 28.2625 102.385 28.2302C102.703 27.7502 103.009 27.2763 103.339 26.7838C103.495 26.5344 103.638 26.285 103.794 26.0419C103.863 25.9234 103.931 25.8112 103.994 25.6865C104.029 25.6218 104.06 25.5552 104.087 25.487C104.108 25.4136 104.123 25.3385 104.131 25.2626C104.14 25.2368 104.14 25.2088 104.13 25.1832C104.121 25.1576 104.103 25.136 104.079 25.1221C104.056 25.1082 104.028 25.1027 104.001 25.1068C103.974 25.1108 103.95 25.124 103.931 25.1441Z" fill="#434847"/>
<path d="M106.731 19.8263C106.625 19.953 106.537 20.0935 106.469 20.244C106.388 20.3936 106.313 20.537 106.244 20.6929C106.176 20.8488 106.12 20.9922 106.051 21.1418L105.827 21.5907C105.811 21.618 105.807 21.6504 105.815 21.6808C105.823 21.7112 105.843 21.7371 105.87 21.7528C105.898 21.7685 105.93 21.7727 105.96 21.7645C105.991 21.7564 106.017 21.7364 106.032 21.7091L106.282 21.2977C106.369 21.1543 106.469 21.0171 106.556 20.8799C106.643 20.7428 106.724 20.5994 106.805 20.4622C106.896 20.3151 106.969 20.1583 107.024 19.9946C107.034 19.9573 107.031 19.9177 107.017 19.882C107.002 19.8462 106.976 19.8164 106.942 19.7971C106.909 19.7779 106.87 19.7703 106.831 19.7756C106.793 19.7808 106.758 19.7987 106.731 19.8263Z" fill="#434847"/>
<path d="M109.667 14.9132C109.65 14.8856 109.624 14.8642 109.594 14.8519C109.564 14.8395 109.531 14.837 109.499 14.8446C109.457 14.8508 109.418 14.8672 109.384 14.8922C109.351 14.9172 109.324 14.9501 109.306 14.988C109.187 15.1751 109.087 15.3683 108.975 15.5616L108.595 16.21C108.583 16.2416 108.583 16.2762 108.594 16.3079C108.605 16.3396 108.628 16.3663 108.656 16.3834C108.685 16.4005 108.72 16.4069 108.753 16.4014C108.786 16.3959 108.816 16.3789 108.838 16.3534L109.218 15.811C109.343 15.624 109.48 15.4432 109.605 15.2561C109.73 15.0691 109.73 15.0379 109.667 14.9132Z" fill="#434847"/>
<path d="M112.223 7.8429C112.153 7.89395 112.101 7.96598 112.074 8.04864L111.974 8.25438C111.912 8.39155 111.849 8.52247 111.775 8.6534C111.637 8.90878 111.476 9.15089 111.294 9.37662C111.272 9.40289 111.261 9.43651 111.262 9.47084C111.264 9.50517 111.278 9.5377 111.302 9.56199C111.327 9.58629 111.359 9.60058 111.394 9.60204C111.428 9.6035 111.461 9.59203 111.488 9.56989C111.719 9.35424 111.927 9.11615 112.111 8.85914C112.204 8.7401 112.285 8.6128 112.354 8.47883C112.392 8.41025 112.423 8.34167 112.454 8.27309C112.514 8.18095 112.536 8.06942 112.516 7.96136C112.509 7.93118 112.495 7.90314 112.475 7.8796C112.455 7.85606 112.429 7.83771 112.401 7.8261C112.372 7.81449 112.341 7.80995 112.31 7.81287C112.279 7.8158 112.249 7.8261 112.223 7.8429Z" fill="#434847"/>
<path d="M114.954 10.5115C114.928 10.4808 114.905 10.4474 114.885 10.4118C114.87 10.3699 114.849 10.3301 114.823 10.2933C114.773 10.2241 114.718 10.1575 114.661 10.0938C114.555 9.96288 114.449 9.83195 114.331 9.70726L113.645 8.97781C113.619 8.9523 113.584 8.93799 113.548 8.93799C113.512 8.93799 113.477 8.9523 113.452 8.97781C113.427 9.00423 113.414 9.03869 113.414 9.07445C113.414 9.1102 113.427 9.14467 113.452 9.17108L114.094 9.97535C114.193 10.1 114.306 10.2185 114.412 10.3432L114.574 10.5115C114.612 10.5426 114.651 10.5718 114.692 10.5988L114.786 10.6799C114.867 10.7297 115.029 10.5988 114.954 10.5115Z" fill="#434847"/>
<path d="M120.179 17.0454C120.088 16.8921 119.974 16.7534 119.842 16.6339C119.717 16.4905 119.586 16.3596 119.456 16.2224C119.187 15.9481 118.926 15.6613 118.676 15.3745C118.177 14.7885 117.704 14.19 117.261 13.554C117.161 13.4106 116.918 13.554 117.018 13.6974C117.438 14.3564 117.9 14.9874 118.402 15.5865C118.651 15.8795 118.907 16.1663 119.175 16.4469C119.308 16.5939 119.45 16.7333 119.599 16.8646C119.73 16.9996 119.882 17.1132 120.048 17.2013C120.154 17.2512 120.216 17.1202 120.179 17.0454Z" fill="#434847"/>
<path d="M123.477 21.4594C123.408 21.316 123.321 21.1788 123.24 21.0417C123.078 20.7673 122.891 20.4993 122.704 20.2374C122.336 19.7199 121.937 19.2149 121.525 18.7286C121.426 18.6102 121.207 18.7723 121.301 18.9032C121.688 19.402 122.055 19.9194 122.398 20.4494L122.897 21.2412C122.984 21.3659 123.059 21.4968 123.146 21.6277C123.226 21.7695 123.324 21.8996 123.439 22.0143C123.46 22.0339 123.486 22.0464 123.514 22.0499C123.542 22.0534 123.571 22.0477 123.595 22.0337C123.62 22.0196 123.639 21.998 123.65 21.972C123.662 21.946 123.664 21.9171 123.658 21.8896C123.624 21.7364 123.563 21.5906 123.477 21.4594Z" fill="#434847"/>
<path d="M126.563 25.0317C126.414 24.8073 126.258 24.5828 126.089 24.3708C125.931 24.169 125.762 23.9755 125.584 23.791C125.402 23.5882 125.192 23.4119 124.961 23.2673C124.94 23.2573 124.916 23.254 124.894 23.258C124.871 23.2619 124.85 23.2728 124.833 23.2892C124.817 23.3056 124.806 23.3267 124.802 23.3496C124.798 23.3725 124.801 23.396 124.811 23.4169C124.948 23.6352 125.1 23.8435 125.266 24.0404C125.422 24.2399 125.584 24.4394 125.734 24.6639C125.884 24.8883 126.033 25.0691 126.17 25.2873C126.315 25.5097 126.48 25.7184 126.663 25.9108C126.687 25.9307 126.716 25.9428 126.747 25.9454C126.778 25.948 126.809 25.9409 126.835 25.9252C126.862 25.9094 126.883 25.8858 126.896 25.8575C126.908 25.8293 126.912 25.7978 126.906 25.7674C126.835 25.5042 126.719 25.2553 126.563 25.0317Z" fill="#434847"/>
<path d="M129.618 28.8351L129.512 28.6419C129.476 28.5798 129.434 28.5214 129.387 28.4673L129.125 28.1182C128.951 27.8875 128.764 27.663 128.583 27.4386C128.502 27.3326 128.327 27.4698 128.402 27.5758C128.571 27.8064 128.739 28.0496 128.913 28.2803L129.175 28.6232C129.218 28.684 129.263 28.7423 129.313 28.7977L129.468 28.9474C129.483 28.9672 129.505 28.9803 129.53 28.9838C129.555 28.9873 129.579 28.981 129.599 28.9661C129.619 28.9512 129.632 28.929 129.636 28.9045C129.639 28.8799 129.633 28.855 129.618 28.8351Z" fill="#434847"/>
<path d="M133.895 33.2557C133.784 33.0843 133.654 32.9255 133.509 32.7818C133.365 32.626 133.228 32.4639 133.085 32.3142C132.798 32.0087 132.53 31.6908 132.268 31.3666C132.249 31.345 132.225 31.3275 132.199 31.3153C132.173 31.3031 132.145 31.2964 132.116 31.2955C132.087 31.2947 132.058 31.2997 132.031 31.3104C132.004 31.321 131.98 31.3371 131.96 31.3575C131.939 31.3779 131.923 31.4023 131.912 31.4292C131.902 31.456 131.897 31.4847 131.898 31.5136C131.898 31.5425 131.905 31.5709 131.917 31.5971C131.93 31.6232 131.947 31.6466 131.969 31.6658C132.23 31.99 132.505 32.2893 132.792 32.6073C132.935 32.7569 133.085 32.8941 133.234 33.0312C133.389 33.1772 133.563 33.3009 133.752 33.3991C133.772 33.4098 133.795 33.4137 133.817 33.4104C133.84 33.407 133.86 33.3965 133.877 33.3805C133.893 33.3644 133.903 33.3436 133.906 33.3211C133.91 33.2987 133.906 33.2757 133.895 33.2557Z" fill="#434847"/>
<path d="M137.549 29.7888C137.526 29.7743 137.5 29.7645 137.474 29.76C137.447 29.7556 137.42 29.7566 137.394 29.763C137.367 29.7694 137.343 29.7811 137.321 29.7973C137.3 29.8136 137.282 29.834 137.268 29.8574C136.881 30.6967 136.262 31.4082 135.485 31.9086C135.285 32.0333 135.485 32.345 135.666 32.2203C136.517 31.7155 137.197 30.966 137.617 30.0694C137.645 30.023 137.653 29.9675 137.64 29.915C137.628 29.8625 137.595 29.8172 137.549 29.7888Z" fill="#434847"/>
<path d="M140.528 25.2998C140.392 25.4663 140.269 25.6435 140.161 25.8298L139.843 26.3722C139.624 26.7338 139.425 27.1016 139.219 27.4632C139.206 27.4988 139.206 27.5377 139.219 27.5733C139.232 27.6089 139.257 27.6389 139.289 27.6581C139.322 27.6773 139.36 27.6846 139.397 27.6786C139.435 27.6726 139.469 27.6538 139.494 27.6253C139.737 27.2824 139.992 26.9458 140.229 26.5966C140.348 26.4221 140.472 26.2537 140.585 26.0729C140.714 25.8999 140.824 25.7139 140.915 25.518C140.99 25.3061 140.678 25.144 140.528 25.2998Z" fill="#434847"/>
<path d="M143.496 21.0105C143.402 21.1114 143.317 21.2199 143.241 21.3347C143.172 21.4469 143.097 21.5591 143.035 21.6713L142.63 22.3509C142.606 22.3943 142.601 22.4448 142.613 22.4923C142.626 22.5398 142.656 22.5807 142.698 22.6065C142.719 22.6187 142.742 22.6266 142.766 22.6297C142.79 22.6328 142.814 22.6311 142.837 22.6247C142.861 22.6184 142.882 22.6074 142.901 22.5925C142.92 22.5776 142.936 22.559 142.948 22.538C143.091 22.3135 143.228 22.0891 143.365 21.8646L143.565 21.5217C143.628 21.4011 143.682 21.2761 143.727 21.1476C143.737 21.1179 143.737 21.0855 143.726 21.056C143.715 21.0265 143.694 21.0016 143.667 20.9856C143.64 20.9695 143.608 20.9632 143.577 20.9677C143.546 20.9723 143.518 20.9874 143.496 21.0105Z" fill="#434847"/>
<path d="M29.2345 55.4008C29.1472 55.2629 29.0237 55.1516 28.8775 55.0791C28.7313 55.0065 28.5679 54.9755 28.4053 54.9894C28.4079 54.9603 28.4079 54.9311 28.4053 54.9021C28.4119 54.8806 28.4119 54.8577 28.4054 54.8363C28.3988 54.8148 28.386 54.7958 28.3686 54.7818C28.3511 54.7677 28.3298 54.7591 28.3075 54.7572C28.2852 54.7553 28.2628 54.7602 28.2432 54.7711C28.152 54.8243 28.0717 54.8941 28.0063 54.9769C27.9309 55.0615 27.864 55.1534 27.8068 55.2512C27.698 55.4441 27.6261 55.6555 27.5948 55.8747C27.5682 56.073 27.6001 56.2748 27.6865 56.4553C27.7728 56.6358 27.91 56.7872 28.0811 56.8909C28.1641 56.9422 28.2567 56.9759 28.3532 56.9898C28.4498 57.0038 28.5481 56.9977 28.6422 56.972C28.8509 56.8996 29.0274 56.7561 29.141 56.5667C29.2663 56.4016 29.3418 56.2041 29.3583 55.9975C29.3749 55.7908 29.3319 55.5838 29.2345 55.4008ZM28.8667 56.255C28.8041 56.3809 28.7009 56.482 28.5736 56.5418C28.5333 56.5631 28.4883 56.5742 28.4427 56.5742C28.3971 56.5742 28.3521 56.5631 28.3118 56.5418C28.2094 56.4765 28.1283 56.3827 28.0784 56.2719C28.0286 56.1612 28.0122 56.0383 28.0312 55.9183C28.0638 55.7434 28.1294 55.5762 28.2245 55.4258C28.3554 55.4258 28.4489 55.3759 28.5674 55.4258C28.6775 55.4514 28.7748 55.5155 28.8417 55.6066C28.905 55.702 28.9408 55.8129 28.9452 55.9273C28.9496 56.0417 28.9224 56.155 28.8667 56.255Z" fill="#434847"/>
<path d="M30.55 56.4296C30.55 56.2363 30.55 56.0493 30.55 55.8622C30.55 55.4882 30.5063 55.1141 30.4876 54.7462C30.4876 54.7198 30.4771 54.6944 30.4584 54.6757C30.4397 54.657 30.4143 54.6465 30.3879 54.6465C30.3614 54.6465 30.3361 54.657 30.3173 54.6757C30.2986 54.6944 30.2881 54.7198 30.2881 54.7462C30.2881 55.1141 30.2383 55.4882 30.2195 55.8622C30.2195 56.043 30.2195 56.2238 30.2195 56.4046C30.1871 56.5804 30.2252 56.7618 30.3255 56.9096C30.3417 56.9245 30.3628 56.9328 30.3848 56.9328C30.4067 56.9328 30.4279 56.9245 30.444 56.9096C30.4933 56.841 30.5281 56.763 30.5463 56.6805C30.5645 56.598 30.5658 56.5126 30.55 56.4296Z" fill="#434847"/>
<path d="M44.2286 27.4319C44.064 27.3821 43.8883 27.3821 43.7236 27.4319C43.6321 27.4564 43.549 27.5054 43.4832 27.5734C43.4173 27.6415 43.3711 27.7262 43.3495 27.8184C43.3372 27.8526 43.3372 27.8901 43.3495 27.9244C43.2572 28.0956 43.2047 28.2855 43.1961 28.4798C43.1875 28.6741 43.2229 28.8679 43.2997 29.0466C43.3453 29.1336 43.408 29.2104 43.4841 29.2726C43.5602 29.3347 43.648 29.3809 43.7423 29.4082C43.8374 29.4309 43.9363 29.4326 44.0321 29.4133C44.128 29.3939 44.2184 29.3539 44.2972 29.296C44.8895 28.8471 45.0391 27.6812 44.2286 27.4319ZM44.1912 28.9095C44.1554 28.9544 44.1099 28.9907 44.0581 29.0155C44.0062 29.0404 43.9494 29.0531 43.892 29.0529H43.8358H43.7922C43.7452 29.0244 43.7031 28.9887 43.6675 28.9469C43.5919 28.797 43.5525 28.6315 43.5525 28.4637C43.5525 28.2958 43.5919 28.1303 43.6675 27.9805L43.7548 27.8994H43.8296H44.0104H44.0915H44.1289L44.1912 27.9369C44.2224 27.9369 44.1912 27.9369 44.1912 27.9369L44.2286 27.9743C44.2675 28.0165 44.2991 28.065 44.3221 28.1177C44.3221 28.1177 44.3221 28.1551 44.3221 28.1675C44.3243 28.1841 44.3243 28.2009 44.3221 28.2174C44.3221 28.2174 44.3221 28.2798 44.3221 28.2548C44.3612 28.4757 44.3144 28.7032 44.1912 28.8908V28.9095Z" fill="#434847"/>
<path d="M47.1714 28.8099C47.0839 28.7731 46.9886 28.7585 46.894 28.7672C46.7994 28.7759 46.7084 28.8077 46.629 28.8598L46.4233 28.9408C46.3616 28.9647 46.2962 28.9774 46.23 28.9782C46.1866 28.984 46.1425 28.984 46.0991 28.9782H46.043C46.043 28.9782 46.043 28.9782 46.043 28.9408C46.0396 28.9243 46.0396 28.9074 46.043 28.8909C46.0664 28.8013 46.1021 28.7153 46.149 28.6353C46.325 28.3238 46.4273 27.9762 46.4482 27.6191C46.4603 27.4662 46.4113 27.3148 46.312 27.1979C46.2127 27.0811 46.0711 27.0083 45.9183 26.9956C45.644 26.9956 45.2948 27.2013 45.4569 27.5006C45.4675 27.5231 45.4843 27.5421 45.5052 27.5554C45.5262 27.5687 45.5505 27.5758 45.5754 27.5758C45.6002 27.5758 45.6246 27.5687 45.6455 27.5554C45.6665 27.5421 45.6833 27.5231 45.6938 27.5006C45.7013 27.4696 45.7139 27.4401 45.7312 27.4133C45.7312 27.4133 45.7312 27.4133 45.7811 27.4133C45.8415 27.3914 45.9077 27.3914 45.9682 27.4133C45.9682 27.4133 46.0056 27.4445 46.0305 27.4881C46.043 27.5457 46.043 27.6052 46.0305 27.6627C46.0212 27.812 45.9831 27.9581 45.9183 28.0929C45.8587 28.2485 45.79 28.4005 45.7125 28.548C45.6201 28.6969 45.5806 28.8726 45.6003 29.0468C45.6434 29.1784 45.7268 29.2932 45.8387 29.3748C45.9506 29.4565 46.0853 29.501 46.2238 29.5019C46.3911 29.5038 46.557 29.4698 46.7101 29.4022C46.8958 29.3529 47.0655 29.2562 47.2026 29.1216C47.2231 29.1196 47.2429 29.1135 47.2611 29.1038C47.2792 29.0941 47.2952 29.0809 47.3083 29.0649C47.3213 29.049 47.3311 29.0307 47.337 29.011C47.3429 28.9913 47.3449 28.9706 47.3429 28.9502C47.3408 28.9297 47.3348 28.9098 47.3251 28.8917C47.3153 28.8736 47.3021 28.8575 47.2862 28.8445C47.2703 28.8315 47.252 28.8217 47.2323 28.8158C47.2126 28.8098 47.1919 28.8078 47.1714 28.8099Z" fill="#434847"/>
<path d="M61.4424 44.2223C61.3338 43.9778 61.1668 43.7637 60.9561 43.5988C60.7571 43.4071 60.4905 43.3018 60.2142 43.3058C60.1082 43.3058 60.0895 43.4679 60.1581 43.5302C60.3115 43.647 60.4742 43.7513 60.6444 43.842C60.7881 43.9348 60.9094 44.0583 60.9998 44.2036C61.0895 44.3404 61.1448 44.4969 61.1611 44.6597C61.1774 44.8225 61.1541 44.9869 61.0933 45.1388C61.0387 45.2778 60.9406 45.3954 60.8136 45.4741C60.6866 45.5527 60.5376 45.5882 60.3888 45.5752C60.2462 45.5692 60.1111 45.5103 60.0096 45.41C59.9082 45.3097 59.8478 45.1752 59.8401 45.0328C59.8425 44.8163 59.8937 44.6032 59.9898 44.4093C60.0803 44.195 60.1844 43.9868 60.3015 43.7858C60.3701 43.6736 60.2204 43.5676 60.1269 43.6487C59.743 43.9577 59.4965 44.4058 59.4411 44.8956C59.4289 45.1223 59.4964 45.3462 59.6319 45.5284C59.7674 45.7106 59.9624 45.8396 60.183 45.8931C60.3984 45.9433 60.6239 45.928 60.8305 45.8491C61.0371 45.7702 61.2155 45.6314 61.3427 45.4505C61.4554 45.2683 61.5232 45.0619 61.5405 44.8484C61.5578 44.6349 61.5242 44.4203 61.4424 44.2223Z" fill="#434847"/>
<path d="M63.4938 44.104C63.3048 43.9615 63.0943 43.85 62.8703 43.7736L63.313 43.2623C63.3445 43.2301 63.3646 43.1885 63.3702 43.1438C63.3757 43.0991 63.3665 43.0538 63.3438 43.0149C63.3212 42.9759 63.2864 42.9455 63.2448 42.9283C63.2031 42.911 63.157 42.9079 63.1135 42.9194L61.8665 43.1501C61.6795 43.1875 61.7169 43.5055 61.9102 43.4868L62.6583 43.387L62.3653 43.7112C62.3391 43.7381 62.3202 43.7713 62.3105 43.8076C62.3008 43.8439 62.3007 43.882 62.3101 43.9184C62.3195 43.9548 62.3381 43.9881 62.3642 44.0151C62.3902 44.0422 62.4228 44.0621 62.4588 44.0728C62.6823 44.1561 62.8923 44.2716 63.0823 44.4157C63.1645 44.4633 63.2348 44.529 63.2877 44.6079C63.3407 44.6868 63.3749 44.7767 63.3878 44.8709C63.3866 44.9818 63.3528 45.09 63.2908 45.1819C63.2287 45.2739 63.1411 45.3457 63.0387 45.3883C62.8998 45.4457 62.7523 45.4794 62.6022 45.4881C62.4339 45.4881 62.2282 45.432 62.0848 45.5317C62.0583 45.5476 62.0358 45.5691 62.0188 45.5948C62.0018 45.6205 61.9909 45.6497 61.9867 45.6802C61.9825 45.7108 61.9852 45.7418 61.9946 45.7712C62.004 45.8005 62.0199 45.8273 62.0411 45.8497C62.1845 46.0056 62.4962 45.9806 62.6646 45.9619C62.8811 45.955 63.0937 45.9018 63.288 45.8061C63.4546 45.7225 63.5963 45.5969 63.6991 45.4415C63.8019 45.2862 63.8623 45.1066 63.8741 44.9207C63.8764 44.7647 63.8433 44.6102 63.7775 44.4688C63.7116 44.3274 63.6146 44.2027 63.4938 44.104Z" fill="#434847"/>
<path d="M79.2859 7.15096C79.1186 7.05177 78.925 7.00609 78.731 7.02003C78.62 7.02493 78.5124 7.05937 78.4192 7.11979L78.3257 7.20707C78.318 7.19416 78.307 7.18348 78.2939 7.17606C78.2808 7.16864 78.266 7.16475 78.2509 7.16475C78.2359 7.16475 78.221 7.16864 78.2079 7.17606C78.1948 7.18348 78.1839 7.19416 78.1761 7.20707C78.045 7.41788 77.9585 7.65337 77.922 7.89895C77.8856 8.14453 77.8999 8.39498 77.9641 8.6348C78.0349 8.83079 78.1744 8.99443 78.3567 9.09533C78.539 9.19623 78.7518 9.22754 78.9554 9.18345C79.1554 9.09991 79.3301 8.9657 79.4624 8.79406C79.5947 8.62241 79.68 8.41925 79.7098 8.20461C79.7538 8.00671 79.7369 7.80013 79.6612 7.61206C79.5855 7.42398 79.4547 7.26323 79.2859 7.15096ZM78.9367 8.78443C78.8787 8.80877 78.8163 8.82129 78.7534 8.82127C78.6904 8.82125 78.6281 8.80868 78.57 8.78431C78.512 8.75993 78.4594 8.72422 78.4153 8.67929C78.3712 8.63435 78.3365 8.58107 78.3133 8.52258C78.1701 8.16866 78.1701 7.77296 78.3133 7.41905C78.3241 7.42368 78.3358 7.42607 78.3475 7.42607C78.3593 7.42607 78.371 7.42368 78.3818 7.41905C78.4414 7.41281 78.4988 7.39366 78.5502 7.36294L78.7247 7.31929C78.8354 7.30164 78.9487 7.31909 79.0489 7.36917C79.1629 7.42571 79.2568 7.51574 79.3181 7.62718C79.3794 7.73862 79.4051 7.86614 79.3918 7.99263C79.3861 8.15167 79.3416 8.3069 79.2623 8.44487C79.183 8.58284 79.0712 8.69939 78.9367 8.78443Z" fill="#434847"/>
<path d="M81.5428 6.52139L81.3745 7.56881C81.3226 7.54949 81.2678 7.53895 81.2124 7.53764C81.1501 7.53764 81.0752 7.53764 81.0129 7.56881C80.9036 7.58777 80.7933 7.60026 80.6825 7.60622C80.5662 7.61245 80.4496 7.61245 80.3333 7.60622H80.1213C80.1596 7.46334 80.2139 7.32529 80.2835 7.19473C80.3797 7.02256 80.4947 6.86156 80.6264 6.71467C80.6949 6.63362 80.5827 6.51516 80.5079 6.58998C80.3615 6.74489 80.2339 6.91648 80.1276 7.10121C80.0216 7.28202 79.9405 7.47529 79.847 7.66856C79.8379 7.68588 79.8328 7.705 79.8321 7.72454C79.8314 7.74408 79.8351 7.76353 79.8428 7.78147C79.8506 7.7994 79.8623 7.81537 79.877 7.8282C79.8918 7.84103 79.9092 7.8504 79.9281 7.8556C80.0523 7.88789 80.18 7.90464 80.3084 7.90548H80.6949C80.8259 7.90548 80.9506 7.90548 81.0815 7.86807C81.1454 7.86527 81.2085 7.85265 81.2685 7.83067C81.2685 7.83067 81.3122 7.79949 81.3371 7.78702L81.2997 8.02394C81.2623 8.26709 81.2373 8.51647 81.2062 8.75962C81.2062 8.88432 81.175 9.01524 81.1625 9.14617C81.1501 9.2771 81.1314 9.37685 81.2311 9.46414C81.2559 9.48102 81.2853 9.49005 81.3153 9.49005C81.3453 9.49005 81.3746 9.48102 81.3994 9.46414C81.5117 9.40179 81.5179 9.30203 81.5304 9.18358C81.5428 9.06512 81.5304 8.92172 81.5678 8.79703C81.5678 8.54765 81.6114 8.29826 81.6177 8.04888L81.6738 6.52763C81.6738 6.46528 81.5553 6.44658 81.5428 6.52139Z" fill="#434847"/>
<path d="M99.1869 36.8281C99.1541 36.6422 99.0771 36.4668 98.9624 36.3169C98.9064 36.2271 98.8307 36.1514 98.741 36.0952C98.6514 36.039 98.5501 36.004 98.445 35.9927C98.4265 35.9882 98.4073 35.9882 98.3889 35.9927C98.3796 35.9756 98.3666 35.9608 98.3509 35.9494C98.3352 35.9379 98.3171 35.9301 98.298 35.9266C98.2789 35.923 98.2592 35.9237 98.2404 35.9287C98.2216 35.9336 98.2042 35.9427 98.1894 35.9552C97.8764 36.1697 97.6421 36.4806 97.5222 36.8406C97.4672 37.0166 97.4743 37.2062 97.5424 37.3776C97.6105 37.549 97.7355 37.6917 97.8963 37.782C98.0411 37.8499 98.201 37.8792 98.3605 37.8672C98.5199 37.8552 98.6736 37.8022 98.8066 37.7134C98.9481 37.6178 99.0592 37.4835 99.1266 37.3266C99.1941 37.1696 99.215 36.9966 99.1869 36.8281ZM98.7941 37.0089C98.7969 37.04 98.7969 37.0713 98.7941 37.1024C98.7968 37.1147 98.7968 37.1275 98.7941 37.1398L98.7567 37.2084L98.5073 37.4079H98.4574H98.3639H98.2205H98.1332H98.0896C98.0896 37.4079 98.0522 37.358 98.0896 37.4079C98.0757 37.3937 98.0651 37.3767 98.0584 37.358C98.0572 37.3414 98.0572 37.3248 98.0584 37.3082V37.2271V37.1024C98.0584 37.0276 98.0958 36.9528 98.1208 36.878C98.1453 36.8066 98.1766 36.7377 98.2143 36.6722C98.2899 36.5398 98.3776 36.4146 98.4761 36.2982C98.4761 36.2982 98.6694 36.4914 98.7567 36.5912V36.6286C98.7757 36.6584 98.7924 36.6897 98.8066 36.7221V36.7533C98.8066 36.7221 98.8066 36.7533 98.8066 36.7533C98.8207 36.7853 98.8311 36.8187 98.8377 36.853C98.8377 36.853 98.8377 36.8842 98.8377 36.8967C98.8408 36.9278 98.8408 36.9591 98.8377 36.9902L98.7941 37.0089Z" fill="#434847"/>
<path d="M101.063 36.4662C100.932 36.4183 100.792 36.395 100.652 36.3976H100.471H100.378C100.378 36.3976 100.321 36.3976 100.346 36.3976C100.371 36.3976 100.278 36.354 100.346 36.3976V36.3478C100.345 36.3291 100.345 36.3103 100.346 36.2917C100.401 36.1848 100.486 36.0961 100.59 36.036C100.665 36.0043 100.742 35.9772 100.82 35.955H101.176C101.204 35.9641 101.234 35.9641 101.263 35.955C101.298 35.9585 101.334 35.9585 101.369 35.955C101.389 35.9463 101.406 35.9319 101.418 35.9136C101.43 35.8953 101.436 35.874 101.436 35.8521C101.436 35.8303 101.43 35.8089 101.418 35.7906C101.406 35.7724 101.389 35.758 101.369 35.7492C101.348 35.7311 101.325 35.7164 101.3 35.7056H101.244H101.157H101.088C100.985 35.7048 100.882 35.7195 100.783 35.7492C100.595 35.7953 100.416 35.8711 100.253 35.9737C100.238 35.9827 100.226 35.9945 100.216 36.0084C100.207 36.0224 100.2 36.0381 100.197 36.0547C100.129 36.0924 100.069 36.1432 100.021 36.2042C99.9726 36.2652 99.937 36.3352 99.9162 36.4101C99.8289 36.7405 100.103 36.965 100.396 37.0336C100.521 37.0336 100.646 37.0336 100.777 37.0336H100.814H100.895H100.926V37.0647C100.929 37.077 100.929 37.0899 100.926 37.1022V37.1832C100.926 37.1832 100.926 37.1832 100.926 37.2206C100.926 37.258 100.926 37.2705 100.926 37.2206C100.902 37.2757 100.863 37.3231 100.814 37.3578C100.76 37.4008 100.699 37.4346 100.633 37.4575L100.409 37.5323H100.353H100.253C100.238 37.4959 100.213 37.4643 100.181 37.4411C100.149 37.418 100.111 37.4043 100.072 37.4014C100.035 37.4013 99.9989 37.411 99.9671 37.4297C99.9353 37.4483 99.9091 37.4752 99.8912 37.5074C99.8714 37.5504 99.861 37.5972 99.8608 37.6446C99.8607 37.6919 99.8707 37.7388 99.8902 37.7819C99.9097 37.8251 99.9383 37.8636 99.9739 37.8947C100.01 37.9259 100.052 37.949 100.097 37.9625C100.236 38.0136 100.388 38.0136 100.527 37.9625C100.704 37.9288 100.87 37.855 101.014 37.747C101.158 37.6389 101.275 37.4994 101.356 37.3391C101.398 37.2633 101.424 37.1797 101.432 37.0934C101.44 37.0071 101.43 36.9202 101.402 36.838C101.375 36.7559 101.33 36.6804 101.272 36.6164C101.214 36.5524 101.143 36.5012 101.063 36.4662Z" fill="#434847"/>
<path d="M111.506 3.11745C111.355 2.94308 111.144 2.83184 110.914 2.80572C110.795 2.78439 110.673 2.80188 110.565 2.8556C110.473 2.92371 110.4 3.01376 110.353 3.11745C110.278 3.22967 110.428 3.37307 110.54 3.30449C110.54 3.30449 110.571 3.30449 110.59 3.30449C110.516 3.36815 110.451 3.44155 110.397 3.5227C110.324 3.62674 110.265 3.73994 110.222 3.85937C110.134 4.08339 110.094 4.32336 110.104 4.56388C110.104 4.99407 110.378 5.50531 110.87 5.48661C111.363 5.4679 111.619 4.96913 111.718 4.56388C111.805 4.32401 111.831 4.0664 111.794 3.81403C111.757 3.56166 111.658 3.32236 111.506 3.11745ZM111.294 4.27709C111.263 4.42798 111.208 4.57309 111.132 4.70728C111.101 4.76881 111.059 4.82385 111.008 4.86938C110.971 4.90279 110.928 4.93014 110.883 4.95043C110.842 4.96086 110.799 4.95935 110.76 4.94608C110.72 4.93281 110.685 4.90834 110.658 4.87561C110.577 4.77018 110.531 4.64124 110.528 4.50777C110.512 4.3127 110.531 4.11645 110.584 3.92795C110.584 3.8282 110.652 3.72844 110.69 3.63492C110.742 3.54146 110.786 3.44337 110.821 3.3419C110.828 3.3188 110.828 3.29412 110.821 3.27088C110.815 3.24763 110.801 3.22682 110.783 3.21097H110.864C110.976 3.23265 111.079 3.28439 111.163 3.3606C111.261 3.49354 111.324 3.64853 111.347 3.81172C111.369 3.97492 111.351 4.14123 111.294 4.29579V4.27709Z" fill="#434847"/>
<path d="M113.657 4.04007C113.575 3.95312 113.47 3.89161 113.354 3.86287C113.238 3.83412 113.116 3.83937 113.003 3.87797C112.866 3.91303 112.739 3.97829 112.632 4.06894C112.524 4.15958 112.437 4.27329 112.379 4.40168C112.373 4.42499 112.373 4.44957 112.379 4.47292C112.385 4.49626 112.398 4.51756 112.415 4.53464C112.432 4.55172 112.453 4.56399 112.476 4.5702C112.5 4.57642 112.524 4.57635 112.548 4.57001C112.803 4.48273 113.04 4.0276 113.358 4.23958C113.676 4.45155 113.109 4.75705 112.94 4.8194C112.827 4.87046 112.698 4.87489 112.581 4.83174C112.465 4.78858 112.37 4.70129 112.317 4.58872C112.248 4.4697 112.207 4.33652 112.197 4.19931C112.188 4.06209 112.209 3.92447 112.261 3.79692C112.433 3.42625 112.672 3.09027 112.965 2.80562C113.04 2.71833 112.965 2.55623 112.834 2.63728C112.415 2.88908 112.077 3.25725 111.862 3.69717C111.769 3.89824 111.734 4.12082 111.759 4.34068C111.784 4.56055 111.87 4.76926 112.005 4.94409C112.129 5.1305 112.32 5.26225 112.538 5.31214C112.756 5.36203 112.985 5.32625 113.177 5.21218C113.558 4.98773 114.019 4.41415 113.657 4.04007Z" fill="#434847"/>
<path d="M143.515 17.5069C143.462 17.4106 143.382 17.3324 143.284 17.2823C143.186 17.2323 143.075 17.2128 142.966 17.2264C142.946 17.2329 142.928 17.2441 142.913 17.2592C142.898 17.2743 142.888 17.2927 142.881 17.3129C142.875 17.3331 142.874 17.3545 142.878 17.3753C142.882 17.396 142.891 17.4155 142.904 17.4321C142.82 17.4164 142.733 17.4164 142.648 17.4321C142.558 17.4698 142.474 17.5202 142.399 17.5817C142.278 17.7053 142.179 17.8487 142.106 18.0057C141.938 18.3361 141.726 18.8224 142.037 19.1341C142.349 19.4459 142.885 19.2464 143.185 19.0344C143.345 18.9282 143.477 18.7838 143.569 18.6141C143.66 18.4443 143.708 18.2546 143.708 18.0618C143.697 17.8624 143.63 17.6703 143.515 17.5069ZM143.022 18.598C142.929 18.6703 142.827 18.7291 142.717 18.7725C142.652 18.7978 142.586 18.8166 142.517 18.8287H142.362C142.362 18.8287 142.362 18.8661 142.362 18.8287V18.704C142.358 18.6749 142.358 18.6457 142.362 18.6167C142.395 18.4832 142.436 18.352 142.486 18.2239L142.574 18.0493C142.603 17.9952 142.637 17.9431 142.673 17.8935C142.753 17.7799 142.857 17.6861 142.979 17.6191C142.999 17.6121 143.015 17.5981 143.025 17.5797C143.036 17.5614 143.039 17.54 143.035 17.5194C143.088 17.5701 143.138 17.6243 143.185 17.6815C143.247 17.7664 143.29 17.8645 143.309 17.9683C143.323 18.0894 143.303 18.2119 143.253 18.3228C143.202 18.4337 143.123 18.5288 143.022 18.598Z" fill="#434847"/>
<path d="M145.198 18.1923C145.217 17.9266 145.217 17.6599 145.198 17.3942C145.167 17.1262 145.011 16.883 144.712 16.8955C144.413 16.9079 144.269 17.0638 144.045 17.0326C144.009 17.0243 143.972 17.0292 143.94 17.0464C143.908 17.0636 143.883 17.092 143.87 17.1262C143.862 17.1624 143.868 17.2004 143.886 17.2327C143.905 17.265 143.935 17.2892 143.97 17.3007C144.18 17.3185 144.392 17.2952 144.593 17.2321C144.656 17.2321 144.743 17.201 144.793 17.2321C144.843 17.2633 144.824 17.4815 144.824 17.5688C144.824 17.787 144.824 18.0052 144.824 18.2235H144.793L144.388 18.3232C144.371 18.3277 144.355 18.3355 144.341 18.3461C144.328 18.3566 144.316 18.3698 144.307 18.3849C144.299 18.3999 144.293 18.4166 144.291 18.4338C144.289 18.451 144.29 18.4685 144.294 18.4853C144.299 18.5021 144.306 18.5178 144.317 18.5316C144.328 18.5454 144.341 18.557 144.356 18.5656C144.371 18.5743 144.388 18.58 144.405 18.5822C144.422 18.5845 144.439 18.5833 144.456 18.5788L144.818 18.4915C144.818 18.6412 144.818 18.797 144.818 18.9467C144.78 19.1066 144.78 19.2731 144.818 19.433C144.834 19.4601 144.857 19.4826 144.884 19.4983C144.911 19.5139 144.942 19.5221 144.974 19.5221C145.005 19.5221 145.036 19.5139 145.064 19.4983C145.091 19.4826 145.114 19.4601 145.13 19.433C145.193 19.264 145.217 19.0826 145.198 18.903C145.198 18.7285 145.198 18.5539 145.198 18.3793H145.248C145.268 18.3685 145.283 18.3516 145.292 18.3311C145.3 18.3106 145.302 18.2878 145.296 18.2663C145.29 18.2448 145.278 18.2258 145.26 18.2124C145.242 18.199 145.22 18.1919 145.198 18.1923Z" fill="#434847"/>
</g>
<defs>
<clipPath id="clip0_937_815">
<rect width="152" height="60.1641" fill="white"/>
</clipPath>
</defs>
</svg>
