<svg width="84" height="73" viewBox="0 0 84 73" fill="none" xmlns="http://www.w3.org/2000/svg">
<g clip-path="url(#clip0_937_242)">
<path d="M56.2578 35.2153L56.2684 35.2129L56.2578 35.2153Z" fill="#373737"/>
<path d="M56.3178 35.2018L56.2703 35.2135H56.2735L56.2111 35.2287L56.2541 35.2183L56.1616 35.2407L56.1911 35.2335L56.1565 35.2419L56.1646 35.24C55.7138 35.3289 55.2031 35.3642 54.6476 35.3658C55.0395 35.4234 56.2347 36.0022 56.7301 35.5715C56.6089 37.0063 56.2823 38.5097 56.7896 39.9694C56.5723 40.1486 56.6027 40.557 56.5976 41.4919C56.4207 41.4738 56.2221 41.4531 55.9815 41.4298C55.946 41.2119 55.9873 40.9415 55.9295 40.6298C54.7724 42.3227 57.5506 42.0326 57.7443 41.5799C57.3203 41.564 57.0283 41.5362 56.6257 41.4948C56.8915 41.1892 56.6512 40.3332 57.244 40.3167C60.5457 40.5108 63.7591 41.045 67.0822 40.4826C67.186 40.4419 67.6319 40.418 67.2497 40.3856C64.1313 39.9594 61.1837 39.8892 57.9797 39.8268C57.4988 39.8288 57.1855 39.8268 56.9814 39.8789C57.0212 39.3861 57.0526 38.8806 57.0648 38.369C58.9793 37.7633 57.8177 34.9535 58.4295 33.9918C57.0584 34.516 58.348 37.3264 57.0661 38.3024C57.0855 37.351 57.0361 36.3809 56.8433 35.4356C56.8699 35.3897 56.891 35.3407 56.9061 35.2898C57.5205 31.7954 56.2557 27.344 57.0277 24.1073C58.5411 19.5684 62.2257 17.8813 65.8038 21.4902C67.0951 23.1032 64.9003 18.1594 61.306 18.6513C53.8262 20.4806 56.4042 29.6863 56.3178 35.2018ZM56.3146 35.2297L56.3013 35.2419L56.3146 35.2293V35.2297ZM55.9776 41.425C55.9776 41.4211 55.9744 41.4172 55.9731 41.413L55.978 41.4253L55.9776 41.425ZM57.0545 40.3167L57.018 40.331C57.0286 40.3255 57.017 40.3319 57.0535 40.3177L57.0545 40.3167ZM56.3431 35.1934C56.3469 35.187 56.3508 35.1805 56.3544 35.174C56.3506 35.1811 56.3462 35.1879 56.3414 35.1944L56.3431 35.1934Z" fill="#373737"/>
<path d="M69.9179 36.1073C69.3523 36.0174 68.7279 36.061 68.0423 35.9207C68.3375 27.5251 68.4717 24.1448 66.6123 22.6152C67.9569 24.6525 67.2161 32.5608 67.4208 34.0105C67.4305 34.2724 67.434 34.5091 67.4353 34.7219C67.2507 35.964 67.1058 37.2462 67.2397 38.5627C67.2397 38.5543 67.2397 38.5459 67.2371 38.5375C67.2371 38.5501 67.2371 38.5498 67.2442 38.6089L67.2422 38.5869C67.8593 42.9202 67.8347 38.1313 67.6471 36.3679C67.9146 36.5684 68.528 36.41 69.9179 36.1073ZM68.0336 35.9178V35.9139V35.9178Z" fill="#373737"/>
<path d="M59.2153 17.4539C52.3742 18.9068 54.3055 30.7202 54.6974 35.1812C55.9055 29.3474 52.5679 19.3237 60.7595 17.4416C61.3506 17.343 59.4055 17.3378 59.2153 17.4539Z" fill="#373737"/>
<path d="M62.0517 17.0372C60.1738 17.2251 65.0591 17.0534 67.0276 20.3386C69.927 25.1734 68.324 30.6521 69.513 35.3537C69.8364 31.8237 70.0951 28.1902 69.4329 24.5774C69.439 24.614 69.4448 24.6505 69.4506 24.6871C68.5995 20.3366 66.8959 16.9285 62.0517 17.0372Z" fill="#373737"/>
<path d="M56.9102 41.3089C59.8206 41.912 62.6792 41.9734 65.6928 42.0526C66.8162 41.8812 68.59 42.6522 67.6464 40.7827C67.6515 41.0227 67.7068 41.3195 67.636 41.6652C64.3815 41.3396 59.2032 40.7429 56.9102 41.3089ZM67.6515 41.651C67.6473 41.6568 67.6431 41.662 67.6386 41.6672L67.6515 41.651Z" fill="#373737"/>
<path d="M62.6067 43.0887C65.4783 44.1559 68.3531 45.4947 71.5336 45.6531C68.716 44.4954 65.5759 43.5929 62.4935 43.0464L62.5666 43.0735C62.4867 43.0638 62.2898 43.0826 61.9586 43.1382C58.817 43.7287 55.3876 43.7248 52.417 45.2919C57.4413 44.7367 62.7127 43.2663 62.6067 43.0887Z" fill="#373737"/>
<path d="M52.6406 47.9627C52.6406 47.9507 52.6406 47.9388 52.6406 47.9271V47.8857C52.6422 47.9113 52.6416 47.9372 52.6406 47.9627Z" fill="#373737"/>
<path d="M54.5269 57.4216C54.5411 57.5086 54.5557 57.5953 54.5712 57.6803C54.5859 57.5924 54.6001 57.5033 54.6139 57.4132L54.6572 57.4103L54.6155 57.4035C55.1148 54.1642 55.0964 49.6608 54.7449 47.4224C54.8477 47.4402 54.9819 47.4683 55.186 47.5026C62.2838 48.3078 77.2518 47.5996 65.5341 47.2461H65.5522C65.0167 47.228 64.4327 47.2251 63.8179 47.2316C60.8428 47.3522 57.8079 47.1165 54.7439 47.4143V47.4069V47.4146L54.7193 47.4169L54.7433 47.4211C54.3934 50.6733 53.9768 54.0504 54.5227 57.3906C54.0745 57.321 53.5526 57.2489 53.0274 57.126C52.889 53.2022 53.6819 49.2129 52.934 45.2632C52.7558 46.0956 52.6843 46.9693 52.6429 47.9269C52.3971 59.3641 51.8309 57.6541 54.5269 57.4216Z" fill="#373737"/>
<path d="M71.5682 57.5893C71.2551 57.565 70.8276 57.5825 70.4405 57.4373C70.4541 54.7733 70.7348 48.5958 69.8371 47.7227C69.9283 49.3396 69.8048 50.9936 69.7592 52.6671C69.7472 51.1398 69.6386 49.6083 69.3883 48.0852C69.2337 49.0634 69.1373 50.4193 69.0911 51.8428C68.4728 51.6989 67.8445 51.5974 67.1421 51.6368C64.1059 51.8923 67.5026 52.2011 69.0824 52.0896C69.008 54.697 69.0982 57.4693 69.3052 58.5294C69.3074 58.5581 69.31 58.5885 69.3123 58.6202C69.1774 59.5331 69.2327 60.4858 69.3989 61.4508C68.2151 61.3056 66.6502 61.2422 65.0501 61.2128C65.4527 59.2589 65.0547 57.1954 65.0071 55.1361C65.0071 52.7942 65.3221 50.3501 64.8991 47.9471C63.7608 54.0635 64.4997 57.1864 64.967 61.2115C63.656 61.1885 62.326 61.1879 61.167 61.1833C60.4908 61.1694 59.8143 61.1707 59.1371 61.1937C59.3076 58.0947 59.4379 54.9091 59.1019 51.7691L59.132 51.7652C59.2613 51.7374 59.2254 51.6963 59.089 51.6517C58.9532 50.3793 58.7262 49.1182 58.4099 47.8782C58.2925 49.0773 58.2931 50.2845 58.352 51.5036C57.68 51.4066 56.835 51.3526 56.6795 51.4713C53.3713 52.0815 56.6439 51.9696 58.3694 51.837C58.4293 52.899 58.5292 53.9713 58.6281 55.053C58.7898 57.1227 58.4926 59.136 58.9567 61.1992C57.454 61.259 55.9493 61.4297 54.4326 61.7874C59.9259 62.1926 66.8391 62.1066 69.419 61.5659L69.4229 61.5885L69.4303 61.5636C69.537 61.541 69.6373 61.5177 69.7288 61.4934C69.6421 61.4808 69.5525 61.4689 69.4607 61.4572C69.7944 60.2653 69.8688 58.953 69.5351 57.6462C69.5218 57.6882 69.5089 57.7303 69.4966 57.7723C69.6192 56.5267 69.7104 55.2674 69.744 54.0027C69.7475 54.8326 69.8063 55.6613 69.9199 56.4833C69.8992 57.825 70.1059 58.0385 71.5682 57.5893Z" fill="#373737"/>
<path d="M71.8459 45.9521C71.6538 49.7299 71.1422 53.6715 71.755 57.5291C72.3381 53.7838 72.4729 49.803 71.8459 45.9521Z" fill="#373737"/>
<path d="M74.7334 58.0051L74.7419 58.002H74.739L74.7334 58.0051Z" fill="#373737"/>
<path d="M74.3511 55.1524C74.1127 55.0515 73.5171 58.8211 74.7349 58.0056L74.7155 58.012L74.7511 57.9997L74.7446 58.002C74.824 57.9804 74.8952 57.9601 74.9584 57.9409C75.1576 58.0298 75.3561 58.1996 75.2109 58.7264C74.9335 60.8607 75.1185 62.852 75.3642 65.0232C75.2617 65.051 74.7779 65.1526 74.7175 65.2344C76.1788 65.6079 75.5515 64.2381 75.817 63.2336C75.7746 61.7461 76.1565 58.4318 75.1783 57.8707C75.4237 57.7802 75.2711 57.752 74.528 57.7291C74.6334 57.0335 74.5574 56.3583 74.4717 55.5427C74.4717 55.545 74.4717 55.5476 74.4717 55.5498C74.4642 55.4878 74.4614 55.4253 74.4633 55.3629C74.8685 55.2336 75.1915 55.1957 74.3511 55.1524ZM75.2426 58.1339L75.2342 58.1213C75.2374 58.1253 75.2402 58.1295 75.2426 58.1339Z" fill="#373737"/>
<path d="M75.3027 54.826C75.346 54.9308 75.2014 55.6797 75.3392 55.3298C76.5131 51.2798 75.6331 47.0837 75.7004 42.8823C75.1578 46.7664 75.1423 50.8206 75.3027 54.826Z" fill="#373737"/>
<path d="M74.6899 65.9869C74.6613 65.7412 74.6118 65.4985 74.5418 65.2612C74.2417 65.9261 74.6705 68.224 74.6899 65.9869Z" fill="#373737"/>
<path d="M74.691 66.0006C74.691 65.9942 74.691 65.9878 74.691 65.9814V65.9863C74.6901 65.9912 74.6904 65.9964 74.691 66.0006Z" fill="#373737"/>
<path d="M78.0969 39.582C76.8296 47.7234 77.6287 64.502 78.1354 66.7863C78.6205 61.7119 77.9789 56.5236 78.0458 51.3514C77.9831 47.3124 78.6311 43.6123 78.0969 39.582Z" fill="#373737"/>
<path d="M75.84 27.1084C75.6784 28.1351 74.835 33.6876 76.384 32.797C76.3005 32.7672 76.2482 32.8148 75.9814 32.7106C75.9025 30.945 76.5052 28.9481 75.84 27.1084Z" fill="#373737"/>
<path d="M76.3299 32.5642C76.5887 31.6862 76.8001 30.6368 76.7125 29.6246L76.7144 29.6867C76.6918 29.2705 76.7238 28.8055 76.438 28.292C76.209 29.6334 76.1113 31.0873 76.3299 32.5642Z" fill="#373737"/>
<path d="M83.6701 34.3332L83.6646 34.3423L83.673 34.3277C83.7164 34.3762 83.7594 34.4247 83.8024 34.4697C83.7882 34.3891 83.7675 34.3028 83.7416 34.211L83.7574 34.1841L83.7374 34.1967C83.3775 32.9459 82.0057 30.7718 81.118 29.3936C67.3003 7.44258 66.5003 3.55717 63.2759 0C66.4592 6.69395 71.0554 12.832 74.7115 19.3504C79.2114 26.6788 81.6412 32.0062 83.6245 34.273C82.6353 35.0032 83.2562 36.375 83.5482 36.7307C83.4105 36.7175 83.1104 36.7521 82.6036 36.853C81.3977 37.0202 78.9963 37.6543 78.4272 38.239C78.5494 36.6589 78.4919 35.0741 78.3981 33.4235C78.3981 33.4523 78.3981 33.4808 78.3981 33.5095C78.3968 33.3459 78.3946 33.1824 78.3916 33.019C78.3916 33.0461 78.3916 33.073 78.3916 33.0998C78.3777 32.2109 78.2694 31.286 78.1116 30.2864C77.426 33.3116 77.8642 37.4933 78.1982 40.0593C78.303 39.4681 78.3748 38.8796 78.422 38.2904C80.0263 38.2965 83.3995 37.1262 83.6258 36.807C83.6853 36.8423 83.6979 36.7724 83.6126 36.5538C83.5298 35.8747 83.305 35.0783 83.6701 34.3332Z" fill="#373737"/>
<path d="M62.4864 4.46267C63.0507 3.58275 63.4242 2.96122 63.5536 2.68408C56.7031 11.4907 49.7453 21.6813 49.2534 23.0276C49.4885 22.7957 49.8187 22.4474 50.0839 22.1434C54.7919 15.8611 60.1581 8.08711 62.4586 4.50309C63.9057 7.75532 65.7995 10.7767 67.7184 13.8048C65.7616 13.6402 62.7173 13.0338 60.5445 12.9756C60.2212 12.9229 56.8296 13.2841 57.6244 13.3411C61.2498 13.7977 64.5632 14.6908 67.8487 14.0108C68.7606 15.4498 69.6758 16.8921 70.5492 18.3641C73.579 22.9904 75.3117 26.6665 77.5876 29.544C78.2606 30.3783 77.9666 29.9731 77.7535 29.4017C77.4301 28.8313 77.1077 28.266 76.7863 27.7059C77.0356 27.6933 77.412 27.5982 77.618 27.4297C81.364 33.6752 85.5062 40.309 81.7699 33.1335C69.8721 14.0619 65.6332 5.96283 63.4841 3.48348C66.4268 9.54328 70.4574 15.1397 73.8322 21.0129C74.5407 22.2453 75.6755 24.1756 76.9143 26.2533C76.7235 26.2937 76.4014 26.359 76.0461 26.415C69.4688 14.9693 63.9562 6.10899 62.4864 4.46267ZM77.0983 26.6724C77.154 26.7998 77.1737 26.9977 77.2481 27.2684C76.9693 27.3654 76.7863 27.4462 76.6763 27.5106C76.4954 27.195 76.3154 26.8811 76.1363 26.5689C76.4514 26.6435 76.7746 26.6782 77.0983 26.6724Z" fill="#373737"/>
<path d="M47.4682 25.5679C45.2081 27.977 43.2384 30.6734 41.7603 33.6879C44.0537 31.3347 45.9525 28.5362 47.4682 25.5679Z" fill="#373737"/>
<path d="M42.9617 30.1011C57.9342 7.75199 61.1958 4.61877 63.281 0.310059C58.6922 5.65002 55.189 12.0125 51.0106 17.7334C48.7163 21.038 37.1338 37.1029 42.9617 30.1011Z" fill="#373737"/>
<path d="M15.5533 34.7315C17.2365 35.0662 18.8948 35.1981 20.5579 35.2719C19.5784 36.2097 19.6718 36.6343 20.3289 37.9385C20.4412 36.3371 20.0877 36.7665 20.7691 35.2809C20.9551 35.2887 21.1413 35.2958 21.3275 35.3023C20.7645 36.049 20.5149 36.9945 20.6866 38.0274C20.6028 38.1425 20.5482 38.2095 20.522 38.247C20.5016 38.2628 20.4793 38.2793 20.4541 38.3023C21.0614 38.4142 21.2887 36.0852 21.442 35.3062C22.8836 35.3556 24.3327 35.3805 25.8096 35.4737C30.9128 35.6143 35.174 36.1583 38.9168 35.797C39.537 35.7301 39.5464 35.7624 38.911 35.6373C31.6919 34.7383 24.5484 34.7474 17.2843 34.4951C16.95 34.5152 14.6679 34.5824 15.5533 34.7315ZM20.6737 38.1131L20.6775 38.1092L20.6737 38.1131ZM20.6779 38.1089L20.6824 38.1044L20.6779 38.1089Z" fill="#373737"/>
<path d="M38.294 33.3634C38.5938 33.3171 39.1135 33.3508 38.4619 33.2424C31.5758 32.4579 24.7903 32.4712 17.8752 32.0527C5.428 32.4182 38.901 33.6842 38.294 33.3634Z" fill="#373737"/>
<path d="M8.53735 38.5912C9.55696 27.4915 10.5449 18.3699 10.7887 13.7572C11.0594 16.3026 11.6964 18.8498 12.1922 21.3848C12.3115 21.9423 12.4221 22.4995 12.5288 23.0557C9.82019 36.1147 9.76392 46.2032 10.9879 37.3529C11.1283 35.7684 11.3081 34.1897 11.5037 32.609C11.6673 32.4111 11.8112 32.1756 11.8737 31.9438C11.7737 32.0392 11.6567 32.1488 11.5454 32.2743C11.906 29.3978 12.3151 26.5181 12.6329 23.6077C13.1685 26.4599 13.6354 29.2921 14.6683 32.0802C14.7543 32.2743 14.7947 32.5417 14.7815 32.2219C14.7035 29.8079 14.2764 27.5743 13.7467 25.1848C12.6148 20.1256 12.1217 15.8566 10.8434 12.3205C10.8553 11.6071 10.833 11.0916 10.7709 10.7954C9.71057 14.8716 9.73385 19.1978 9.24458 23.4166C8.62304 30.831 7.86245 36.2661 7.80942 40.2184V40.1576C7.80392 40.6776 7.82591 41.3936 7.8741 41.9899C8.16675 40.8982 8.36757 39.7754 8.53735 38.5912Z" fill="#373737"/>
<path d="M37.5547 13.8854C33.6858 12.8619 29.6526 12.826 25.6382 12.3891C20.0382 11.9603 15.4194 11.1742 11.6494 11.4982C15.3188 12.4968 19.2055 12.5217 23.0036 12.9382C28.9298 13.4181 33.4293 14.1822 37.5547 13.8854Z" fill="#373737"/>
<path d="M45.7061 14.9269C46.3308 14.9294 47.1341 14.9078 47.7925 14.8273C46.2775 14.3891 44.6826 14.076 43.0185 14.1174C38.6383 14.1116 45.1415 15.0601 45.7061 14.9269Z" fill="#373737"/>
<path d="M40.2324 31.5956L40.2289 31.6021C40.2289 31.5992 40.2328 31.595 40.2363 31.5892C42.2607 27.9382 44.0664 24.0493 45.1944 19.9595C42.716 23.4652 38.5062 35.0125 40.2324 31.5956ZM40.2263 31.606L40.2234 31.6112L40.2263 31.606Z" fill="#373737"/>
<path d="M40.2393 31.585L40.2363 31.5899L40.2393 31.585Z" fill="#373737"/>
<path d="M40.2325 31.5963L40.2355 31.5913V31.5943L40.2325 31.5963Z" fill="#373737"/>
<path d="M47.7365 13.6555C54.7234 8.55875 61.9975 1.90231 63.2079 0.348145C60.638 1.81047 58.4953 3.95803 56.2087 5.87793C53.3306 8.43489 50.3177 10.5993 47.7581 13.4631C47.6058 13.6743 47.1964 14.008 47.7365 13.6555Z" fill="#373737"/>
<path d="M47.7427 54.1805C48.2688 50.4467 48.3138 46.5254 47.7022 42.7302C47.9004 42.7292 48.0981 42.7138 48.294 42.6843C48.391 42.8615 48.4082 43.1173 48.4648 43.4009C49.0191 41.9328 47.9383 42.3176 46.813 42.2432C46.4807 42.2396 46.1485 42.2558 45.8182 42.2917C46.3946 42.5793 47.0297 42.7294 47.6738 42.7302C47.5347 43.6422 47.4332 44.5642 47.3692 45.4964C46.6762 45.3884 45.9786 45.3118 45.2769 45.2584C45.7765 41.2741 45.4994 37.2001 45.4564 33.1349C45.4564 33.1414 45.4564 33.1479 45.4564 33.154C45.3959 32.0936 45.2924 30.9227 45.0806 29.8122C44.3659 35.3759 44.6719 42.3396 45.0311 45.2406C42.1117 45.0395 39.134 45.2118 36.178 45.0883C25.7551 44.8493 15.516 44.2152 5.1384 43.8763C4.48647 43.9151 3.98426 43.9526 3.61528 43.9888C8.28553 42.9013 12.8335 40.995 17.279 39.1281L17.0414 39.1928C17.3554 38.6408 17.2496 36.1689 16.8962 35.0571C16.5168 36.3804 16.6342 37.7977 17.008 39.2018C15.7737 39.5349 14.5626 39.8809 13.3975 40.2299C13.3176 36.4256 13.5443 32.5224 13.4234 28.6357C12.4497 32.3844 12.9558 36.3571 13.3894 40.2321C8.66324 41.6489 4.69052 43.1251 2.9543 44.0803C2.83271 44.1078 2.78808 44.1343 2.81233 44.1602L2.78711 44.1748L2.81945 44.1673C3.46621 44.6168 24.9868 44.8396 24.5797 44.8991C33.7772 45.0346 41.2444 45.5711 45.0819 45.63C45.1078 45.8065 45.1333 45.9618 45.1585 46.0934C45.1823 45.9399 45.2046 45.7861 45.2255 45.6319C46.193 45.6442 46.9164 45.6235 47.3633 45.5553C47.1722 48.4104 47.319 51.3337 47.7427 54.1805Z" fill="#373737"/>
<path d="M7.73804 63.8911C8.21018 62.4682 8.21697 58.9712 8.21179 56.7845C8.15488 53.5287 8.38933 50.3567 7.7914 47.1274C7.67046 47.782 7.55663 48.5739 7.49616 49.3309C7.49616 49.3132 7.49907 49.2951 7.50068 49.2773C7.31668 54.085 7.0777 59.0466 7.73804 63.8911Z" fill="#373737"/>
<path d="M6.65242 65.3667C7.46734 58.2524 7.0311 49.0755 6.65048 47.3545C5.93 52.8167 6.15765 58.449 6.41474 63.9836C6.47004 64.3242 6.59745 65.8651 6.65242 65.3667Z" fill="#373737"/>
<path d="M19.8744 72.0063C17.4543 71.9571 6.45581 72.5505 9.56478 72.8193C16.1449 73.4968 32.5645 72.0613 19.8744 72.0063Z" fill="#373737"/>
<path d="M9.62538 71.4393C16.3659 72.1358 28.7022 70.6991 17.1449 70.7249C15.5684 70.6412 7.14764 71.2695 9.62538 71.4393Z" fill="#373737"/>
<path d="M9.89355 69.6707C13.3178 70.1037 16.5969 69.9779 20.0228 69.3521C18.4327 69.1313 16.778 69.0611 15.0831 69.0967C13.4905 69.1613 10.7964 69.2674 9.89355 69.6707Z" fill="#373737"/>
<path d="M17.4656 67.7823C15.9289 67.5757 14.3611 67.5007 12.7578 67.5065C11.974 67.4741 8.98529 67.7859 8.23052 67.9818C8.16164 67.2995 8.06883 66.6097 7.93948 65.9028C7.33573 67.5382 7.70697 69.5056 8.39771 71.1704C8.38509 70.1482 8.34144 69.1379 8.24216 68.1112C8.30231 68.117 8.37766 68.1219 8.46853 68.1257C11.4992 68.5565 14.4637 68.3301 17.4656 67.7823Z" fill="#373737"/>
<path d="M18.1099 66.4075C17.2461 66.1164 14.2293 66.0252 12.5917 66.0259C11.2397 66.0637 9.77444 66.1957 8.38391 66.4602C11.5453 67.0138 14.8664 66.8673 18.1099 66.4075Z" fill="#373737"/>
<path d="M74.2373 70.5609L74.3379 70.5586L74.2373 70.5609Z" fill="#373737"/>
<path d="M74.3377 70.5609C61.636 71.1026 52.0126 71.3742 44.9002 71.5524C45.0638 70.5281 45.1695 69.4954 45.2168 68.4593C46.207 68.6368 47.4264 68.5708 47.7766 68.4483C47.7876 68.5162 47.7996 68.5867 47.8122 68.6627C47.8251 68.6058 47.8122 68.6627 47.8403 68.4965L47.852 68.4121C47.8785 68.3923 47.8824 68.3716 47.8607 68.3506C48.296 65.2161 48.339 62.1919 47.7663 59.0373C47.2557 61.8892 47.3013 64.9066 47.6854 67.8416C47.7074 68.0052 47.7285 68.1485 47.7524 68.2986C47.5554 68.2371 47.1079 68.1786 46.313 68.1391C46.2564 68.1375 45.6743 68.1808 45.2274 68.2332C45.2559 67.5829 45.2682 66.9329 45.2714 66.2816C45.5359 66.2437 45.7934 66.2017 46.0436 66.1555C45.7886 66.1141 45.5315 66.0768 45.2724 66.0436C45.275 64.3789 45.2258 62.7076 45.2523 61.0125C45.1805 56.4551 45.5935 52.3841 44.9445 48.8644C44.3178 52.0698 44.6114 55.4332 44.5454 58.7378C44.591 61.1664 44.472 63.5607 44.4675 65.9511C43.3345 65.8409 42.1964 65.7922 41.0581 65.8053C35.8119 65.9023 32.0908 65.9065 29.3084 65.9062C29.6945 64.0707 29.5671 60.7269 29.5455 58.4869C29.474 55.6538 29.6936 52.9481 29.2221 50.1531C29.3408 50.1424 29.4407 50.1308 29.5206 50.1185C29.4164 50.1013 29.312 50.0861 29.2075 50.0684C29.186 49.9409 29.1626 49.8132 29.1374 49.6852C29.1228 49.8061 29.1092 49.928 29.0956 50.0506C28.0964 49.8928 27.092 49.7575 26.0824 49.6447C26.2337 49.5306 26.3592 49.3385 26.4352 49.0491V49.0449C24.7161 50.6178 24.8768 46.3417 27.0305 48.0906C26.8831 47.252 25.8952 46.9684 25.1734 47.4907C24.1738 48.1345 24.4784 49.0908 25.0476 49.5348C24.6703 49.4968 24.293 49.4616 23.9158 49.429C24.0496 49.2722 24.1353 49.0216 24.1386 48.6529C23.8663 50.0321 21.7688 48.4418 23.6648 47.4952C23.8563 47.4674 24.1703 47.2462 24.6957 47.74C24.5499 47.187 23.9216 46.8876 23.2781 47.1043C21.752 47.7358 22.0492 48.8043 22.6834 49.3291C22.3123 49.3019 21.9412 49.2766 21.57 49.2531C21.6715 49.1128 21.6938 48.888 21.5865 48.5601C21.5616 48.564 21.7158 48.8534 21.4872 48.9928C19.5592 49.42 20.821 46.2295 22.0427 47.6931C22.1204 47.1773 21.5434 46.7893 20.9148 46.9704C19.2031 47.7704 19.6235 48.7309 20.3347 49.182C19.878 49.158 19.4212 49.1365 18.9642 49.1173C19.0686 49.0064 19.1229 48.8337 19.0935 48.5889C19.0935 48.5853 19.0935 48.5818 19.0951 48.5785C17.7078 49.9801 17.8 46.2939 19.6808 47.6857C19.4683 47.1036 18.7478 46.6774 18.1263 47.1757C17.0679 47.9738 17.3761 48.7279 17.9145 49.0762C17.3203 49.0547 16.7262 49.0361 16.132 49.0206C16.2546 48.8683 16.3636 48.6545 16.448 48.3677C14.7712 50.1204 15.0422 46.5244 17.2389 47.3287C17.2748 47.0642 16.3115 46.6279 15.8002 46.919C14.4511 47.4315 14.4763 48.4576 14.9155 48.9905L13.9182 48.9702C14.1465 48.6878 14.1769 48.3399 13.7455 48.1617L13.7416 48.1588C13.753 48.1681 13.763 48.179 13.7713 48.1911C14.3515 49.3463 11.5103 48.8437 13.3833 47.2423C13.4218 47.2472 13.6714 47.069 14.3298 47.4464C14.0889 47.0409 13.5307 46.624 12.9348 46.9267C12.2133 47.1431 11.8414 48.2723 12.2673 48.9427L11.0491 48.9229C11.1257 48.8328 11.1775 48.7242 11.1995 48.608C11.2011 48.6038 11.2027 48.5999 11.2047 48.596C11.1723 48.6283 11.1969 48.6377 11.1112 48.6727C9.10174 49.0736 10.7248 45.63 11.8514 47.5832C11.9737 47.0389 11.5384 46.6493 11.02 46.5613C22.3622 46.8407 33.5247 47.3643 44.8704 47.5638C45.4648 47.5234 47.2996 47.4406 46.7396 47.3698C42.5256 46.6683 38.4171 46.9594 34.1546 46.7162C24.2472 46.463 14.6335 45.9741 4.78657 45.7577C4.22 45.7706 3.59006 45.8014 2.95915 45.8651C2.9682 45.3764 3.00248 44.7821 2.75121 44.2676C2.67005 44.7682 2.62186 45.3063 2.8534 45.8405C2.83853 45.8538 2.8243 45.8673 2.80942 45.8809C2.58306 45.9055 2.35993 45.9349 2.14003 45.9692C2.29816 46.0015 2.45726 46.0339 2.61701 46.0643C1.97025 46.7159 1.47225 47.5586 1.04442 48.4528C-2.15025 48.7318 2.83723 49.1784 4.74323 49.0423C4.10747 53.8441 4.38396 58.8035 4.52786 63.6729C4.5602 63.8993 4.65107 64.98 4.72609 65.4444C4.72027 65.4557 4.71381 65.4667 4.70798 65.4767L4.57605 65.4554C4.60838 65.4845 4.64072 65.5123 4.67629 65.5395C3.95516 67.0037 4.23682 69.5002 4.21936 70.8623C4.97736 68.6164 4.81955 67.7294 4.82602 65.6498C5.20275 65.8988 5.682 66.0669 6.17483 66.2538C6.09302 67.3533 6.54122 69.8226 7.02144 70.3071C6.67057 65.2775 7.76295 65.9534 4.82666 65.4974C4.82666 65.4712 4.82666 65.4447 4.82666 65.4182C5.5339 58.864 5.24512 51.5184 4.8839 49.0313C5.1578 49.0048 5.34795 48.9637 5.41036 48.9045C5.22151 48.8528 5.03169 48.8046 4.84089 48.76C4.82925 48.6953 4.81793 48.6332 4.80629 48.5773C4.79821 48.6338 4.79077 48.6901 4.78268 48.7467C3.6722 48.4909 2.52744 48.3622 1.34128 48.4311C1.84123 47.9654 2.51579 46.8643 2.78161 46.0947C4.04279 46.3165 5.35539 46.4106 6.68416 46.4662C8.00462 46.4902 9.32196 46.5183 10.6362 46.5506C10.4316 46.5741 10.2371 46.6523 10.0732 46.777C9.01087 47.5418 9.4691 48.51 10.0945 48.9071H10.0447C9.81059 48.9352 8.02068 49.0141 8.58951 49.096C9.20037 49.1901 9.82805 49.277 10.4674 49.3579C9.83226 54.2943 9.91375 59.4839 10.4745 64.4736C11.0372 59.5085 11.1274 54.3696 10.4874 49.3605C12.7394 49.6441 15.1344 49.8478 17.4427 49.9878C16.8483 54.673 17.0158 59.5275 17.3896 64.2747C17.4313 64.5658 17.4698 64.7921 17.5229 65.1071C17.5355 65.0496 17.5229 65.1091 17.551 64.9403C18.2236 58.6712 17.8391 52.063 17.4601 49.9891C22.6394 50.3031 27.3791 50.2983 29.0817 50.1657C28.7985 52.8206 28.7141 55.8158 28.736 58.5218C26.6017 58.061 24.2902 58.1286 22.0469 58.1661C19.4599 58.3795 18.6692 58.5251 18.9082 58.6188C18.2366 60.995 18.4555 63.6493 19.2316 66.0439C19.3034 63.845 19.2963 61.0704 18.9357 58.6276C19.7626 58.8698 27.7087 58.754 28.3224 58.6007C28.4405 58.6007 28.5769 58.604 28.7354 58.5978C28.7639 61.7993 28.9414 64.5829 29.1134 65.9062C24.8885 65.9062 22.8664 65.8958 20.8973 66.1914C19.9046 66.3761 19.4874 66.3276 20.4831 66.4653C23.9678 66.9863 27.3433 66.5989 30.8597 66.6429C36.5428 66.5458 41.0565 66.7454 44.4656 66.3812C44.473 68.0984 44.548 69.8142 44.7944 71.5404C44.7944 71.545 44.7944 71.5495 44.797 71.5543C33.8991 71.8269 28.931 71.8806 27.8387 72.3589C29.3602 72.844 32.8511 72.6697 35.1192 72.5293C39.4807 72.3288 43.888 72.1943 48.3044 72.0423C60.305 71.5472 77.1654 71.5608 78.6012 70.8225C77.1904 70.6106 75.7638 70.523 74.3377 70.5609ZM2.85567 45.8483C2.85955 45.8573 2.86343 45.8664 2.86763 45.8754L2.84855 45.8774C2.85114 45.8677 2.8534 45.858 2.85567 45.8483Z" fill="#373737"/>
<path d="M72.6876 67.4771C61.628 67.9592 50.495 67.5741 47.877 68.3906C53.7123 68.9649 59.4633 68.334 65.3029 68.3453L65.2172 68.3473C76.4527 68.3576 81.7455 67.5828 72.6876 67.4771Z" fill="#373737"/>
<path d="M21.9092 68.4086C21.7798 68.266 21.5279 68.247 21.4028 67.6358C21.407 67.6497 21.4112 67.6636 21.4157 67.6778C21.3992 67.6183 21.3814 67.5594 21.3614 67.5016C21.3656 67.5155 21.3701 67.53 21.3743 67.5442C21.2951 67.2888 21.1741 66.8839 20.9277 66.5825C20.974 67.1737 20.9688 68.3685 21.9092 68.4086Z" fill="#373737"/>
<path d="M27.1608 72.0137C26.7023 71.9281 26.5962 71.9006 26.0018 71.9449C25.9643 71.9449 25.4084 72.0742 25.0472 72.1832C25.2364 71.7884 25.2584 71.2677 24.8894 70.8955C24.9541 71.257 24.9476 71.756 24.912 72.2272C24.7348 72.2886 24.6627 72.3365 24.8496 72.3384C24.8664 72.3454 24.8838 72.3505 24.9017 72.3536C24.8998 72.3788 24.8975 72.4044 24.8949 72.4296C24.9127 72.4073 24.9295 72.384 24.9457 72.3601C25.5035 72.4267 27.7701 72.1302 27.1608 72.0137Z" fill="#373737"/>
<path d="M6.84437 72.5186C7.0578 72.0438 7.22208 71.4149 7.02255 70.8237C6.86701 71.3224 6.76288 71.9025 6.84437 72.5186Z" fill="#373737"/>
<path d="M8.48335 70.9746C8.39054 71.1108 8.1949 72.563 8.3637 72.2972C8.52507 71.9515 8.65378 71.4425 8.48335 70.9746Z" fill="#373737"/>
<path d="M4.23926 71.0093C4.82328 71.6463 5.43576 72.6006 6.4059 72.9111C5.77725 72.2734 5.27569 71.2728 4.23926 71.0093Z" fill="#373737"/>
<path d="M6.96748 72.5986C5.33215 72.9478 8.37191 72.8615 8.69788 72.8321C8.21637 72.5986 7.60001 72.4333 6.96748 72.5986Z" fill="#373737"/>
<path d="M9.53234 65.325C5.78114 65.7874 10.6755 66.0041 11.9709 65.5714C11.2146 65.4841 10.4113 65.2474 9.53234 65.325Z" fill="#373737"/>
<path d="M13.0842 65.4982C10.2155 65.8216 15.9199 66.1773 16.5146 65.7714C15.4594 65.5716 14.2668 65.3714 13.0842 65.4982Z" fill="#373737"/>
<path d="M19.475 66.164C18.6782 65.7908 17.7288 65.602 16.7541 65.773C15.9515 65.8096 17.2754 66.1288 18.5621 66.1821C18.6165 66.333 18.6693 66.4857 18.7206 66.64C19.4676 68.0571 17.3905 68.7151 24.4415 70.4837C24.3057 70.399 24.1744 70.3178 24.0467 70.2389C25.4825 70.8718 26.8061 70.9694 26.7388 71.8522C27.7697 70.397 22.4188 69.0498 21.7497 68.4322C22.0026 68.7936 22.304 69.1185 22.6455 69.3978C18.2769 66.8638 20.8753 69.3383 18.599 66.1841C18.8911 66.1967 19.1838 66.19 19.475 66.164Z" fill="#373737"/>
<path d="M19.5059 63.8492C19.6575 63.9504 19.9858 64.0865 20.1966 63.8401C21.6997 62.372 19.1049 59.2627 21.4232 59.187C21.5955 58.9561 20.3696 58.9234 20.1167 59.3613C18.9467 60.2713 21.0807 64.0247 19.5059 63.8492Z" fill="#373737"/>
<path d="M20.9395 63.4849C21.8481 63.9887 22.2976 62.1913 22.19 61.2458C22.2184 60.6401 21.8666 59.6289 22.7177 59.3631C23.1029 59.5015 22.6922 59.0959 22.3513 59.2741C20.6103 59.9325 22.4516 63.2433 20.9395 63.4849ZM22.6534 59.3611H22.6443H22.6534ZM22.5994 59.376L22.5816 59.3844L22.5994 59.376Z" fill="#373737"/>
<path d="M23.7688 59.4665C21.8266 60.3124 23.7708 63.4579 22.2642 63.552C22.3046 63.576 22.3392 63.5993 22.487 63.6342C24.4272 63.3991 22.4546 59.9949 24.3871 59.4277C24.2423 59.4131 24.0111 59.3814 23.7688 59.4665Z" fill="#373737"/>
<path d="M25.1788 59.5582C23.2194 60.213 25.1788 63.4126 23.3711 63.5985C25.9323 64.2575 23.8128 59.4156 25.8611 59.7105C25.647 59.6164 25.6474 59.4793 25.1788 59.5582Z" fill="#373737"/>
<path d="M26.8652 59.5809C25.2209 60.0796 26.2576 61.82 25.1953 63.3137C27.1139 62.5512 25.6713 59.8329 27.2921 59.698C27.166 59.6615 27.229 59.5742 26.8652 59.5809Z" fill="#373737"/>
<path d="M28.6197 59.7705C28.752 59.8626 28.5431 59.4962 28.1803 59.6553C27.1267 60.0967 27.2063 62.1903 26.8677 62.7902C28.3779 61.7748 27.3482 60.0036 28.6197 59.7705ZM28.4671 59.7446L28.4532 59.7472L28.4671 59.7446Z" fill="#373737"/>
<path d="M16.4483 48.3657V48.3672C16.4483 48.3672 16.4482 48.3662 16.4483 48.3657Z" fill="#373737"/>
<path d="M16.4473 48.371C16.4473 48.3657 16.4473 48.368 16.4473 48.3657C16.4473 48.3667 16.4473 48.3677 16.4473 48.3687C16.4474 48.3695 16.4474 48.3702 16.4473 48.371Z" fill="#373737"/>
<path d="M29.1638 48.1242C28.9698 47.8199 28.6286 47.3946 28.1132 47.5615C26.0688 48.3321 28.3211 50.9466 28.93 49.4462C28.93 49.4439 28.9323 49.4413 28.9333 49.4387C28.9273 49.4548 28.9186 49.4697 28.9074 49.4827C27.6362 50.154 27.3649 47.0667 29.1638 48.1242ZM28.8783 49.506L28.8725 49.5079L28.8783 49.506Z" fill="#373737"/>
<path d="M1.76758 44.9942L1.77114 44.9902L1.76758 44.9942Z" fill="#373737"/>
<path d="M1.76771 44.9939C0.797568 45.9825 -0.0247856 47.1874 1.01456 48.4217C0.526253 46.7259 2.32133 45.6106 2.84359 43.9766C2.52506 44.2783 2.13571 44.6214 1.76771 44.9955V44.9939Z" fill="#373737"/>
<path d="M1.771 44.9895C1.77449 44.985 1.7802 44.9787 1.79608 44.96L1.771 44.9895Z" fill="#373737"/>
<path d="M10.9928 37.3307C10.9929 37.3328 10.9929 37.3349 10.9928 37.3369V37.3296C10.9926 37.33 10.9926 37.3304 10.9928 37.3307Z" fill="#373737"/>
<path d="M10.992 37.3379C10.992 37.343 10.992 37.3477 10.9897 37.3528V37.3627C10.9901 37.3544 10.991 37.3461 10.992 37.3379Z" fill="#373737"/>
<path d="M11.9723 31.6543C11.633 34.4053 11.4225 37.3396 12.1288 40.1391C11.8862 37.5763 12.652 33.7145 11.9723 31.6543Z" fill="#373737"/>
<path d="M12.3975 30.5083C12.7888 30.2011 13.0879 29.7212 13.2861 29.1841C12.9265 29.4871 12.5317 29.9524 12.3975 30.5083Z" fill="#373737"/>
<path d="M42.1665 34.7539C41.4809 36.3944 41.3295 38.1691 41.6332 39.9927C39.7172 39.537 36.0998 39.5496 33.701 39.4937C28.9933 39.3912 24.5264 39.0917 19.8248 39.027C6.92714 39.5415 42.8103 40.5751 42.0148 40.0971C41.9223 40.0677 41.8237 40.0402 41.7199 40.014C41.933 39.4714 42.0449 38.3046 42.1726 37.5217V37.5295C42.2855 36.6712 42.2812 35.6445 42.1665 34.7539Z" fill="#373737"/>
<path d="M39.4043 35.8562C40.3858 35.2774 41.5803 34.6616 42.3092 33.6572C41.2527 34.1316 40.0006 34.6542 39.4043 35.8562Z" fill="#373737"/>
<path d="M38.5181 33.619C39.8701 33.6019 40.7817 32.7048 42.0125 32.1289C41.7443 32.1347 41.4768 32.1596 41.2121 32.2033C40.4364 32.3013 38.7027 33.285 38.5181 33.619Z" fill="#373737"/>
<path d="M48.8348 25.3808C48.9923 24.8075 49.1824 24.0372 48.8736 23.3623C48.8561 23.4577 48.8387 23.5563 48.8225 23.6533L48.7255 23.6365C48.5677 23.6495 48.5156 23.263 48.2728 23.3397C47.9135 24.1575 48.2194 26.7474 48.4668 23.6666C48.5101 23.6811 48.644 23.7516 48.8196 23.6782C48.7339 24.2031 48.6909 24.7761 48.8348 25.3808Z" fill="#373737"/>
<path d="M47.9629 30.1789L47.961 30.1711C48.1776 31.7133 48.21 30.1064 48.252 29.3128C48.4282 28.0044 47.6179 26.4774 48.8363 25.4067C46.7253 26.1208 47.6968 28.6017 47.9629 30.1789Z" fill="#373737"/>
<path d="M47.8843 30.9126C47.7608 30.964 47.6053 31.0122 47.3022 31.1264C47.4523 31.1409 47.6728 31.2056 47.8843 30.9126Z" fill="#373737"/>
<path d="M47.1945 31.0135C47.4691 29.8652 47.4807 28.5235 47.201 27.2749C47.0173 28.4617 46.745 29.7368 47.1945 31.0135Z" fill="#373737"/>
<path d="M66.5759 26.4122C65.1178 26.1535 63.629 25.9692 62.1168 25.8434C62.5848 25.8699 62.9554 25.8796 63.1083 25.8651C64.2402 25.8693 65.1437 25.7131 66.3027 25.8098C65.5327 25.5236 64.6793 25.5071 63.7716 25.3667C62.2953 25.1882 60.9452 24.9952 59.4001 25.1682C57.3732 25.3299 59.2165 25.606 60.9688 25.7596C60.2917 25.7165 59.6105 25.6842 58.9254 25.6626C51.7645 25.9479 66.2571 26.7337 66.5759 26.4122Z" fill="#373737"/>
<path d="M61.9605 33.213C61.8716 31.0883 61.7765 28.9579 61.7807 26.7822C61.6313 27.6835 61.5285 30.4458 61.522 33.2003C60.6043 33.1777 59.683 33.1748 58.7671 33.1609C58.6973 33.2117 56.661 33.2699 57.1916 33.3494C58.6336 33.6728 60.073 33.8086 61.522 33.8646C61.5324 37.2526 61.6941 40.3988 62.1005 39.7746C62.1031 39.614 62.1051 39.4535 62.1064 39.2931C62.1144 39.2931 62.1174 39.2899 62.1853 39.2792C62.183 39.2653 62.1811 39.2511 62.1794 39.2369C62.1555 39.253 62.1313 39.2692 62.1067 39.2834C62.1225 37.4677 62.0621 35.6742 61.989 33.8798C63.6848 33.926 65.3961 33.8765 67.1436 33.8953C65.4854 33.4222 63.7343 33.2708 61.9605 33.213Z" fill="#373737"/>
<path d="M64.5024 34.0425C64.5049 34.0425 64.5062 34.0462 64.5176 34.0425H64.5024Z" fill="#373737"/>
<path d="M49.5467 55.1296C49.5076 55.851 49.6631 56.6996 49.8966 57.4799C49.9115 56.545 50.6727 54.445 49.5839 54.5869C47.3759 54.5656 47.4596 54.6814 49.5467 55.1296Z" fill="#373737"/>
<path d="M49.9521 57.557C49.585 57.5014 49.3302 57.4296 48.8303 57.4778C48.4312 57.4962 47.9791 57.8658 48.0904 58.3874C48.2951 57.6699 49.3072 57.861 49.9521 57.557Z" fill="#373737"/>
<path d="M54.7633 57.4482C54.112 58.6813 54.2343 60.1268 54.5483 61.528C54.8658 60.2458 54.8781 58.8659 54.7633 57.4482Z" fill="#373737"/>
<path d="M61.5074 51.646C57.1619 51.7171 60.6443 52.3574 62.3589 52.1767H62.3265C62.8003 52.1443 63.4396 52.1088 63.9932 52.0454C63.2437 51.8416 62.3928 51.6593 61.5074 51.646Z" fill="#373737"/>
<path d="M60.2802 33.9541C60.1656 33.9587 60.0523 33.9805 59.9442 34.0188C58.2678 35.1451 59.8268 37.1041 58.3037 38.3065C59.9439 37.8644 59.5186 36.2507 59.6942 34.8764C59.7757 34.4922 59.8514 34.218 60.2802 33.9541Z" fill="#373737"/>
<path d="M63.7038 34.3173C62.191 35.4049 63.9903 37.8655 62.4526 38.9514C64.5928 38.4016 62.8928 35.618 63.9809 34.23C64.1775 34.0616 63.9082 34.1676 63.7038 34.3173Z" fill="#373737"/>
<path d="M65.788 34.2372C65.6085 34.2173 65.4268 34.236 65.2551 34.2922C63.5344 35.2824 65.2111 38.0893 63.6382 38.9977C65.9494 38.6733 64.0802 34.7582 65.788 34.2372Z" fill="#373737"/>
<path d="M65.6328 34.307L65.6367 34.3052L65.6328 34.307Z" fill="#373737"/>
<path d="M66.935 34.5347C64.7599 34.7109 66.7807 37.9302 64.7803 39.1286C67.7845 38.3444 65.255 35.3037 66.935 34.5347Z" fill="#373737"/>
<path d="M61.1151 34.3473C61.0493 34.3131 60.9753 34.2977 60.9013 34.3027C59.7763 34.9262 61.4064 37.4941 59.4688 38.375C61.1005 38.2285 61.2173 36.557 60.8855 35.2431C60.869 35.0545 60.6284 34.367 61.1151 34.3473ZM60.9641 34.3754C60.9612 34.3767 60.9584 34.3781 60.9556 34.3797L60.9641 34.3754Z" fill="#373737"/>
<path d="M14.7825 37.8636C14.7873 38.0198 14.7899 38.1766 14.7883 38.3341C15.2598 36.9792 15.6698 35.1226 14.6751 33.8091C14.7295 34.202 14.7851 34.743 14.7346 35.2436L14.7375 35.2138C14.6518 35.99 14.7395 36.812 14.775 37.6573C12.6449 39.5264 13.2519 40.5739 14.7825 37.8636Z" fill="#373737"/>
<path d="M37.7528 48.4126C38.3482 48.3182 36.4593 48.2868 36.1443 48.346C30.4933 48.984 30.6365 57.5299 31.326 60.3007C32.2263 52.4574 32.1901 49.6388 37.7528 48.4126Z" fill="#373737"/>
<path d="M31.7285 61.1124C34.3618 61.8827 37.1254 61.4138 39.8305 61.1366C38.1334 60.8922 36.4208 60.7708 34.7062 60.7735C33.8948 60.8168 32.0428 60.973 31.7285 61.1124Z" fill="#373737"/>
<path d="M42.9775 55.4452C43.1314 56.8765 43.1547 58.3537 43.3145 59.7164C44.5828 56.1877 43.763 48.1808 37.8914 48.5145C38.4088 48.7273 39.0232 48.9721 39.6134 49.247C39.8641 49.3732 40.0996 49.5277 40.3151 49.7075L40.2505 49.6499C40.3223 49.7146 40.3937 49.7793 40.4658 49.8417L40.3989 49.7818C42.1936 51.1743 42.7372 53.242 42.974 55.4206C41.2982 55.2039 39.5824 54.9679 37.8322 54.846C38.0052 52.9736 37.9897 51.0896 37.4823 49.2515C37.3465 51.076 37.1848 52.9325 37.0943 54.8013C36.8401 54.789 36.5853 54.7787 36.3295 54.7726C35.5485 54.8091 34.6961 54.9119 33.8353 55.1464C34.9205 55.2647 35.9489 55.409 37.0632 55.5367C37.0115 56.9622 37.0102 58.3934 37.1024 59.8218C35.7008 59.8629 34.2721 60.1035 32.8477 60.433C36.2056 60.8592 39.6202 60.3929 43.0723 60.3085C43.3209 60.2901 43.3633 60.2952 43.6763 60.2639C41.6656 60.0744 39.6283 59.7814 37.5134 59.8147C37.384 59.8147 37.2573 59.8173 37.1292 59.8208C37.332 58.4461 37.5819 57.0346 37.7501 55.6117C39.5319 55.8067 41.1608 55.494 42.9775 55.4452Z" fill="#373737"/>
<path d="M62.5213 5.70654C62.0556 7.37324 61.7355 9.09847 61.8829 10.9191C61.815 14.6137 63.2136 6.39631 62.5213 5.70654Z" fill="#373737"/>
<path d="M78.1549 70.4289C78.4136 69.1531 78.3676 67.7771 77.9867 66.4189C77.8075 67.7804 77.6284 69.0393 78.1549 70.4289Z" fill="#373737"/>
</g>
<defs>
<clipPath id="clip0_937_242">
<rect width="83.8015" height="73" fill="white"/>
</clipPath>
</defs>
</svg>
