<svg width="28" height="28" viewBox="0 0 28 28" fill="none" xmlns="http://www.w3.org/2000/svg">
<g clip-path="url(#clip0_937_1461)">
<path d="M22.9918 27.5206C17.0033 28.1598 10.9967 28.1598 5.00818 27.5206C2.6203 27.2658 0.734223 25.3797 0.47937 22.9916C-0.15979 17.0031 -0.15979 10.9967 0.47937 5.00818C0.734223 2.6203 2.6203 0.734222 5.00818 0.47937C10.9967 -0.15979 17.0031 -0.15979 22.9916 0.47937C25.3797 0.734222 27.2658 2.6203 27.5206 5.00818C28.1598 10.9967 28.1598 17.0031 27.5206 22.9916C27.2658 25.3797 25.3799 27.2658 22.9918 27.5206Z" fill="url(#paint0_linear_937_1461)"/>
<path d="M25.9975 6.02097C25.7715 3.90204 24.098 2.2283 21.9788 2.00207C16.6648 1.43512 11.3349 1.43512 6.02077 2.00207C3.90184 2.2283 2.2281 3.90204 2.00188 6.02097C1.43492 11.3351 1.43492 16.665 2.00188 21.9788C2.2281 24.098 3.90184 25.7717 6.02077 25.9977C11.3349 26.5649 16.6648 26.5649 21.9786 25.9977C24.0978 25.7717 25.7715 24.098 25.9975 21.9788C26.5647 16.665 26.5647 11.3351 25.9975 6.02097Z" fill="#4ECC5C"/>
<path d="M0.419922 22.4112C0.439148 22.6047 0.459015 22.7983 0.479736 22.9918C0.734589 25.3797 2.62067 27.2658 5.00876 27.5206C10.9973 28.1598 17.0037 28.1598 22.9922 27.5206C25.3803 27.2658 27.2661 25.3797 27.521 22.9918C27.5417 22.7983 27.5616 22.6047 27.581 22.4112H0.419922Z" fill="url(#paint1_linear_937_1461)"/>
<path fill-rule="evenodd" clip-rule="evenodd" d="M20.122 7.84423C18.4976 6.21877 16.3925 5.43286 14.0912 5.43179C9.34918 5.43179 5.54498 9.2347 5.54306 13.9767C5.54242 15.4926 6.04828 16.9172 6.80109 18.2214L5.36084 22.678L10.6151 27.932C14.7415 28.0976 18.8708 27.9605 22.992 27.5206C25.3801 27.2658 27.266 25.3797 27.5208 22.9916C27.7799 20.565 27.9337 18.1353 27.9829 15.7051L20.122 7.84423Z" fill="url(#paint2_linear_937_1461)"/>
<path d="M5.66016 22.3777L6.8385 18.0753C6.11154 16.8162 5.72937 15.3877 5.7298 13.9246C5.73172 9.34686 9.4573 5.62255 14.035 5.62255C16.2567 5.62362 18.3421 6.48815 19.9099 8.05743C21.4781 9.62692 22.3411 11.7127 22.3403 13.9312C22.3383 18.5089 18.6123 22.2337 14.0352 22.2337C14.035 22.2337 14.0355 22.2337 14.0352 22.2337H14.0316C12.6418 22.2332 11.2761 21.8844 10.0629 21.2232L5.66016 22.3777Z" fill="url(#paint3_linear_937_1461)"/>
<path fill-rule="evenodd" clip-rule="evenodd" d="M20.122 7.84424C18.4976 6.21878 16.3376 5.32306 14.0363 5.32199C9.29428 5.32199 5.43518 9.17981 5.43326 13.9218C5.43262 15.4377 5.82867 16.9172 6.58148 18.2214L5.36084 22.678L9.92148 21.4821C11.1782 22.1674 12.5928 22.5285 14.0326 22.5291H14.0363C18.7776 22.5291 22.6374 18.6704 22.6393 13.9286C22.6402 11.6307 21.7461 9.46991 20.122 7.84424ZM14.0363 21.0767H14.0335C12.7503 21.0758 11.4918 20.7313 10.3942 20.0799L10.133 19.925L7.42657 20.6347L8.14905 17.9969L7.97879 17.7264C7.26294 16.5883 6.88504 15.273 6.88568 13.9225C6.88718 9.98111 10.0947 6.77463 14.0391 6.77463C15.9491 6.77527 17.7441 7.51996 19.0944 8.87091C20.4445 10.2221 21.1873 12.018 21.1869 13.9282C21.1852 17.8696 17.9774 21.0767 14.0363 21.0767Z" fill="white"/>
<path fill-rule="evenodd" clip-rule="evenodd" d="M17.9583 15.7229C17.7434 15.6154 16.6866 15.0952 16.4894 15.0235C16.2924 14.9519 16.1491 14.916 16.0057 15.1313C15.8624 15.3462 15.4505 15.8303 15.3251 15.9736C15.1997 16.1172 15.0743 16.1351 14.8594 16.0277C14.6445 15.9198 13.9522 15.6932 13.1308 14.9609C12.4919 14.3911 12.0603 13.6875 11.9349 13.4723C11.8095 13.2572 11.9215 13.1408 12.0294 13.0336C12.1257 12.9374 12.2443 12.7828 12.3517 12.6572C12.459 12.5318 12.4948 12.442 12.5666 12.2987C12.6382 12.1551 12.6023 12.0297 12.5487 11.9223C12.4948 11.8146 12.0772 10.7516 11.886 10.3265C11.7249 9.96871 11.5553 9.96144 11.4022 9.95525C11.277 9.94991 11.1334 9.95012 10.9903 9.95012C10.847 9.95012 10.6141 10.004 10.4171 10.2191C10.22 10.4342 9.66455 10.9541 9.66455 12.0118C9.66455 13.0694 10.4351 14.0914 10.5423 14.235C10.65 14.3783 12.0296 16.6179 14.2145 17.4797C16.0303 18.1958 16.3999 18.0533 16.794 18.0174C17.1881 17.9815 18.0657 17.4976 18.2449 16.9956C18.424 16.4938 18.424 16.0636 18.3703 15.9736C18.3165 15.8841 18.1732 15.8303 17.9583 15.7229Z" fill="white"/>
</g>
<defs>
<linearGradient id="paint0_linear_937_1461" x1="6.36959" y1="-0.700269" x2="25.8125" y2="31.5" gradientUnits="userSpaceOnUse">
<stop stop-color="#64DA71"/>
<stop offset="1" stop-color="#40AA4C"/>
</linearGradient>
<linearGradient id="paint1_linear_937_1461" x1="14.0004" y1="25.375" x2="14.0004" y2="29.0814" gradientUnits="userSpaceOnUse">
<stop stop-color="#4ECC5C" stop-opacity="0"/>
<stop offset="1" stop-color="#31883B"/>
</linearGradient>
<linearGradient id="paint2_linear_937_1461" x1="16.6252" y1="24.5" x2="7.97654" y2="4.90144" gradientUnits="userSpaceOnUse">
<stop stop-color="#2EAE3C" stop-opacity="0"/>
<stop offset="1" stop-color="#4FBD5B"/>
</linearGradient>
<linearGradient id="paint3_linear_937_1461" x1="14.0002" y1="22.3777" x2="14.0002" y2="5.62253" gradientUnits="userSpaceOnUse">
<stop stop-color="#20B038"/>
<stop offset="1" stop-color="#60D66A"/>
</linearGradient>
<clipPath id="clip0_937_1461">
<rect width="28" height="28" fill="white"/>
</clipPath>
</defs>
</svg>
