<svg width="29" height="29" viewBox="0 0 29 29" fill="none" xmlns="http://www.w3.org/2000/svg">
<path fill-rule="evenodd" clip-rule="evenodd" d="M23.0346 20.725C22.6716 21.7434 20.9295 22.6716 20.0915 22.797C19.3414 22.9092 18.3912 22.9554 17.3463 22.6255C16.7128 22.4231 15.9012 22.1547 14.8629 21.706C10.4901 19.8187 7.63274 15.4172 7.41497 15.1269C7.19721 14.8365 5.63547 12.7645 5.63547 10.6198C5.63547 8.4752 6.76168 7.41937 7.16201 6.98384C7.56015 6.54832 8.03307 6.43833 8.32342 6.43833C8.61377 6.43833 8.90413 6.44053 9.15928 6.45373C9.42764 6.46693 9.78618 6.35255 10.1403 7.20161C10.5033 8.07486 11.3743 10.2195 11.4843 10.4373C11.5921 10.655 11.6647 10.9102 11.5195 11.2005C11.3743 11.4909 11.3017 11.6735 11.084 11.9286C10.8662 12.1816 10.6264 12.4961 10.4307 12.6919C10.2129 12.9075 9.98415 13.145 10.2393 13.5806C10.4945 14.0161 11.3677 15.4436 12.6633 16.5985C14.3284 18.0832 15.734 18.5429 16.1695 18.7629C16.6051 18.9807 16.8602 18.9433 17.1132 18.6529C17.3683 18.3626 18.2042 17.3815 18.4945 16.9438C18.7849 16.5083 19.0752 16.5809 19.4756 16.726C19.8737 16.8712 22.0184 17.9248 22.4539 18.1448C22.8894 18.3626 23.1798 18.4703 23.2897 18.6529C23.3975 18.8355 23.3975 19.7065 23.0346 20.725ZM14.5066 0C6.50872 0 0.00219964 6.50213 0 14.4934C0 17.2319 0.765474 19.9001 2.21723 22.2075L2.56258 22.7552L1.09762 28.1047L6.58571 26.6662L7.11362 26.9785C9.33965 28.3005 11.8912 29 14.4934 29H14.5C22.4913 29 28.9956 22.4979 29 14.5044C29 10.6308 27.4954 6.99044 24.7569 4.2497C22.0184 1.51115 18.378 0 14.5066 0Z" fill="white"/>
</svg>
